<?xml version="1.0" encoding="utf-8"?>
<!-- Generator: Adobe Illustrator 17.0.0, SVG Export Plug-In . SVG Version: 6.00 Build 0)  -->
<!DOCTYPE svg PUBLIC "-//W3C//DTD SVG 1.0//EN" "http://www.w3.org/TR/2001/REC-SVG-20010904/DTD/svg10.dtd">
<svg version="1.0" xmlns="http://www.w3.org/2000/svg" xmlns:xlink="http://www.w3.org/1999/xlink" x="0px" y="0px" width="1250px"
	 height="420px" viewBox="0 0 1250 420" enable-background="new 0 0 1250 420" xml:space="preserve">
<g id="Layer_9">
</g>
<g id="Layer_3" display="none">
	<g display="inline">
		<path fill="#2F343B" d="M398.815,188.917v-24.502h6.23v24.502H398.815z"/>
		<path fill="#2F343B" d="M449.181,188.917l-11.271-15.086v15.086h-5.846v-24.502h5.495l11.306,15.121v-15.121h5.811v24.502H449.181
			z"/>
		<path fill="#2F343B" d="M472.805,169.315v4.865h11.691v4.9h-11.691v4.936h13.336v4.9h-19.566v-24.502h19.182v4.9H472.805z"/>
		<path fill="#2F343B" d="M503.395,169.315v4.865h11.691v4.9h-11.691v4.936h13.336v4.9h-19.566v-24.502h19.182v4.9H503.395z"/>
		<path fill="#2F343B" d="M538.289,164.415c7.701,0,13.021,4.97,13.021,12.251c0,7.246-5.391,12.251-13.266,12.251h-10.291v-24.502
			H538.289z M533.985,183.946h4.445c3.815,0,6.545-2.939,6.545-7.245c0-4.341-2.869-7.316-6.825-7.316h-4.165V183.946z"/>
		<path fill="#2F343B" d="M582.283,184.401l-1.785,4.516h-6.405l10.571-24.502h6.405l10.326,24.502h-6.651l-1.75-4.516H582.283z
			 M587.674,170.61l-3.57,9.065h7.07L587.674,170.61z"/>
		<path fill="#2F343B" d="M616.899,169.315v5.67h10.991v4.901h-10.991v9.03h-6.23v-24.502h18.166v4.9H616.899z"/>
		<path fill="#2F343B" d="M645.037,169.315v5.67h10.991v4.901h-10.991v9.03h-6.23v-24.502h18.167v4.9H645.037z"/>
		<path fill="#2F343B" d="M683.574,183.702v5.215h-16.627v-24.502h6.23v19.287H683.574z"/>
		<path fill="#2F343B" d="M715.6,178.626c0,6.476-4.306,10.571-11.167,10.571c-6.896,0-11.306-4.096-11.306-10.571v-14.211h6.23
			v14.211c0,3.325,2.136,5.355,5.11,5.355c2.94,0,4.936-2.03,4.936-5.355v-14.211h6.196V178.626z"/>
		<path fill="#2F343B" d="M733.308,169.315v4.865h11.691v4.9h-11.691v4.936h13.337v4.9h-19.567v-24.502h19.182v4.9H733.308z"/>
		<path fill="#2F343B" d="M774.784,188.917l-11.271-15.086v15.086h-5.846v-24.502h5.496l11.306,15.121v-15.121h5.811v24.502H774.784
			z"/>
		<path fill="#2F343B" d="M813.53,168.335l-3.605,4.271c-1.61-1.96-3.99-3.186-6.161-3.186c-3.885,0-6.825,3.081-6.825,7.106
			c0,4.095,2.94,7.21,6.825,7.21c2.065,0,4.445-1.12,6.161-2.87l3.641,3.851c-2.626,2.695-6.511,4.48-10.116,4.48
			c-7.386,0-12.882-5.426-12.882-12.602c0-7.07,5.636-12.391,13.092-12.391C807.299,164.205,811.079,165.814,813.53,168.335z"/>
		<path fill="#2F343B" d="M829.627,169.315v4.865h11.691v4.9h-11.691v4.936h13.337v4.9h-19.567v-24.502h19.182v4.9H829.627z"/>
		<path fill="#2F343B" d="M479.736,211.42v19.497h-6.23V211.42h-7.315v-5.04h20.932v5.04H479.736z"/>
		<path fill="#2F343B" d="M520.406,218.631c0,7.141-5.67,12.566-13.266,12.566c-7.561,0-13.231-5.391-13.231-12.566
			c0-7.141,5.671-12.426,13.231-12.426C514.737,206.205,520.406,211.525,520.406,218.631z M500.28,218.666
			c0,4.13,3.186,7.315,6.932,7.315c3.779,0,6.79-3.186,6.79-7.315c0-4.131-3.011-7.246-6.79-7.246
			C503.43,211.42,500.28,214.535,500.28,218.666z"/>
		<path fill="#2F343B" d="M557.401,206.415c5.495,0,8.995,2.38,8.995,6.125c0,2.591-1.61,4.655-4.2,5.391
			c3.08,0.596,5.041,3.011,5.041,6.196c0,4.165-3.641,6.79-9.416,6.79h-12.007v-24.502H557.401z M552.01,216.216h5.04
			c1.82,0,2.976-0.98,2.976-2.556s-1.155-2.485-2.976-2.485h-5.04V216.216z M552.01,226.122h5.04c2.31,0,3.745-1.016,3.745-2.766
			c0-1.646-1.436-2.66-3.745-2.66h-5.04V226.122z"/>
		<path fill="#2F343B" d="M584.07,211.315v4.865h11.69v4.9h-11.69v4.936h13.336v4.9h-19.567v-24.502h19.183v4.9H584.07z"/>
		<path fill="#2F343B" d="M639.93,230.917v-9.521h-10.151v9.521h-6.23v-24.502h6.23v10.081h10.151v-10.081h6.23v24.502H639.93z"/>
		<path fill="#2F343B" d="M663.623,226.401l-1.785,4.516h-6.405l10.571-24.502h6.405l10.326,24.502h-6.65l-1.751-4.516H663.623z
			 M669.014,212.61l-3.57,9.065h7.071L669.014,212.61z"/>
		<path fill="#2F343B" d="M702.683,206.415c6.266,0,9.871,3.08,9.871,8.54c0,5.741-3.605,9.066-9.871,9.066h-4.445v6.896h-6.23
			v-24.502H702.683z M698.238,219.121h4.131c2.73,0,4.306-1.365,4.306-3.955c0-2.556-1.575-3.851-4.306-3.851h-4.131V219.121z"/>
		<path fill="#2F343B" d="M733.483,206.415c6.266,0,9.871,3.08,9.871,8.54c0,5.741-3.605,9.066-9.871,9.066h-4.445v6.896h-6.23
			v-24.502H733.483z M729.037,219.121h4.131c2.73,0,4.306-1.365,4.306-3.955c0-2.556-1.575-3.851-4.306-3.851h-4.131V219.121z"/>
		<path fill="#2F343B" d="M766.243,230.917h-6.196v-7.735l-9.065-16.767h6.23l5.916,10.676l5.775-10.676h6.23l-8.891,16.592V230.917
			z"/>
	</g>
	<g display="inline">
		<path fill="#2F343B" d="M598.803,45.066l-0.681,1.5c-1.26-0.84-2.74-1.181-3.86-1.181c-1.801,0-2.98,0.681-2.98,1.861
			c0,3.601,7.882,1.72,7.861,6.801c0,2.341-2.061,3.841-5.061,3.841c-2.041,0-4.041-0.88-5.361-2.141l0.72-1.44
			c1.301,1.261,3.081,1.98,4.661,1.98c2.021,0,3.28-0.819,3.28-2.16c0.021-3.681-7.861-1.721-7.861-6.741
			c0-2.2,1.94-3.621,4.841-3.621C595.983,43.765,597.643,44.286,598.803,45.066z"/>
		<path fill="#2F343B" d="M611.343,57.829h-1.561v-2.381c-0.7,1.641-2.101,2.421-4.001,2.44c-2.461,0-3.94-1.561-3.94-4.101v-6.502
			h1.56v6.082c0,1.86,1.101,2.96,2.921,2.96c2.181-0.04,3.461-1.62,3.461-3.86v-5.182h1.561V57.829z"/>
		<path fill="#2F343B" d="M623.363,48.806l-0.86,1.101c-0.8-0.76-1.86-1.221-3.141-1.221c-2.181,0-3.741,1.581-3.741,3.881
			c0,2.301,1.561,3.901,3.741,3.901c1.38,0,2.521-0.48,3.261-1.36l0.9,0.96c-0.94,1.141-2.4,1.82-4.221,1.82
			c-3.062,0-5.222-2.181-5.222-5.321s2.181-5.32,5.222-5.32C621.002,47.226,622.403,47.806,623.363,48.806z"/>
		<path fill="#2F343B" d="M634.082,48.806l-0.86,1.101c-0.8-0.76-1.86-1.221-3.141-1.221c-2.181,0-3.741,1.581-3.741,3.881
			c0,2.301,1.561,3.901,3.741,3.901c1.38,0,2.521-0.48,3.261-1.36l0.9,0.96c-0.94,1.141-2.4,1.82-4.221,1.82
			c-3.062,0-5.222-2.181-5.222-5.321s2.181-5.32,5.222-5.32C631.722,47.226,633.122,47.806,634.082,48.806z"/>
		<path fill="#2F343B" d="M645.662,53.168h-8.603c0.28,2.061,1.781,3.36,3.821,3.36c1.3,0,2.44-0.46,3.261-1.32l0.86,0.921
			c-1.001,1.12-2.48,1.76-4.241,1.76c-3.101,0-5.241-2.181-5.241-5.321s2.16-5.32,5.222-5.32
			C644.142,47.226,645.823,49.587,645.662,53.168z M644.262,51.887c-0.101-2.021-1.461-3.301-3.521-3.301
			c-2.001,0-3.441,1.3-3.682,3.301H644.262z"/>
		<path fill="#2F343B" d="M654.501,48.186l-0.601,1.24c-0.819-0.52-1.88-0.86-2.86-0.86c-1.18,0-2.08,0.421-2.08,1.4
			c0,2.341,5.881,1.141,5.881,4.922c0,2.08-1.84,3-3.86,3c-1.501,0-3.041-0.52-4.041-1.48l0.6-1.18c0.9,0.84,2.261,1.34,3.501,1.34
			s2.24-0.46,2.261-1.5c0.06-2.541-5.842-1.24-5.821-4.981c0-2.021,1.74-2.86,3.661-2.86
			C652.401,47.226,653.621,47.587,654.501,48.186z"/>
		<path fill="#2F343B" d="M663.561,48.186l-0.601,1.24c-0.819-0.52-1.88-0.86-2.86-0.86c-1.18,0-2.08,0.421-2.08,1.4
			c0,2.341,5.881,1.141,5.881,4.922c0,2.08-1.84,3-3.86,3c-1.501,0-3.041-0.52-4.041-1.48l0.6-1.18c0.9,0.84,2.261,1.34,3.501,1.34
			s2.24-0.46,2.261-1.5c0.06-2.541-5.842-1.24-5.821-4.981c0-2.021,1.74-2.86,3.661-2.86
			C661.46,47.226,662.681,47.587,663.561,48.186z"/>
	</g>
	
		<line display="inline" fill="none" stroke="#2B3A42" stroke-linecap="round" stroke-miterlimit="10" x1="587.987" y1="62.53" x2="664.654" y2="62.53"/>
	<g display="inline">
		<path fill="#2F343B" d="M612.178,370.477v9.973h-1.28v-9.973h-3.649v-1.232h8.596v1.232H612.178z"/>
		<path fill="#2F343B" d="M624.404,375.248v5.202h-1.248v-4.866c0-1.488-0.896-2.369-2.385-2.369c-1.793,0.017-2.85,1.28-2.85,3.09
			v4.146h-1.248v-11.877h1.248v5.33c0.576-1.312,1.729-1.921,3.281-1.937C623.22,371.967,624.404,373.215,624.404,375.248z"/>
		<path fill="#2F343B" d="M634.451,376.72h-6.883c0.225,1.648,1.425,2.688,3.058,2.688c1.04,0,1.953-0.368,2.609-1.056l0.688,0.736
			c-0.8,0.896-1.984,1.408-3.393,1.408c-2.481,0-4.194-1.745-4.194-4.258s1.729-4.258,4.178-4.258
			C633.236,371.967,634.579,373.855,634.451,376.72z M633.331,375.696c-0.08-1.617-1.169-2.642-2.817-2.642
			c-1.601,0-2.753,1.041-2.945,2.642H633.331z"/>
		<path fill="#2F343B" d="M644.308,375.248v5.202h-1.248v-4.866c0-1.488-0.896-2.369-2.386-2.369
			c-1.664,0.017-2.688,1.104-2.833,2.705v4.53h-1.248v-8.436h1.248v1.856c0.593-1.28,1.729-1.889,3.266-1.904
			C643.123,371.967,644.308,373.215,644.308,375.248z"/>
	</g>
</g>
<g id="Layer_5">
	<rect x="593.256" y="361.984" fill="#E3D9C8" width="63.487" height="22.88"/>
	<g>
		<path fill="#2F343B" d="M615.972,380.45l-5.971-8.035v8.035h-1.889v-11.205h1.856l6.003,8.052v-8.052h1.856v11.205H615.972z"/>
		<path fill="#2F343B" d="M628.756,376.192c0,2.561-1.809,4.321-4.434,4.321c-2.642,0-4.45-1.761-4.45-4.321
			c0-2.577,1.809-4.322,4.45-4.322C626.948,371.87,628.756,373.615,628.756,376.192z M621.713,376.208
			c0,1.648,1.072,2.77,2.609,2.77c1.521,0,2.593-1.121,2.593-2.77c0-1.633-1.072-2.753-2.593-2.753
			C622.785,373.455,621.713,374.575,621.713,376.208z"/>
		<path fill="#2F343B" d="M638.356,380.45l-2.16-6.307l-2.161,6.307h-1.889l-3.138-8.516h1.889l2.209,6.69l2.145-6.69h1.905
			l2.161,6.69l2.177-6.69h1.873l-3.105,8.516H638.356z"/>
	</g>
	<rect x="566" y="145.917" fill="#E3D9C8" width="41.48" height="51.667"/>
	<rect x="631.667" y="145.917" fill="#E3D9C8" width="55.833" height="51.667"/>
	<rect x="720" y="145.917" fill="#E3D9C8" width="31.333" height="51.667"/>
	<rect x="784" y="145.917" fill="#E3D9C8" width="61" height="51.667"/>
</g>
</svg>
