<?xml version="1.0" encoding="utf-8"?>
<!-- Generator: Adobe Illustrator 17.0.0, SVG Export Plug-In . SVG Version: 6.00 Build 0)  -->
<!DOCTYPE svg PUBLIC "-//W3C//DTD SVG 1.0//EN" "http://www.w3.org/TR/2001/REC-SVG-20010904/DTD/svg10.dtd">
<svg version="1.0" xmlns="http://www.w3.org/2000/svg" xmlns:xlink="http://www.w3.org/1999/xlink" x="0px" y="0px" width="1250px"
	 height="420px" viewBox="0 0 1250 420" enable-background="new 0 0 1250 420" xml:space="preserve">
<g id="Layer_9">
</g>
<g id="Layer_3" display="none">
	<g display="inline">
		<path fill="#2F343B" d="M517.692,173.917v-24.503h6.23v24.503H517.692z"/>
		<path fill="#2F343B" d="M547.162,154.419v19.498h-6.23v-19.498h-7.315v-5.04h20.932v5.04H547.162z"/>
		<path fill="#2F343B" d="M568.897,152.249c0,0.91-0.315,1.646-0.771,2.311l-2.555,3.711h-2.87l1.574-3.711
			c-0.805-0.561-1.154-1.365-1.154-2.275c0-1.715,1.225-2.905,2.905-2.905C567.567,149.379,568.897,150.429,568.897,152.249z"/>
		<path fill="#2F343B" d="M596.268,168.701v5.216h-16.627v-24.503h6.23v19.287H596.268z"/>
		<path fill="#2F343B" d="M622.867,168.701v5.216h-16.626v-24.503h6.23v19.287H622.867z"/>
		<path fill="#2F343B" d="M653.527,169.401l-1.785,4.516h-6.405l10.571-24.503h6.405l10.326,24.503h-6.65l-1.751-4.516H653.527z
			 M658.917,155.609l-3.57,9.065h7.071L658.917,155.609z"/>
		<path fill="#2F343B" d="M698.537,168.701v5.216H681.91v-24.503h6.23v19.287H698.537z"/>
		<path fill="#2F343B" d="M725.137,168.701v5.216H708.51v-24.503h6.23v19.287H725.137z"/>
		<path fill="#2F343B" d="M501.803,207.971c0,5.216-3.255,8.226-8.471,8.226c-3.466,0-6.266-1.436-8.436-3.92l2.87-4.166
			c1.75,1.82,3.71,2.73,5.146,2.73c1.645,0,2.625-1.016,2.625-3.01v-11.412h-8.4v-5.04h14.666V207.971z"/>
		<path fill="#2F343B" d="M535.333,205.626c0,6.475-4.305,10.57-11.166,10.57c-6.896,0-11.306-4.096-11.306-10.57v-14.212h6.23
			v14.212c0,3.324,2.135,5.355,5.11,5.355c2.94,0,4.936-2.031,4.936-5.355v-14.212h6.195V205.626z"/>
		<path fill="#2F343B" d="M565.888,193.864l-2.345,4.865c-2.591-1.505-5.846-2.555-7.841-2.555c-1.61,0-2.695,0.595-2.695,1.785
			c0,4.234,12.951,1.82,12.951,10.676c0,4.9-4.341,7.49-9.801,7.49c-4.096,0-8.296-1.539-11.201-3.92l2.415-4.795
			c2.521,2.205,6.301,3.675,8.855,3.675c1.961,0,3.186-0.735,3.186-2.136c0-4.34-12.951-1.75-12.951-10.431
			c0-4.515,3.886-7.386,9.766-7.386C559.762,191.134,563.367,192.22,565.888,193.864z"/>
		<path fill="#2F343B" d="M587.693,196.419v19.498h-6.231v-19.498h-7.315v-5.04h20.933v5.04H587.693z"/>
		<path fill="#2F343B" d="M640.997,215.917l-4.551-16.942l-4.62,16.942h-6.44l-8.016-24.503h6.65l4.796,18.026l4.69-18.026h6.09
			l4.796,18.026l4.726-18.026h6.371l-8.086,24.503H640.997z"/>
		<path fill="#2F343B" d="M689.508,203.63c0,7.141-5.671,12.566-13.267,12.566c-7.561,0-13.231-5.391-13.231-12.566
			c0-7.141,5.671-12.426,13.231-12.426C683.837,191.204,689.508,196.524,689.508,203.63z M669.381,203.665
			c0,4.131,3.186,7.316,6.931,7.316c3.78,0,6.791-3.186,6.791-7.316s-3.011-7.246-6.791-7.246S669.381,199.534,669.381,203.665z"/>
		<path fill="#2F343B" d="M710.925,209.021h-0.175h-4.726v6.896h-6.23v-24.503h10.956c6.476,0,10.187,3.08,10.187,8.54
			c0,3.746-1.575,6.441-4.445,7.877l5.146,8.086h-7.071L710.925,209.021z M710.75,204.12c2.695,0,4.271-1.365,4.271-3.955
			c0-2.556-1.575-3.851-4.271-3.851h-4.726v7.806H710.75z"/>
		<path fill="#2F343B" d="M741.62,206.29l-3.256,3.605v6.021h-6.23v-24.503h6.23v10.606l9.381-10.606h7.211l-9.101,10.151
			l9.696,14.352h-7.456L741.62,206.29z"/>
		<path fill="#2F343B" d="M489.605,257.917v-24.503h6.23v24.503H489.605z"/>
		<path fill="#2F343B" d="M519.075,238.419v19.498h-6.23v-19.498h-7.315v-5.04h20.932v5.04H519.075z"/>
		<path fill="#2F343B" d="M555.197,235.864l-2.346,4.865c-2.59-1.505-5.846-2.555-7.841-2.555c-1.61,0-2.695,0.595-2.695,1.785
			c0,4.234,12.951,1.82,12.951,10.676c0,4.9-4.34,7.49-9.801,7.49c-4.096,0-8.296-1.539-11.201-3.92l2.415-4.795
			c2.521,2.205,6.301,3.676,8.856,3.676c1.96,0,3.186-0.736,3.186-2.137c0-4.34-12.952-1.75-12.952-10.431
			c0-4.515,3.886-7.386,9.767-7.386C549.071,233.134,552.676,234.22,555.197,235.864z"/>
		<path fill="#2F343B" d="M571.89,238.314v4.866h11.691v4.9H571.89v4.936h13.336v4.9h-19.566v-24.503h19.182v4.9H571.89z"/>
		<path fill="#2F343B" d="M612.876,252.7v5.217h-16.627v-24.503h6.23V252.7H612.876z"/>
		<path fill="#2F343B" d="M629.079,238.314v5.671h10.991v4.9h-10.991v9.031h-6.23v-24.503h18.167v4.9H629.079z"/>
		<path fill="#2F343B" d="M690.995,245.63c0,7.141-5.671,12.566-13.267,12.566c-7.561,0-13.231-5.391-13.231-12.566
			c0-7.141,5.671-12.426,13.231-12.426C685.324,233.204,690.995,238.524,690.995,245.63z M670.868,245.665
			c0,4.131,3.186,7.316,6.931,7.316c3.78,0,6.791-3.186,6.791-7.316s-3.011-7.246-6.791-7.246S670.868,241.534,670.868,245.665z"/>
		<path fill="#2F343B" d="M723.335,247.626c0,6.475-4.306,10.57-11.167,10.57c-6.896,0-11.306-4.096-11.306-10.57v-14.212h6.23
			v14.212c0,3.324,2.136,5.355,5.11,5.355c2.94,0,4.936-2.031,4.936-5.355v-14.212h6.196V247.626z"/>
		<path fill="#2F343B" d="M746.154,238.419v19.498h-6.23v-19.498h-7.315v-5.04h20.932v5.04H746.154z"/>
	</g>
	<g display="inline">
		<path fill="#2F343B" d="M580.393,45.365v12.463h-1.6V45.365h-4.562v-1.54h10.742v1.54H580.393z"/>
		<path fill="#2F343B" d="M595.674,51.327v6.501h-1.561v-6.081c0-1.861-1.12-2.961-2.98-2.961c-2.24,0.02-3.561,1.601-3.561,3.861
			v5.181h-1.561V42.985h1.561v6.661c0.72-1.641,2.16-2.4,4.101-2.421C594.194,47.226,595.674,48.786,595.674,51.327z"/>
		<path fill="#2F343B" d="M608.234,53.167h-8.603c0.281,2.061,1.781,3.361,3.821,3.361c1.3,0,2.44-0.461,3.261-1.32l0.86,0.92
			c-1.001,1.12-2.48,1.76-4.241,1.76c-3.101,0-5.24-2.18-5.24-5.32s2.16-5.321,5.221-5.321
			C606.713,47.226,608.394,49.587,608.234,53.167z M606.833,51.887c-0.101-2.021-1.46-3.301-3.521-3.301c-2,0-3.441,1.3-3.682,3.301
			H606.833z"/>
		<path fill="#2F343B" d="M618.211,45.365v4.921h6.542v1.541h-6.542v6.001h-1.6V43.825h8.902v1.54H618.211z"/>
		<path fill="#2F343B" d="M636.793,57.828h-1.561v-2.38c-0.7,1.64-2.101,2.42-4.001,2.439c-2.46,0-3.94-1.561-3.94-4.101v-6.501
			h1.561v6.081c0,1.86,1.1,2.96,2.92,2.96c2.181-0.039,3.461-1.619,3.461-3.86v-5.181h1.561V57.828z"/>
		<path fill="#2F343B" d="M646.032,57.108c-0.74,0.5-1.54,0.779-2.381,0.8c-1.54,0-2.681-0.921-2.681-3.001v-6.021h-1.52v-1.26h1.52
			v-2.781h1.541v2.781l3.34-0.02v1.279h-3.34v5.742c0,1.279,0.5,1.76,1.4,1.76c0.539,0,1.1-0.18,1.68-0.54L646.032,57.108z"/>
		<path fill="#2F343B" d="M657.533,57.828h-1.561v-2.38c-0.701,1.64-2.102,2.42-4.002,2.439c-2.46,0-3.939-1.561-3.939-4.101v-6.501
			h1.56v6.081c0,1.86,1.101,2.96,2.921,2.96c2.18-0.039,3.461-1.619,3.461-3.86v-5.181h1.561V57.828z"/>
		<path fill="#2F343B" d="M662.891,49.626c0.701-1.54,2-2.38,3.781-2.4v1.58c-2.221-0.039-3.602,1.341-3.781,3.422v5.601h-1.561
			V47.286h1.561V49.626z"/>
		<path fill="#2F343B" d="M677.853,53.167h-8.603c0.281,2.061,1.781,3.361,3.821,3.361c1.3,0,2.44-0.461,3.261-1.32l0.86,0.92
			c-1.001,1.12-2.48,1.76-4.241,1.76c-3.101,0-5.24-2.18-5.24-5.32s2.16-5.321,5.221-5.321
			C676.332,47.226,678.013,49.587,677.853,53.167z M676.452,51.887c-0.101-2.021-1.46-3.301-3.521-3.301c-2,0-3.441,1.3-3.682,3.301
			H676.452z"/>
	</g>
	
		<line display="inline" fill="none" stroke="#2B3A42" stroke-width="1.1647" stroke-linecap="round" stroke-miterlimit="10" x1="574.32" y1="62.53" x2="678.32" y2="62.53"/>
	<g display="inline">
		<path fill="#2F343B" d="M612.179,370.478v9.973h-1.28v-9.973h-3.649v-1.232h8.595v1.232H612.179z"/>
		<path fill="#2F343B" d="M624.405,375.248v5.202h-1.248v-4.866c0-1.488-0.896-2.369-2.385-2.369c-1.793,0.017-2.85,1.28-2.85,3.09
			v4.146h-1.248v-11.877h1.248v5.33c0.576-1.312,1.729-1.921,3.281-1.937C623.221,371.967,624.405,373.215,624.405,375.248z"/>
		<path fill="#2F343B" d="M634.452,376.721h-6.883c0.224,1.648,1.425,2.688,3.058,2.688c1.04,0,1.953-0.368,2.609-1.056l0.688,0.736
			c-0.801,0.896-1.984,1.408-3.393,1.408c-2.482,0-4.194-1.745-4.194-4.258s1.729-4.258,4.178-4.258
			C633.237,371.967,634.58,373.855,634.452,376.721z M633.332,375.696c-0.08-1.617-1.169-2.642-2.817-2.642
			c-1.601,0-2.753,1.041-2.945,2.642H633.332z"/>
		<path fill="#2F343B" d="M644.309,375.248v5.202h-1.248v-4.866c0-1.488-0.896-2.369-2.386-2.369
			c-1.665,0.017-2.688,1.104-2.833,2.705v4.53h-1.248v-8.436h1.248v1.856c0.592-1.28,1.729-1.889,3.266-1.904
			C643.124,371.967,644.309,373.215,644.309,375.248z"/>
	</g>
</g>
<g id="Layer_5">
	<rect x="593.257" y="361.984" fill="#E3D9C8" width="63.487" height="22.88"/>
	<g>
		<path fill="#2F343B" d="M615.973,380.45l-5.971-8.035v8.035h-1.889v-11.205h1.856l6.003,8.052v-8.052h1.856v11.205H615.973z"/>
		<path fill="#2F343B" d="M628.756,376.192c0,2.561-1.809,4.321-4.434,4.321c-2.641,0-4.449-1.761-4.449-4.321
			c0-2.577,1.809-4.322,4.449-4.322C626.948,371.87,628.756,373.615,628.756,376.192z M621.713,376.208
			c0,1.648,1.073,2.77,2.609,2.77c1.521,0,2.594-1.121,2.594-2.77c0-1.633-1.072-2.753-2.594-2.753
			C622.786,373.455,621.713,374.575,621.713,376.208z"/>
		<path fill="#2F343B" d="M638.357,380.45l-2.161-6.307l-2.16,6.307h-1.889l-3.138-8.516h1.889l2.209,6.69l2.145-6.69h1.905
			l2.16,6.69l2.178-6.69h1.873l-3.105,8.516H638.357z"/>
	</g>
	<rect x="530" y="144.333" fill="#E3D9C8" width="30.333" height="37.333"/>
	<rect x="633" y="144.333" fill="#E3D9C8" width="109.486" height="33.667"/>
	<rect x="468.667" y="184" fill="#E3D9C8" width="137" height="39.333"/>
	<rect x="530" y="225.667" fill="#E3D9C8" width="122" height="44"/>
</g>
</svg>
