<?xml version="1.0" encoding="utf-8"?>
<!-- Generator: Adobe Illustrator 17.0.0, SVG Export Plug-In . SVG Version: 6.00 Build 0)  -->
<!DOCTYPE svg PUBLIC "-//W3C//DTD SVG 1.0//EN" "http://www.w3.org/TR/2001/REC-SVG-20010904/DTD/svg10.dtd">
<svg version="1.0" xmlns="http://www.w3.org/2000/svg" xmlns:xlink="http://www.w3.org/1999/xlink" x="0px" y="0px" width="1250px"
	 height="420px" viewBox="0 0 1250 420" enable-background="new 0 0 1250 420" xml:space="preserve">
<g id="Layer_9">
</g>
<g id="Layer_3" display="none">
	<g display="inline">
		<path fill="#2F343B" d="M429.999,153.917v-24.502h6.23v24.502H429.999z"/>
		<path fill="#2F343B" d="M452.82,132.25c0,0.91-0.315,1.646-0.771,2.311l-2.555,3.71h-2.87l1.575-3.71
			c-0.806-0.561-1.155-1.365-1.155-2.275c0-1.716,1.225-2.905,2.905-2.905C451.49,129.38,452.82,130.43,452.82,132.25z"/>
		<path fill="#2F343B" d="M480.191,148.702v5.215h-16.627v-24.502h6.231v19.287H480.191z"/>
		<path fill="#2F343B" d="M506.791,148.702v5.215h-16.627v-24.502h6.23v19.287H506.791z"/>
		<path fill="#2F343B" d="M543.225,134.42v19.497h-6.23V134.42h-7.315v-5.04h20.932v5.04H543.225z"/>
		<path fill="#2F343B" d="M571.4,147.022h-0.175h-4.726v6.896h-6.23v-24.502h10.956c6.476,0,10.186,3.08,10.186,8.54
			c0,3.746-1.575,6.441-4.445,7.876l5.146,8.086h-7.07L571.4,147.022z M571.225,142.121c2.695,0,4.271-1.365,4.271-3.955
			c0-2.556-1.575-3.851-4.271-3.851h-4.726v7.806H571.225z"/>
		<path fill="#2F343B" d="M605,153.917h-6.195v-7.735l-9.066-16.767h6.23l5.916,10.676l5.775-10.676h6.23L605,146.007V153.917z"/>
		<path fill="#2F343B" d="M649.624,134.42v19.497h-6.23V134.42h-7.315v-5.04h20.932v5.04H649.624z"/>
		<path fill="#2F343B" d="M690.296,141.631c0,7.141-5.671,12.566-13.267,12.566c-7.561,0-13.231-5.391-13.231-12.566
			c0-7.141,5.671-12.426,13.231-12.426C684.625,129.205,690.296,134.526,690.296,141.631z M670.169,141.666
			c0,4.13,3.186,7.315,6.931,7.315c3.78,0,6.791-3.186,6.791-7.315c0-4.131-3.011-7.246-6.791-7.246
			S670.169,137.535,670.169,141.666z"/>
		<path fill="#2F343B" d="M737.369,141.456v9.556c-2.625,1.855-6.755,3.186-10.186,3.186c-7.456,0-13.092-5.391-13.092-12.531
			c0-7.105,5.775-12.461,13.512-12.461c3.641,0,7.491,1.399,10.011,3.64l-3.5,4.235c-1.785-1.645-4.271-2.66-6.546-2.66
			c-4.025,0-7.105,3.15-7.105,7.246c0,4.165,3.115,7.315,7.176,7.315c1.26,0,2.87-0.455,4.34-1.189v-6.336H737.369z"/>
		<path fill="#2F343B" d="M754.938,134.316v4.865h11.691v4.9h-11.691v4.936h13.337v4.9h-19.567v-24.502h19.182v4.9H754.938z"/>
		<path fill="#2F343B" d="M790.638,134.42v19.497h-6.23V134.42h-7.315v-5.04h20.932v5.04H790.638z"/>
		<path fill="#2F343B" d="M458.823,191.402l-1.785,4.516h-6.405l10.57-24.502h6.406l10.326,24.502h-6.651l-1.75-4.516H458.823z
			 M464.213,177.611l-3.57,9.065h7.07L464.213,177.611z"/>
		<path fill="#2F343B" d="M512.863,171.415c7.7,0,13.021,4.97,13.021,12.251c0,7.246-5.391,12.251-13.267,12.251h-10.291v-24.502
			H512.863z M508.557,190.947h4.445c3.815,0,6.546-2.939,6.546-7.245c0-4.341-2.87-7.316-6.826-7.316h-4.165V190.947z"/>
		<path fill="#2F343B" d="M542.402,176.316v4.865h11.691v4.9h-11.691v4.936h13.336v4.9h-19.566v-24.502h19.182v4.9H542.402z"/>
		<path fill="#2F343B" d="M588.114,175.335l-3.605,4.271c-1.61-1.96-3.991-3.186-6.161-3.186c-3.886,0-6.825,3.081-6.825,7.106
			c0,4.095,2.939,7.21,6.825,7.21c2.065,0,4.445-1.12,6.161-2.87l3.64,3.851c-2.625,2.695-6.511,4.48-10.115,4.48
			c-7.387,0-12.882-5.426-12.882-12.602c0-7.07,5.636-12.391,13.092-12.391C581.882,171.205,585.662,172.815,588.114,175.335z"/>
		<path fill="#2F343B" d="M604.211,176.316v4.865h11.691v4.9h-11.691v4.936h13.336v4.9h-19.566v-24.502h19.182v4.9H604.211z"/>
		<path fill="#2F343B" d="M645.688,195.917l-11.271-15.086v15.086h-5.846v-24.502h5.496l11.306,15.121v-15.121h5.811v24.502H645.688
			z"/>
		<path fill="#2F343B" d="M674.421,176.42v19.497h-6.23V176.42h-7.315v-5.04h20.932v5.04H674.421z"/>
		<path fill="#2F343B" d="M720.866,187.972c0,5.215-3.255,8.226-8.471,8.226c-3.465,0-6.266-1.436-8.436-3.921l2.87-4.165
			c1.75,1.82,3.71,2.73,5.146,2.73c1.646,0,2.625-1.016,2.625-3.011V176.42h-8.4v-5.04h14.666V187.972z"/>
		<path fill="#2F343B" d="M757.233,183.631c0,7.141-5.671,12.566-13.267,12.566c-7.561,0-13.231-5.391-13.231-12.566
			c0-7.141,5.671-12.426,13.231-12.426C751.562,171.205,757.233,176.526,757.233,183.631z M737.106,183.666
			c0,4.13,3.186,7.315,6.931,7.315c3.78,0,6.791-3.186,6.791-7.315c0-4.131-3.011-7.246-6.791-7.246
			S737.106,179.535,737.106,183.666z"/>
		<path fill="#2F343B" d="M779.106,171.415c5.496,0,8.996,2.38,8.996,6.125c0,2.591-1.61,4.655-4.2,5.391
			c3.08,0.596,5.04,3.011,5.04,6.196c0,4.165-3.64,6.79-9.416,6.79H767.52v-24.502H779.106z M773.715,181.216h5.041
			c1.82,0,2.976-0.98,2.976-2.556s-1.155-2.485-2.976-2.485h-5.041V181.216z M773.715,191.122h5.041
			c2.311,0,3.745-1.016,3.745-2.766c0-1.646-1.435-2.66-3.745-2.66h-5.041V191.122z"/>
		<path fill="#2F343B" d="M521.771,237.917l-4.55-16.941l-4.621,16.941h-6.44l-8.016-24.502h6.65l4.796,18.026l4.69-18.026h6.091
			l4.795,18.026l4.726-18.026h6.371l-8.086,24.502H521.771z"/>
		<path fill="#2F343B" d="M545.464,237.917v-24.502h6.23v24.502H545.464z"/>
		<path fill="#2F343B" d="M574.935,218.42v19.497h-6.23V218.42h-7.315v-5.04h20.932v5.04H574.935z"/>
		<path fill="#2F343B" d="M608.361,237.917v-9.521h-10.151v9.521h-6.23v-24.502h6.23v10.081h10.151v-10.081h6.23v24.502H608.361z"/>
		<path fill="#2F343B" d="M652.948,218.42v19.497h-6.23V218.42h-7.315v-5.04h20.932v5.04H652.948z"/>
		<path fill="#2F343B" d="M686.374,237.917v-9.521h-10.151v9.521h-6.23v-24.502h6.23v10.081h10.151v-10.081h6.23v24.502H686.374z"/>
		<path fill="#2F343B" d="M704.502,237.917v-24.502h6.23v24.502H704.502z"/>
		<path fill="#2F343B" d="M741.709,215.865l-2.346,4.865c-2.59-1.505-5.846-2.556-7.841-2.556c-1.609,0-2.695,0.596-2.695,1.785
			c0,4.235,12.952,1.82,12.952,10.677c0,4.9-4.341,7.49-9.802,7.49c-4.095,0-8.296-1.54-11.201-3.92l2.416-4.796
			c2.52,2.205,6.3,3.676,8.855,3.676c1.96,0,3.186-0.735,3.186-2.136c0-4.341-12.951-1.75-12.951-10.431
			c0-4.516,3.885-7.386,9.766-7.386C735.583,213.135,739.189,214.22,741.709,215.865z"/>
		<path fill="#2F343B" d="M387.598,260.315v4.866h11.691v4.9h-11.691v4.936h13.336v4.9h-19.566v-24.503h19.182v4.9H387.598z"/>
		<path fill="#2F343B" d="M433.31,259.335l-3.605,4.271c-1.61-1.96-3.991-3.186-6.161-3.186c-3.886,0-6.825,3.08-6.825,7.105
			c0,4.096,2.939,7.211,6.825,7.211c2.065,0,4.445-1.12,6.161-2.87l3.64,3.851c-2.625,2.695-6.511,4.48-10.115,4.48
			c-7.387,0-12.882-5.426-12.882-12.602c0-7.07,5.636-12.392,13.092-12.392C427.078,255.204,430.859,256.815,433.31,259.335z"/>
		<path fill="#2F343B" d="M467.645,267.631c0,7.141-5.671,12.566-13.267,12.566c-7.561,0-13.231-5.391-13.231-12.566
			c0-7.141,5.671-12.427,13.231-12.427C461.974,255.204,467.645,260.526,467.645,267.631z M447.518,267.666
			c0,4.13,3.185,7.315,6.931,7.315c3.78,0,6.79-3.186,6.79-7.315c0-4.131-3.01-7.246-6.79-7.246S447.518,263.535,447.518,267.666z"
			/>
		<path fill="#2F343B" d="M495.048,279.917l-11.271-15.087v15.087h-5.846v-24.503h5.495l11.307,15.122v-15.122h5.811v24.503H495.048
			z"/>
		<path fill="#2F343B" d="M537.329,267.631c0,7.141-5.671,12.566-13.267,12.566c-7.561,0-13.231-5.391-13.231-12.566
			c0-7.141,5.671-12.427,13.231-12.427C531.658,255.204,537.329,260.526,537.329,267.631z M517.202,267.666
			c0,4.13,3.185,7.315,6.931,7.315c3.78,0,6.79-3.186,6.79-7.315c0-4.131-3.01-7.246-6.79-7.246S517.202,263.535,517.202,267.666z"
			/>
		<path fill="#2F343B" d="M569.038,279.917l-0.035-15.927l-5.88,13.477h-4.061l-5.881-13.477v15.927h-5.565V255.38h6.825
			l6.651,14.596l6.65-14.596h6.791v24.537H569.038z"/>
		<path fill="#2F343B" d="M586.466,279.917v-24.503h6.23v24.503H586.466z"/>
		<path fill="#2F343B" d="M625.948,259.335l-3.605,4.271c-1.61-1.96-3.991-3.186-6.161-3.186c-3.886,0-6.825,3.08-6.825,7.105
			c0,4.096,2.939,7.211,6.825,7.211c2.065,0,4.445-1.12,6.161-2.87l3.641,3.851c-2.626,2.695-6.512,4.48-10.116,4.48
			c-7.387,0-12.882-5.426-12.882-12.602c0-7.07,5.636-12.392,13.092-12.392C619.717,255.204,623.498,256.815,625.948,259.335z"/>
		<path fill="#2F343B" d="M654.893,257.865l-2.346,4.866c-2.59-1.506-5.846-2.556-7.841-2.556c-1.609,0-2.695,0.595-2.695,1.785
			c0,4.235,12.952,1.82,12.952,10.677c0,4.9-4.341,7.49-9.802,7.49c-4.095,0-8.296-1.54-11.201-3.92l2.416-4.796
			c2.52,2.205,6.3,3.676,8.855,3.676c1.96,0,3.186-0.735,3.186-2.136c0-4.341-12.951-1.75-12.951-10.431
			c0-4.516,3.885-7.386,9.766-7.386C648.767,255.135,652.372,256.22,654.893,257.865z"/>
		<path fill="#2F343B" d="M691.011,255.414c7.701,0,13.021,4.971,13.021,12.252c0,7.245-5.391,12.251-13.267,12.251h-10.291v-24.503
			H691.011z M686.705,274.947h4.445c3.815,0,6.546-2.94,6.546-7.245c0-4.341-2.87-7.316-6.825-7.316h-4.166V274.947z"/>
		<path fill="#2F343B" d="M720.551,260.315v4.866h11.691v4.9h-11.691v4.936h13.337v4.9h-19.567v-24.503h19.182v4.9H720.551z"/>
		<path fill="#2F343B" d="M766.577,267.456v9.556c-2.625,1.855-6.756,3.186-10.186,3.186c-7.456,0-13.092-5.391-13.092-12.531
			c0-7.106,5.775-12.462,13.512-12.462c3.641,0,7.49,1.4,10.011,3.641l-3.5,4.235c-1.785-1.645-4.271-2.66-6.546-2.66
			c-4.025,0-7.105,3.15-7.105,7.246c0,4.165,3.115,7.315,7.176,7.315c1.26,0,2.87-0.455,4.34-1.19v-6.335H766.577z"/>
		<path fill="#2F343B" d="M789.046,273.022h-0.175h-4.726v6.896h-6.23v-24.503h10.956c6.476,0,10.187,3.081,10.187,8.541
			c0,3.746-1.575,6.441-4.445,7.876l5.146,8.086h-7.071L789.046,273.022z M788.871,268.121c2.695,0,4.271-1.365,4.271-3.956
			c0-2.555-1.575-3.851-4.271-3.851h-4.726v7.807H788.871z"/>
		<path fill="#2F343B" d="M816.486,260.315v4.866h11.691v4.9h-11.691v4.936h13.337v4.9h-19.567v-24.503h19.182v4.9H816.486z"/>
		<path fill="#2F343B" d="M847.075,260.315v4.866h11.691v4.9h-11.691v4.936h13.337v4.9h-19.567v-24.503h19.182v4.9H847.075z"/>
	</g>
	<g display="inline">
		<path fill="#2F343B" d="M612.178,391.479v9.972h-1.281v-9.972h-3.648v-1.232h8.595v1.232H612.178z"/>
		<path fill="#2F343B" d="M624.403,396.248v5.202h-1.248v-4.866c0-1.488-0.896-2.369-2.385-2.369c-1.793,0.017-2.85,1.281-2.85,3.09
			v4.146h-1.248v-11.877h1.248v5.33c0.576-1.312,1.729-1.921,3.281-1.937C623.219,392.967,624.403,394.215,624.403,396.248z"/>
		<path fill="#2F343B" d="M634.451,397.721h-6.883c0.224,1.648,1.424,2.689,3.057,2.689c1.041,0,1.953-0.369,2.609-1.057
			l0.688,0.736c-0.8,0.896-1.984,1.408-3.393,1.408c-2.481,0-4.193-1.744-4.193-4.258c0-2.513,1.729-4.258,4.178-4.258
			C633.235,392.967,634.578,394.856,634.451,397.721z M633.33,396.697c-0.08-1.616-1.168-2.642-2.816-2.642
			c-1.602,0-2.754,1.041-2.945,2.642H633.33z"/>
		<path fill="#2F343B" d="M644.307,396.248v5.202h-1.248v-4.866c0-1.488-0.896-2.369-2.385-2.369
			c-1.665,0.017-2.689,1.105-2.834,2.705v4.53h-1.248v-8.436h1.248v1.856c0.593-1.28,1.729-1.889,3.266-1.904
			C643.123,392.967,644.307,394.215,644.307,396.248z"/>
	</g>
	<g display="inline">
		<path fill="#2F343B" d="M605.621,15.826l-0.959,1.221c-1.08-1.101-2.602-1.761-4.142-1.761c-3.161,0-5.701,2.44-5.701,5.521
			c0,3.061,2.54,5.521,5.701,5.521c1.54,0,3.041-0.64,4.142-1.68l0.979,1.1c-1.38,1.301-3.261,2.161-5.201,2.161
			c-4.04,0-7.241-3.141-7.241-7.102c0-3.921,3.24-7.021,7.301-7.021C602.421,13.786,604.281,14.567,605.621,15.826z"/>
		<path fill="#2F343B" d="M614.841,26.209c-0.841,1.14-2.181,1.7-3.86,1.7c-2.182,0-3.582-1.4-3.582-3.221
			c0-1.841,1.461-3.001,3.941-3.021h3.461v-0.62c0-1.541-0.961-2.461-2.82-2.461c-1.16,0-2.24,0.44-3.341,1.2l-0.66-1.141
			c1.36-0.899,2.501-1.42,4.301-1.42c2.601,0,4.041,1.38,4.061,3.641l0.021,6.962h-1.521V26.209z M614.821,24.189v-1.261h-3.28
			c-1.761,0-2.681,0.54-2.681,1.7s0.94,1.921,2.42,1.921C613.061,26.549,614.42,25.649,614.821,24.189z"/>
		<path fill="#2F343B" d="M619.94,27.829V12.986h1.561v14.844H619.94z"/>
		<path fill="#2F343B" d="M625.5,27.829V12.986h1.56v14.844H625.5z"/>
		<path fill="#2F343B" d="M632.74,14.266c0,0.62-0.44,1.08-1.021,1.08s-1.021-0.46-1.021-1.08s0.44-1.08,1.021-1.08
			S632.74,13.646,632.74,14.266z M630.959,27.829V17.286h1.541v10.543H630.959z"/>
		<path fill="#2F343B" d="M645.942,21.327v6.502h-1.561v-6.082c0-1.86-1.12-2.96-2.98-2.96c-2.08,0.02-3.361,1.38-3.541,3.381v5.661
			h-1.561V17.286h1.561v2.321c0.74-1.601,2.16-2.36,4.081-2.381C644.461,17.227,645.942,18.787,645.942,21.327z"/>
		<path fill="#2F343B" d="M658.602,26.729c0,3.081-2.102,5.021-5.302,5.021c-1.66-0.021-3.04-0.561-4.321-1.521l0.721-1.2
			c1.04,0.86,2.141,1.32,3.541,1.34c2.3,0,3.801-1.4,3.801-3.601v-1.601c-0.74,1.4-2.102,2.201-3.881,2.201
			c-2.841,0-4.801-2.101-4.801-5.102c0-2.94,1.939-5.021,4.76-5.041c1.801,0,3.161,0.8,3.922,2.2v-2.141h1.561V26.729z
			 M657.041,22.328c0-2.201-1.501-3.741-3.602-3.741c-2.12,0-3.601,1.561-3.621,3.741c0.021,2.16,1.501,3.721,3.621,3.721
			C655.54,26.049,657.041,24.489,657.041,22.328z"/>
	</g>
	
		<line display="inline" fill="none" stroke="#2B3A42" stroke-width="0.8156" stroke-linecap="round" stroke-miterlimit="10" x1="595.82" y1="32.53" x2="646.82" y2="32.53"/>
</g>
<g id="Layer_5">
	<rect x="557" y="167.863" fill="#E3D9C8" width="129" height="34.667"/>
	<g>
		<path fill="#2F343B" d="M587.674,175.537l-2.346,4.865c-2.59-1.504-5.846-2.555-7.841-2.555c-1.61,0-2.695,0.596-2.695,1.785
			c0,4.235,12.951,1.82,12.951,10.676c0,4.9-4.341,7.491-9.801,7.491c-4.096,0-8.296-1.54-11.201-3.921l2.415-4.795
			c2.521,2.205,6.301,3.676,8.855,3.676c1.961,0,3.186-0.735,3.186-2.136c0-4.341-12.951-1.75-12.951-10.431
			c0-4.516,3.886-7.387,9.766-7.387C581.547,172.807,585.153,173.893,587.674,175.537z"/>
		<path fill="#2F343B" d="M598.137,197.59v-24.502h6.23v24.502H598.137z"/>
		<path fill="#2F343B" d="M637.934,185.129v9.556c-2.626,1.854-6.756,3.186-10.187,3.186c-7.456,0-13.091-5.391-13.091-12.532
			c0-7.105,5.775-12.461,13.511-12.461c3.64,0,7.491,1.4,10.011,3.641l-3.5,4.235c-1.785-1.646-4.271-2.66-6.546-2.66
			c-4.025,0-7.105,3.15-7.105,7.245c0,4.166,3.115,7.316,7.176,7.316c1.26,0,2.87-0.455,4.341-1.189v-6.336H637.934z"/>
		<path fill="#2F343B" d="M666.387,197.59l-11.271-15.086v15.086h-5.846v-24.502h5.495l11.307,15.121v-15.121h5.811v24.502H666.387z
			"/>
	</g>
	<rect x="593.256" y="382.984" fill="#E3D9C8" width="63.487" height="22.88"/>
	<g>
		<path fill="#2F343B" d="M615.971,401.45L610,393.415v8.035h-1.889v-11.204h1.857l6.002,8.051v-8.051h1.857v11.204H615.971z"/>
		<path fill="#2F343B" d="M628.755,397.193c0,2.562-1.809,4.321-4.434,4.321c-2.642,0-4.45-1.76-4.45-4.321
			c0-2.577,1.809-4.321,4.45-4.321C626.947,392.871,628.755,394.616,628.755,397.193z M621.712,397.209
			c0,1.648,1.073,2.769,2.609,2.769c1.521,0,2.593-1.12,2.593-2.769c0-1.633-1.072-2.754-2.593-2.754
			C622.785,394.455,621.712,395.576,621.712,397.209z"/>
		<path fill="#2F343B" d="M638.356,401.45l-2.161-6.307l-2.161,6.307h-1.889l-3.137-8.516h1.889l2.209,6.69l2.145-6.69h1.904
			l2.161,6.69l2.177-6.69h1.873l-3.105,8.516H638.356z"/>
	</g>
</g>
</svg>
