<?xml version="1.0" encoding="utf-8"?>
<!-- Generator: Adobe Illustrator 17.0.0, SVG Export Plug-In . SVG Version: 6.00 Build 0)  -->
<!DOCTYPE svg PUBLIC "-//W3C//DTD SVG 1.0//EN" "http://www.w3.org/TR/2001/REC-SVG-20010904/DTD/svg10.dtd">
<svg version="1.0" xmlns="http://www.w3.org/2000/svg" xmlns:xlink="http://www.w3.org/1999/xlink" x="0px" y="0px" width="1250px"
	 height="420px" viewBox="0 0 1250 420" enable-background="new 0 0 1250 420" xml:space="preserve">
<g id="Layer_9">
</g>
<g id="Layer_3" display="none">
	<g display="inline">
		<path fill="#2F343B" d="M277.617,174.315v4.865h11.691v4.9h-11.691v4.936h13.337v4.9h-19.567v-24.502h19.183v4.9H277.617z"/>
		<path fill="#2F343B" d="M309.013,193.917l-9.521-24.502h6.65l6.266,18.026l6.266-18.026h6.406l-9.627,24.502H309.013z"/>
		<path fill="#2F343B" d="M340.723,174.315v4.865h11.691v4.9h-11.691v4.936h13.336v4.9h-19.566v-24.502h19.182v4.9H340.723z"/>
		<path fill="#2F343B" d="M376.213,187.021h-0.176h-4.725v6.896h-6.23v-24.502h10.955c6.477,0,10.187,3.08,10.187,8.54
			c0,3.746-1.575,6.441-4.445,7.876l5.146,8.086h-7.07L376.213,187.021z M376.037,182.121c2.695,0,4.271-1.365,4.271-3.955
			c0-2.556-1.576-3.851-4.271-3.851h-4.725v7.806H376.037z"/>
		<path fill="#2F343B" d="M409.813,193.917h-6.195v-7.735l-9.065-16.767h6.23l5.915,10.676l5.776-10.676h6.23l-8.892,16.592V193.917
			z"/>
		<path fill="#2F343B" d="M439.319,174.42v19.497h-6.23V174.42h-7.316v-5.04h20.932v5.04H439.319z"/>
		<path fill="#2F343B" d="M472.743,193.917v-9.521h-10.151v9.521h-6.23v-24.502h6.23v10.081h10.151v-10.081h6.23v24.502H472.743z"/>
		<path fill="#2F343B" d="M490.871,193.917v-24.502h6.23v24.502H490.871z"/>
		<path fill="#2F343B" d="M526.117,193.917l-11.271-15.086v15.086h-5.846v-24.502h5.495l11.307,15.121v-15.121h5.811v24.502H526.117
			z"/>
		<path fill="#2F343B" d="M565.178,181.456v9.556c-2.625,1.855-6.756,3.186-10.186,3.186c-7.456,0-13.092-5.391-13.092-12.531
			c0-7.105,5.775-12.461,13.512-12.461c3.641,0,7.49,1.399,10.012,3.64l-3.501,4.235c-1.785-1.645-4.271-2.66-6.546-2.66
			c-4.025,0-7.105,3.15-7.105,7.246c0,4.165,3.115,7.315,7.176,7.315c1.26,0,2.87-0.455,4.34-1.189v-6.336H565.178z"/>
		<path fill="#2F343B" d="M591.635,193.917v-24.502h6.23v24.502H591.635z"/>
		<path fill="#2F343B" d="M626.882,193.917l-11.271-15.086v15.086h-5.846v-24.502h5.495l11.306,15.121v-15.121h5.811v24.502H626.882
			z"/>
		<path fill="#2F343B" d="M680.817,193.917l-0.033-15.927l-5.881,13.477h-4.061l-5.881-13.477v15.927h-5.566V169.38h6.826
			l6.65,14.597l6.65-14.597h6.791v24.537H680.817z"/>
		<path fill="#2F343B" d="M723.133,181.63c0,7.141-5.672,12.566-13.268,12.566c-7.561,0-13.23-5.391-13.23-12.566
			c0-7.141,5.67-12.426,13.23-12.426C717.461,169.205,723.133,174.525,723.133,181.63z M703.006,181.666
			c0,4.13,3.186,7.315,6.93,7.315c3.781,0,6.791-3.186,6.791-7.315c0-4.131-3.01-7.246-6.791-7.246
			C706.156,174.42,703.006,177.535,703.006,181.666z"/>
		<path fill="#2F343B" d="M743.955,169.415c7.701,0,13.021,4.97,13.021,12.251c0,7.246-5.391,12.251-13.268,12.251h-10.291v-24.502
			H743.955z M739.649,188.946h4.445c3.816,0,6.547-2.939,6.547-7.245c0-4.341-2.871-7.316-6.826-7.316h-4.166V188.946z"/>
		<path fill="#2F343B" d="M773.494,174.315v4.865h11.691v4.9h-11.691v4.936h13.338v4.9h-19.568v-24.502h19.182v4.9H773.494z"/>
		<path fill="#2F343B" d="M808.985,187.021h-0.174h-4.727v6.896h-6.23v-24.502h10.957c6.475,0,10.186,3.08,10.186,8.54
			c0,3.746-1.574,6.441-4.445,7.876l5.146,8.086h-7.072L808.985,187.021z M808.811,182.121c2.695,0,4.27-1.365,4.27-3.955
			c0-2.556-1.574-3.851-4.27-3.851h-4.727v7.806H808.811z"/>
		<path fill="#2F343B" d="M835.76,189.401l-1.785,4.516h-6.406l10.572-24.502h6.404l10.326,24.502h-6.65l-1.75-4.516H835.76z
			 M841.151,175.61l-3.57,9.065h7.07L841.151,175.61z"/>
		<path fill="#2F343B" d="M872.86,174.42v19.497h-6.23V174.42h-7.316v-5.04h20.932v5.04H872.86z"/>
		<path fill="#2F343B" d="M889.903,193.917v-24.502h6.23v24.502H889.903z"/>
		<path fill="#2F343B" d="M932.92,181.63c0,7.141-5.67,12.566-13.266,12.566c-7.561,0-13.232-5.391-13.232-12.566
			c0-7.141,5.672-12.426,13.232-12.426C927.25,169.205,932.92,174.525,932.92,181.63z M912.793,181.666
			c0,4.13,3.186,7.315,6.932,7.315c3.779,0,6.791-3.186,6.791-7.315c0-4.131-3.012-7.246-6.791-7.246
			C915.944,174.42,912.793,177.535,912.793,181.666z"/>
		<path fill="#2F343B" d="M960.324,193.917l-11.271-15.086v15.086h-5.846v-24.502h5.496l11.307,15.121v-15.121h5.811v24.502H960.324
			z"/>
		<path fill="#2F343B" d="M982.408,191.256c0,0.875-0.314,1.61-0.77,2.311l-2.557,3.71h-2.869l1.574-3.745
			c-0.805-0.525-1.154-1.365-1.154-2.275c0-1.68,1.225-2.87,2.904-2.87C981.078,188.386,982.408,189.401,982.408,191.256z"/>
		<path fill="#2F343B" d="M332.656,216.315v4.865h11.69v4.9h-11.69v4.936h13.336v4.9h-19.567v-24.502h19.183v4.9H332.656z"/>
		<path fill="#2F343B" d="M380.012,235.917h-7.455l-5.285-7.806l-5.286,7.806h-7.246l8.751-12.531l-8.191-11.971h7.246l4.727,7.141
			l4.725-7.141h7.316l-8.086,11.69L380.012,235.917z"/>
		<path fill="#2F343B" d="M410.672,215.335l-3.605,4.271c-1.609-1.96-3.99-3.186-6.16-3.186c-3.886,0-6.826,3.081-6.826,7.106
			c0,4.095,2.94,7.21,6.826,7.21c2.064,0,4.445-1.12,6.16-2.87l3.641,3.851c-2.625,2.695-6.511,4.48-10.115,4.48
			c-7.387,0-12.883-5.426-12.883-12.602c0-7.07,5.637-12.391,13.092-12.391C404.442,211.205,408.222,212.814,410.672,215.335z"/>
		<path fill="#2F343B" d="M426.77,216.315v4.865h11.691v4.9H426.77v4.936h13.337v4.9h-19.567v-24.502h19.183v4.9H426.77z"/>
		<path fill="#2F343B" d="M461.806,211.415c6.266,0,9.871,3.08,9.871,8.54c0,5.741-3.605,9.066-9.871,9.066h-4.446v6.896h-6.23
			v-24.502H461.806z M457.36,224.121h4.131c2.73,0,4.306-1.365,4.306-3.955c0-2.556-1.575-3.851-4.306-3.851h-4.131V224.121z"/>
		<path fill="#2F343B" d="M493.271,216.42v19.497h-6.231V216.42h-7.314v-5.04h20.932v5.04H493.271z"/>
		<path fill="#2F343B" d="M531.664,216.315v5.67h10.992v4.901h-10.992v9.03h-6.23v-24.502h18.168v4.9H531.664z"/>
		<path fill="#2F343B" d="M578.461,223.63c0,7.141-5.67,12.566-13.266,12.566c-7.561,0-13.232-5.391-13.232-12.566
			c0-7.141,5.672-12.426,13.232-12.426C572.791,211.205,578.461,216.525,578.461,223.63z M558.334,223.666
			c0,4.13,3.186,7.315,6.932,7.315c3.779,0,6.79-3.186,6.79-7.315c0-4.131-3.011-7.246-6.79-7.246
			C561.485,216.42,558.334,219.535,558.334,223.666z"/>
		<path fill="#2F343B" d="M599.88,229.021h-0.175h-4.727v6.896h-6.23v-24.502h10.957c6.475,0,10.186,3.08,10.186,8.54
			c0,3.746-1.575,6.441-4.445,7.876l5.146,8.086h-7.071L599.88,229.021z M599.705,224.121c2.695,0,4.27-1.365,4.27-3.955
			c0-2.556-1.574-3.851-4.27-3.851h-4.727v7.806H599.705z"/>
		<path fill="#2F343B" d="M647.549,216.42v19.497h-6.23V216.42h-7.316v-5.04h20.932v5.04H647.549z"/>
		<path fill="#2F343B" d="M670.823,216.315v4.865h11.691v4.9h-11.691v4.936h13.338v4.9h-19.568v-24.502h19.182v4.9H670.823z"/>
		<path fill="#2F343B" d="M716.604,235.917l-0.033-15.927l-5.881,13.477h-4.061l-5.881-13.477v15.927h-5.566V211.38h6.826
			l6.65,14.597l6.65-14.597h6.791v24.537H716.604z"/>
		<path fill="#2F343B" d="M744.707,211.415c6.266,0,9.871,3.08,9.871,8.54c0,5.741-3.605,9.066-9.871,9.066h-4.445v6.896h-6.23
			v-24.502H744.707z M740.262,224.121h4.131c2.73,0,4.307-1.365,4.307-3.955c0-2.556-1.576-3.851-4.307-3.851h-4.131V224.121z"/>
		<path fill="#2F343B" d="M776.172,216.42v19.497h-6.23V216.42h-7.314v-5.04h20.932v5.04H776.172z"/>
		<path fill="#2F343B" d="M796.156,231.401l-1.785,4.516h-6.404l10.57-24.502h6.406l10.326,24.502h-6.65l-1.752-4.516H796.156z
			 M801.547,217.61l-3.57,9.065h7.072L801.547,217.61z"/>
		<path fill="#2F343B" d="M833.256,216.42v19.497h-6.23V216.42h-7.314v-5.04h20.932v5.04H833.256z"/>
		<path fill="#2F343B" d="M850.301,235.917v-24.502h6.23v24.502H850.301z"/>
		<path fill="#2F343B" d="M893.319,223.63c0,7.141-5.672,12.566-13.268,12.566c-7.561,0-13.23-5.391-13.23-12.566
			c0-7.141,5.67-12.426,13.23-12.426C887.647,211.205,893.319,216.525,893.319,223.63z M873.192,223.666
			c0,4.13,3.186,7.315,6.93,7.315c3.781,0,6.791-3.186,6.791-7.315c0-4.131-3.01-7.246-6.791-7.246
			C876.342,216.42,873.192,219.535,873.192,223.666z"/>
		<path fill="#2F343B" d="M920.723,235.917l-11.271-15.086v15.086h-5.846v-24.502h5.496l11.305,15.121v-15.121h5.811v24.502H920.723
			z"/>
	</g>
	<g display="inline">
		<path fill="#2F343B" d="M612.178,391.478v9.972h-1.281v-9.972h-3.648v-1.232h8.595v1.232H612.178z"/>
		<path fill="#2F343B" d="M624.403,396.248v5.202h-1.248v-4.866c0-1.489-0.896-2.369-2.385-2.369c-1.793,0.016-2.85,1.28-2.85,3.089
			v4.146h-1.248v-11.877h1.248v5.33c0.576-1.312,1.729-1.92,3.281-1.937C623.219,392.967,624.403,394.215,624.403,396.248z"/>
		<path fill="#2F343B" d="M634.451,397.721h-6.883c0.224,1.648,1.424,2.689,3.057,2.689c1.041,0,1.953-0.368,2.609-1.056
			l0.688,0.736c-0.8,0.896-1.984,1.408-3.393,1.408c-2.481,0-4.193-1.745-4.193-4.257c0-2.513,1.729-4.258,4.178-4.258
			C633.235,392.967,634.578,394.856,634.451,397.721z M633.33,396.696c-0.08-1.617-1.168-2.641-2.816-2.641
			c-1.602,0-2.754,1.041-2.945,2.641H633.33z"/>
		<path fill="#2F343B" d="M644.307,396.248v5.202h-1.248v-4.866c0-1.489-0.896-2.369-2.385-2.369
			c-1.665,0.016-2.689,1.104-2.834,2.705v4.53h-1.248v-8.436h1.248v1.857c0.593-1.281,1.729-1.889,3.266-1.905
			C643.123,392.967,644.307,394.215,644.307,396.248z"/>
	</g>
	<g display="inline">
		<path fill="#2F343B" d="M587.492,27.829v-6.161h-8.441v6.161h-1.601V13.826h1.601v6.321h8.441v-6.321h1.601v14.003H587.492z"/>
		<path fill="#2F343B" d="M602.192,23.168h-8.602c0.28,2.061,1.78,3.36,3.82,3.36c1.301,0,2.441-0.46,3.262-1.32l0.859,0.921
			c-1,1.12-2.48,1.76-4.24,1.76c-3.102,0-5.241-2.181-5.241-5.321s2.16-5.32,5.222-5.32
			C600.672,17.226,602.352,19.587,602.192,23.168z M600.791,21.887c-0.1-2.021-1.46-3.301-3.52-3.301
			c-2.001,0-3.441,1.3-3.682,3.301H600.791z"/>
		<path fill="#2F343B" d="M614.552,27.829h-1.561v-2.261c-0.78,1.48-2.22,2.341-4.101,2.341c-3.001,0-5.081-2.221-5.081-5.361
			c0-3.161,2.08-5.341,5.062-5.341c1.88,0,3.34,0.859,4.12,2.36v-6.582h1.561V27.829z M612.991,22.588
			c0-2.301-1.58-3.961-3.801-3.961c-2.24,0-3.821,1.66-3.821,3.961c0,2.28,1.581,3.921,3.821,3.921
			C611.411,26.508,612.991,24.868,612.991,22.588z"/>
		<path fill="#2F343B" d="M628.072,22.547c0,3.16-2.221,5.341-5.341,5.341c-3.121,0-5.342-2.181-5.342-5.341
			c0-3.141,2.221-5.301,5.342-5.301C625.851,17.247,628.072,19.407,628.072,22.547z M618.949,22.567c0,2.321,1.58,3.921,3.781,3.921
			c2.2,0,3.78-1.6,3.78-3.921c0-2.3-1.58-3.9-3.78-3.9C620.53,18.667,618.949,20.267,618.949,22.567z"/>
		<path fill="#2F343B" d="M640.451,21.327v6.502h-1.561v-6.082c0-1.86-1.12-2.96-2.98-2.96c-2.08,0.02-3.361,1.38-3.541,3.381v5.661
			h-1.561V17.286h1.561v2.321c0.74-1.601,2.16-2.36,4.081-2.381C638.971,17.226,640.451,18.787,640.451,21.327z"/>
		<path fill="#2F343B" d="M645.709,14.265c0,0.62-0.439,1.08-1.02,1.08s-1.021-0.46-1.021-1.08s0.441-1.08,1.021-1.08
			S645.709,13.645,645.709,14.265z M643.929,27.829V17.286h1.54v10.543H643.929z"/>
		<path fill="#2F343B" d="M655.43,18.186l-0.6,1.24c-0.82-0.52-1.881-0.86-2.861-0.86c-1.18,0-2.08,0.421-2.08,1.4
			c0,2.341,5.881,1.141,5.881,4.922c0,2.08-1.84,3-3.86,3c-1.501,0-3.04-0.52-4.041-1.48l0.601-1.18c0.9,0.84,2.26,1.34,3.5,1.34
			s2.24-0.46,2.261-1.5c0.06-2.541-5.841-1.24-5.821-4.981c0-2.021,1.74-2.86,3.661-2.86C653.33,17.226,654.55,17.587,655.43,18.186
			z"/>
		<path fill="#2F343B" d="M675.752,21.327v6.502h-1.561v-6.082c0-1.88-1.1-2.98-2.92-2.98c-2.182,0.061-3.441,1.621-3.441,3.881
			v5.182h-1.58v-6.082c0-1.88-1.08-2.98-2.921-2.98c-2.16,0.061-3.46,1.621-3.46,3.881v5.182h-1.541V17.286h1.541v2.381
			c0.699-1.641,2.119-2.42,4.02-2.44c1.98,0,3.342,1.021,3.781,2.761c0.66-1.86,2.141-2.74,4.161-2.761
			C674.291,17.226,675.752,18.787,675.752,21.327z"/>
	</g>
	
		<line display="inline" fill="none" stroke="#2B3A42" stroke-width="0.8156" stroke-linecap="round" stroke-miterlimit="10" x1="578.07" y1="32.53" x2="677.07" y2="32.53"/>
</g>
<g id="Layer_5">
	<rect x="593.257" y="382.984" fill="#E3D9C8" width="63.487" height="22.88"/>
	<g>
		<path fill="#2F343B" d="M615.971,401.45L610,393.415v8.035h-1.889v-11.205h1.857l6.002,8.051v-8.051h1.857v11.205H615.971z"/>
		<path fill="#2F343B" d="M628.755,397.192c0,2.561-1.809,4.322-4.434,4.322c-2.642,0-4.45-1.761-4.45-4.322
			c0-2.577,1.809-4.322,4.45-4.322C626.947,392.871,628.755,394.615,628.755,397.192z M621.712,397.209
			c0,1.648,1.073,2.769,2.609,2.769c1.521,0,2.593-1.121,2.593-2.769c0-1.633-1.072-2.753-2.593-2.753
			C622.785,394.456,621.712,395.576,621.712,397.209z"/>
		<path fill="#2F343B" d="M638.356,401.45l-2.161-6.307l-2.161,6.307h-1.889l-3.137-8.516h1.889l2.209,6.691l2.145-6.691h1.904
			l2.161,6.691l2.177-6.691h1.873l-3.105,8.516H638.356z"/>
	</g>
	<rect x="656.333" y="210" fill="#E3D9C8" width="331.667" height="34"/>
	<g>
		<path fill="#2F343B" d="M689.524,226.61c0,7.141-5.67,12.566-13.267,12.566c-7.561,0-13.231-5.391-13.231-12.566
			c0-7.142,5.671-12.427,13.231-12.427C683.854,214.183,689.524,219.504,689.524,226.61z M669.397,226.644
			c0,4.131,3.186,7.316,6.931,7.316c3.78,0,6.791-3.186,6.791-7.316c0-4.13-3.011-7.245-6.791-7.245
			S669.397,222.514,669.397,226.644z"/>
		<path fill="#2F343B" d="M710.943,232.001h-0.176h-4.726v6.896h-6.23v-24.503h10.956c6.476,0,10.187,3.08,10.187,8.541
			c0,3.745-1.575,6.44-4.445,7.876l5.146,8.086h-7.071L710.943,232.001z M710.767,227.099c2.695,0,4.271-1.364,4.271-3.955
			c0-2.556-1.575-3.851-4.271-3.851h-4.726v7.806H710.767z"/>
		<path fill="#2F343B" d="M743.492,219.399v19.497h-6.231v-19.497h-7.315v-5.041h20.933v5.041H743.492z"/>
		<path fill="#2F343B" d="M760.535,238.896v-24.503h6.23v24.503H760.535z"/>
		<path fill="#2F343B" d="M795.292,233.68v5.216h-16.627v-24.503h6.23v19.287H795.292z"/>
		<path fill="#2F343B" d="M821.892,233.68v5.216h-16.627v-24.503h6.23v19.287H821.892z"/>
		<path fill="#2F343B" d="M837.535,234.38l-1.785,4.516h-6.405l10.57-24.503h6.405l10.326,24.503h-6.65l-1.75-4.516H837.535z
			 M842.926,220.588l-3.57,9.066h7.07L842.926,220.588z"/>
		<path fill="#2F343B" d="M902.392,218.314l-3.605,4.271c-1.61-1.961-3.99-3.186-6.161-3.186c-3.885,0-6.825,3.08-6.825,7.105
			c0,4.096,2.94,7.211,6.825,7.211c2.065,0,4.445-1.12,6.161-2.87l3.641,3.851c-2.626,2.694-6.511,4.48-10.116,4.48
			c-7.386,0-12.882-5.426-12.882-12.602c0-7.071,5.636-12.392,13.092-12.392C896.161,214.183,899.942,215.794,902.392,218.314z"/>
		<path fill="#2F343B" d="M928.641,238.896v-9.521H918.49v9.521h-6.23v-24.503h6.23v10.081h10.151v-10.081h6.23v24.503H928.641z"/>
		<path fill="#2F343B" d="M946.769,238.896v-24.503h6.23v24.503H946.769z"/>
		<path fill="#2F343B" d="M975.574,214.393c6.266,0,9.871,3.08,9.871,8.541c0,5.74-3.605,9.066-9.871,9.066h-4.445v6.896h-6.23
			v-24.503H975.574z M971.129,227.099h4.131c2.73,0,4.306-1.364,4.306-3.955c0-2.556-1.575-3.851-4.306-3.851h-4.131V227.099z"/>
		<path fill="#2F343B" d="M1014.776,216.843l-2.346,4.865c-2.59-1.505-5.846-2.555-7.841-2.555c-1.609,0-2.695,0.595-2.695,1.785
			c0,4.235,12.952,1.82,12.952,10.676c0,4.9-4.341,7.491-9.802,7.491c-4.095,0-8.296-1.54-11.201-3.921l2.416-4.795
			c2.52,2.205,6.3,3.675,8.855,3.675c1.96,0,3.186-0.734,3.186-2.135c0-4.341-12.951-1.75-12.951-10.432
			c0-4.515,3.885-7.386,9.766-7.386C1008.65,214.113,1012.255,215.199,1014.776,216.843z"/>
	</g>
</g>
</svg>
