<?xml version="1.0" encoding="utf-8"?>
<!-- Generator: Adobe Illustrator 17.0.0, SVG Export Plug-In . SVG Version: 6.00 Build 0)  -->
<!DOCTYPE svg PUBLIC "-//W3C//DTD SVG 1.0//EN" "http://www.w3.org/TR/2001/REC-SVG-20010904/DTD/svg10.dtd">
<svg version="1.0" xmlns="http://www.w3.org/2000/svg" xmlns:xlink="http://www.w3.org/1999/xlink" x="0px" y="0px" width="1250px"
	 height="420px" viewBox="0 0 1250 420" enable-background="new 0 0 1250 420" xml:space="preserve">
<g id="Layer_9">
</g>
<g id="Layer_3" display="none">
	<g display="inline">
		<path fill="#2F343B" d="M353.375,177.917v-24.503h6.23v24.503H353.375z"/>
		<path fill="#2F343B" d="M403.741,177.917L392.47,162.83v15.087h-5.846v-24.503h5.496l11.306,15.122v-15.122h5.811v24.503H403.741z
			"/>
		<path fill="#2F343B" d="M427.365,158.315v4.866h11.69v4.9h-11.69v4.936h13.336v4.9h-19.567v-24.503h19.183v4.9H427.365z"/>
		<path fill="#2F343B" d="M457.955,158.315v4.866h11.69v4.9h-11.69v4.936h13.336v4.9h-19.567v-24.503h19.183v4.9H457.955z"/>
		<path fill="#2F343B" d="M492.85,153.414c7.701,0,13.021,4.971,13.021,12.251c0,7.246-5.391,12.252-13.267,12.252h-10.291v-24.503
			H492.85z M488.545,172.946h4.445c3.815,0,6.545-2.94,6.545-7.246c0-4.34-2.87-7.315-6.825-7.315h-4.165V172.946z"/>
		<path fill="#2F343B" d="M542.619,158.42v19.497h-6.23V158.42h-7.315v-5.041h20.932v5.041H542.619z"/>
		<path fill="#2F343B" d="M583.291,165.631c0,7.141-5.671,12.566-13.267,12.566c-7.561,0-13.231-5.391-13.231-12.566
			c0-7.142,5.671-12.427,13.231-12.427C577.62,153.204,583.291,158.525,583.291,165.631z M563.164,165.665
			c0,4.131,3.185,7.316,6.931,7.316c3.78,0,6.79-3.186,6.79-7.316c0-4.13-3.01-7.245-6.79-7.245S563.164,161.535,563.164,165.665z"
			/>
		<path fill="#2F343B" d="M620.284,153.414c5.495,0,8.996,2.381,8.996,6.126c0,2.59-1.61,4.655-4.201,5.391
			c3.081,0.595,5.041,3.01,5.041,6.195c0,4.165-3.641,6.791-9.416,6.791h-12.007v-24.503H620.284z M614.894,163.215h5.04
			c1.82,0,2.976-0.979,2.976-2.555s-1.155-2.485-2.976-2.485h-5.04V163.215z M614.894,173.121h5.04c2.311,0,3.745-1.015,3.745-2.765
			c0-1.646-1.435-2.661-3.745-2.661h-5.04V173.121z"/>
		<path fill="#2F343B" d="M646.953,158.315v4.866h11.691v4.9h-11.691v4.936h13.337v4.9h-19.567v-24.503h19.182v4.9H646.953z"/>
		<path fill="#2F343B" d="M692.663,158.315v5.671h10.991v4.9h-10.991v9.031h-6.23v-24.503H704.6v4.9H692.663z"/>
		<path fill="#2F343B" d="M714.572,177.917v-24.503h6.23v24.503H714.572z"/>
		<path fill="#2F343B" d="M751.78,155.864l-2.346,4.865c-2.59-1.505-5.846-2.555-7.841-2.555c-1.609,0-2.695,0.595-2.695,1.785
			c0,4.235,12.952,1.82,12.952,10.676c0,4.9-4.341,7.491-9.802,7.491c-4.095,0-8.296-1.54-11.201-3.921l2.416-4.795
			c2.52,2.205,6.3,3.675,8.855,3.675c1.96,0,3.186-0.734,3.186-2.135c0-4.341-12.951-1.75-12.951-10.432
			c0-4.515,3.885-7.386,9.766-7.386C745.654,153.134,749.259,154.22,751.78,155.864z"/>
		<path fill="#2F343B" d="M783.594,157.335l-3.605,4.271c-1.61-1.961-3.99-3.186-6.161-3.186c-3.885,0-6.825,3.08-6.825,7.105
			c0,4.096,2.94,7.211,6.825,7.211c2.065,0,4.446-1.12,6.161-2.87l3.641,3.851c-2.626,2.694-6.511,4.48-10.116,4.48
			c-7.386,0-12.882-5.426-12.882-12.602c0-7.071,5.636-12.392,13.092-12.392C777.364,153.204,781.144,154.815,783.594,157.335z"/>
		<path fill="#2F343B" d="M798.781,173.402l-1.785,4.516h-6.405l10.571-24.503h6.405l10.326,24.503h-6.65l-1.751-4.516H798.781z
			 M804.172,159.61l-3.57,9.066h7.071L804.172,159.61z"/>
		<path fill="#2F343B" d="M843.792,172.701v5.216h-16.627v-24.503h6.23v19.287H843.792z"/>
		<path fill="#2F343B" d="M870.392,172.701v5.216h-16.627v-24.503h6.23v19.287H870.392z"/>
		<path fill="#2F343B" d="M893.001,177.917h-6.196v-7.736l-9.065-16.767h6.23l5.916,10.676l5.775-10.676h6.23l-8.891,16.592V177.917
			z"/>
		<path fill="#2F343B" d="M422.902,219.917v-24.503h6.231v24.503H422.902z"/>
		<path fill="#2F343B" d="M458.149,219.917l-11.271-15.087v15.087h-5.846v-24.503h5.496l11.306,15.122v-15.122h5.811v24.503H458.149
			z"/>
		<path fill="#2F343B" d="M486.077,195.414c7.701,0,13.021,4.971,13.021,12.251c0,7.246-5.391,12.252-13.267,12.252h-10.291v-24.503
			H486.077z M481.773,214.946h4.445c3.815,0,6.545-2.94,6.545-7.246c0-4.34-2.87-7.315-6.825-7.315h-4.165V214.946z"/>
		<path fill="#2F343B" d="M515.617,200.315v4.866h11.69v4.9h-11.69v4.936h13.336v4.9h-19.567v-24.503h19.183v4.9H515.617z"/>
		<path fill="#2F343B" d="M550.653,195.414c6.266,0,9.871,3.08,9.871,8.541c0,5.74-3.605,9.066-9.871,9.066h-4.445v6.896h-6.231
			v-24.503H550.653z M546.207,208.12h4.13c2.73,0,4.306-1.364,4.306-3.955c0-2.556-1.575-3.851-4.306-3.851h-4.13V208.12z"/>
		<path fill="#2F343B" d="M577.007,200.315v4.866h11.69v4.9h-11.69v4.936h13.336v4.9h-19.567v-24.503h19.183v4.9H577.007z"/>
		<path fill="#2F343B" d="M618.483,219.917l-11.271-15.087v15.087h-5.846v-24.503h5.496l11.306,15.122v-15.122h5.811v24.503H618.483
			z"/>
		<path fill="#2F343B" d="M646.412,195.414c7.701,0,13.021,4.971,13.021,12.251c0,7.246-5.391,12.252-13.267,12.252h-10.291v-24.503
			H646.412z M642.107,214.946h4.445c3.815,0,6.546-2.94,6.546-7.246c0-4.34-2.87-7.315-6.825-7.315h-4.166V214.946z"/>
		<path fill="#2F343B" d="M675.95,200.315v4.866h11.691v4.9H675.95v4.936h13.337v4.9H669.72v-24.503h19.182v4.9H675.95z"/>
		<path fill="#2F343B" d="M717.428,219.917l-11.271-15.087v15.087h-5.846v-24.503h5.496l11.306,15.122v-15.122h5.811v24.503H717.428
			z"/>
		<path fill="#2F343B" d="M746.161,200.42v19.497h-6.23V200.42h-7.315v-5.041h20.932v5.041H746.161z"/>
		<path fill="#2F343B" d="M803.213,207.631c0,7.141-5.671,12.566-13.267,12.566c-7.561,0-13.231-5.391-13.231-12.566
			c0-7.142,5.671-12.427,13.231-12.427C797.542,195.204,803.213,200.525,803.213,207.631z M783.086,207.665
			c0,4.131,3.186,7.316,6.931,7.316c3.78,0,6.791-3.186,6.791-7.316c0-4.13-3.011-7.245-6.791-7.245
			S783.086,203.535,783.086,207.665z"/>
		<path fill="#2F343B" d="M819.731,200.315v5.671h10.991v4.9h-10.991v9.031h-6.23v-24.503h18.167v4.9H819.731z"/>
		<path fill="#2F343B" d="M502.161,261.917l-0.035-15.927l-5.881,13.477h-4.061l-5.881-13.477v15.927h-5.565v-24.538h6.826
			l6.65,14.597l6.65-14.597h6.791v24.538H502.161z"/>
		<path fill="#2F343B" d="M532.225,261.917h-6.195v-7.735l-9.066-16.768h6.23l5.916,10.676l5.775-10.676h6.23l-8.891,16.592V261.917
			z"/>
		<path fill="#2F343B" d="M576.184,237.414c6.266,0,9.871,3.08,9.871,8.541c0,5.741-3.605,9.066-9.871,9.066h-4.445v6.896h-6.23
			v-24.503H576.184z M571.739,250.121h4.131c2.729,0,4.305-1.365,4.305-3.956c0-2.556-1.575-3.851-4.305-3.851h-4.131V250.121z"/>
		<path fill="#2F343B" d="M600.054,257.402l-1.785,4.516h-6.405l10.57-24.503h6.406l10.326,24.503h-6.651l-1.75-4.516H600.054z
			 M605.445,243.61l-3.57,9.066h7.07L605.445,243.61z"/>
		<path fill="#2F343B" d="M639.57,255.022h-0.175h-4.726v6.896h-6.23v-24.503h10.956c6.476,0,10.186,3.08,10.186,8.541
			c0,3.746-1.575,6.441-4.445,7.876l5.146,8.086h-7.07L639.57,255.022z M639.395,250.121c2.695,0,4.271-1.365,4.271-3.956
			c0-2.556-1.575-3.851-4.271-3.851h-4.726v7.807H639.395z"/>
		<path fill="#2F343B" d="M667.009,242.315v4.866H678.7v4.9h-11.691v4.936h13.337v4.9h-19.567v-24.503h19.182v4.9H667.009z"/>
		<path fill="#2F343B" d="M708.486,261.917l-11.271-15.087v15.087h-5.846v-24.503h5.496l11.306,15.122v-15.122h5.811v24.503H708.486
			z"/>
		<path fill="#2F343B" d="M737.219,242.42v19.497h-6.23V242.42h-7.315v-5.041h20.932v5.041H737.219z"/>
		<path fill="#2F343B" d="M773.34,239.864l-2.346,4.865c-2.59-1.505-5.846-2.555-7.841-2.555c-1.609,0-2.695,0.595-2.695,1.785
			c0,4.235,12.952,1.82,12.952,10.677c0,4.9-4.341,7.49-9.802,7.49c-4.095,0-8.296-1.54-11.201-3.92l2.416-4.796
			c2.52,2.205,6.3,3.676,8.855,3.676c1.96,0,3.186-0.735,3.186-2.136c0-4.341-12.951-1.75-12.951-10.432
			c0-4.515,3.885-7.386,9.766-7.386C767.214,237.134,770.82,238.22,773.34,239.864z"/>
	</g>
	<g display="inline">
		<path fill="#2F343B" d="M612.178,391.478v9.973h-1.28v-9.973h-3.649v-1.232h8.596v1.232H612.178z"/>
		<path fill="#2F343B" d="M624.404,396.248v5.202h-1.248v-4.866c0-1.488-0.896-2.369-2.385-2.369c-1.793,0.017-2.85,1.28-2.85,3.09
			v4.146h-1.248v-11.877h1.248v5.33c0.576-1.312,1.729-1.921,3.281-1.937C623.22,392.967,624.404,394.215,624.404,396.248z"/>
		<path fill="#2F343B" d="M634.451,397.721h-6.883c0.225,1.648,1.425,2.688,3.058,2.688c1.04,0,1.953-0.368,2.609-1.056l0.688,0.736
			c-0.8,0.896-1.984,1.408-3.393,1.408c-2.481,0-4.194-1.745-4.194-4.258s1.729-4.258,4.178-4.258
			C633.236,392.967,634.579,394.856,634.451,397.721z M633.331,396.697c-0.08-1.617-1.169-2.642-2.817-2.642
			c-1.601,0-2.753,1.041-2.945,2.642H633.331z"/>
		<path fill="#2F343B" d="M644.308,396.248v5.202h-1.248v-4.866c0-1.488-0.896-2.369-2.386-2.369
			c-1.664,0.017-2.688,1.104-2.833,2.705v4.53h-1.248v-8.436h1.248v1.856c0.593-1.28,1.729-1.889,3.266-1.904
			C643.123,392.967,644.308,394.215,644.308,396.248z"/>
	</g>
	<g display="inline">
		<path fill="#2F343B" d="M556.621,27.828V13.825h1.6v14.003H556.621z"/>
		<path fill="#2F343B" d="M571.883,21.327v6.501h-1.561v-6.081c0-1.86-1.12-2.961-2.98-2.961c-2.081,0.021-3.361,1.381-3.541,3.381
			v5.661h-1.561V17.286h1.561v2.32c0.74-1.601,2.16-2.36,4.081-2.38C570.403,17.227,571.883,18.786,571.883,21.327z"/>
		<path fill="#2F343B" d="M585.042,27.828h-1.561v-2.26c-0.779,1.479-2.22,2.34-4.101,2.34c-3.001,0-5.081-2.221-5.081-5.361
			c0-3.16,2.08-5.341,5.062-5.341c1.88,0,3.341,0.86,4.12,2.36v-6.581h1.561V27.828z M583.482,22.587c0-2.3-1.58-3.961-3.801-3.961
			c-2.24,0-3.82,1.661-3.82,3.961c0,2.281,1.58,3.921,3.82,3.921C581.902,26.508,583.482,24.868,583.482,22.587z"/>
		<path fill="#2F343B" d="M598.022,23.167h-8.602c0.28,2.061,1.78,3.361,3.82,3.361c1.301,0,2.441-0.46,3.261-1.32l0.86,0.92
			c-1,1.12-2.48,1.761-4.24,1.761c-3.102,0-5.241-2.181-5.241-5.321s2.16-5.321,5.221-5.321
			C596.501,17.227,598.182,19.587,598.022,23.167z M596.621,21.887c-0.1-2.021-1.46-3.301-3.521-3.301c-2,0-3.44,1.301-3.681,3.301
			H596.621z"/>
		<path fill="#2F343B" d="M611.482,22.587c0,3.121-2.04,5.302-5.021,5.302c-1.881,0-3.321-0.86-4.102-2.32v6.141h-1.56V17.286h1.56
			v2.28c0.78-1.48,2.221-2.34,4.062-2.34C609.402,17.227,611.482,19.427,611.482,22.587z M609.902,22.547
			c0-2.26-1.561-3.921-3.761-3.921c-2.221,0-3.781,1.641-3.781,3.921c0,2.301,1.561,3.921,3.781,3.921
			C608.341,26.468,609.902,24.828,609.902,22.547z"/>
		<path fill="#2F343B" d="M623.302,23.167h-8.603c0.28,2.061,1.781,3.361,3.821,3.361c1.3,0,2.44-0.46,3.261-1.32l0.86,0.92
			c-1.001,1.12-2.48,1.761-4.241,1.761c-3.101,0-5.241-2.181-5.241-5.321s2.16-5.321,5.222-5.321
			C621.781,17.227,623.462,19.587,623.302,23.167z M621.902,21.887c-0.101-2.021-1.461-3.301-3.521-3.301
			c-2.001,0-3.441,1.301-3.682,3.301H621.902z"/>
		<path fill="#2F343B" d="M635.621,21.327v6.501h-1.561v-6.081c0-1.86-1.12-2.961-2.98-2.961c-2.08,0.021-3.36,1.381-3.54,3.381
			v5.661h-1.561V17.286h1.561v2.32c0.739-1.601,2.16-2.36,4.08-2.38C634.141,17.227,635.621,18.786,635.621,21.327z"/>
		<path fill="#2F343B" d="M648.781,27.828h-1.561v-2.26c-0.78,1.479-2.221,2.34-4.101,2.34c-3.001,0-5.081-2.221-5.081-5.361
			c0-3.16,2.08-5.341,5.061-5.341c1.881,0,3.341,0.86,4.121,2.36v-6.581h1.561V27.828z M647.221,22.587
			c0-2.3-1.58-3.961-3.801-3.961c-2.24,0-3.821,1.661-3.821,3.961c0,2.281,1.581,3.921,3.821,3.921
			C645.641,26.508,647.221,24.868,647.221,22.587z"/>
		<path fill="#2F343B" d="M661.761,23.167h-8.603c0.28,2.061,1.781,3.361,3.821,3.361c1.3,0,2.44-0.46,3.261-1.32l0.86,0.92
			c-1.001,1.12-2.48,1.761-4.241,1.761c-3.101,0-5.241-2.181-5.241-5.321s2.16-5.321,5.222-5.321
			C660.24,17.227,661.921,19.587,661.761,23.167z M660.361,21.887c-0.101-2.021-1.461-3.301-3.521-3.301
			c-2.001,0-3.441,1.301-3.682,3.301H660.361z"/>
		<path fill="#2F343B" d="M674.08,21.327v6.501h-1.561v-6.081c0-1.86-1.12-2.961-2.98-2.961c-2.08,0.021-3.36,1.381-3.54,3.381
			v5.661h-1.561V17.286h1.561v2.32c0.739-1.601,2.16-2.36,4.08-2.38C672.6,17.227,674.08,18.786,674.08,21.327z"/>
		<path fill="#2F343B" d="M685.78,18.807l-0.859,1.1c-0.801-0.76-1.861-1.22-3.142-1.22c-2.18,0-3.74,1.58-3.74,3.881
			s1.561,3.9,3.74,3.9c1.381,0,2.521-0.479,3.261-1.36l0.9,0.961c-0.94,1.14-2.4,1.82-4.221,1.82c-3.061,0-5.221-2.181-5.221-5.321
			s2.18-5.321,5.221-5.321C683.419,17.227,684.82,17.807,685.78,18.807z"/>
		<path fill="#2F343B" d="M697.36,23.167h-8.602c0.28,2.061,1.78,3.361,3.82,3.361c1.301,0,2.441-0.46,3.261-1.32l0.86,0.92
			c-1,1.12-2.48,1.761-4.24,1.761c-3.102,0-5.241-2.181-5.241-5.321s2.16-5.321,5.221-5.321
			C695.839,17.227,697.52,19.587,697.36,23.167z M695.959,21.887c-0.1-2.021-1.46-3.301-3.521-3.301c-2,0-3.44,1.301-3.681,3.301
			H695.959z"/>
	</g>
	
		<line display="inline" fill="none" stroke="#2B3A42" stroke-width="0.8156" stroke-linecap="round" stroke-miterlimit="10" x1="554.82" y1="32.53" x2="597.82" y2="32.53"/>
	
		<line display="inline" fill="none" stroke="#2B3A42" stroke-width="0.8156" stroke-linecap="round" stroke-miterlimit="10" x1="606.07" y1="32.53" x2="698.07" y2="32.53"/>
</g>
<g id="Layer_5">
	<rect x="593.257" y="382.984" fill="#E3D9C8" width="63.487" height="22.88"/>
	<g>
		<path fill="#2F343B" d="M615.972,401.45l-5.971-8.035v8.035h-1.889v-11.205h1.856l6.003,8.052v-8.052h1.856v11.205H615.972z"/>
		<path fill="#2F343B" d="M628.756,397.193c0,2.561-1.809,4.321-4.434,4.321c-2.642,0-4.45-1.761-4.45-4.321
			c0-2.577,1.809-4.322,4.45-4.322C626.948,392.87,628.756,394.615,628.756,397.193z M621.713,397.208
			c0,1.648,1.072,2.77,2.609,2.77c1.521,0,2.593-1.121,2.593-2.77c0-1.633-1.072-2.753-2.593-2.753
			C622.785,394.455,621.713,395.575,621.713,397.208z"/>
		<path fill="#2F343B" d="M638.356,401.45l-2.16-6.307l-2.161,6.307h-1.889l-3.138-8.516h1.889l2.209,6.69l2.145-6.69h1.905
			l2.161,6.69l2.177-6.69h1.873l-3.105,8.516H638.356z"/>
	</g>
	<rect x="587.333" y="145" fill="#E3D9C8" width="169.667" height="38"/>
	<rect x="874" y="145" fill="#E3D9C8" width="32.333" height="38"/>
	<rect x="406" y="188.085" fill="#E3D9C8" width="434" height="44.497"/>
</g>
</svg>
