<?xml version="1.0" encoding="utf-8"?>
<!-- Generator: Adobe Illustrator 17.0.0, SVG Export Plug-In . SVG Version: 6.00 Build 0)  -->
<!DOCTYPE svg PUBLIC "-//W3C//DTD SVG 1.0//EN" "http://www.w3.org/TR/2001/REC-SVG-20010904/DTD/svg10.dtd">
<svg version="1.0" xmlns="http://www.w3.org/2000/svg" xmlns:xlink="http://www.w3.org/1999/xlink" x="0px" y="0px" width="1250px"
	 height="420px" viewBox="0 0 1250 420" enable-background="new 0 0 1250 420" xml:space="preserve">
<g id="Layer_9">
</g>
<g id="Layer_3" display="none">
	<g display="inline">
		<path fill="#2F343B" d="M415.225,149.71l-4.55-16.942l-4.62,16.942h-6.441l-8.016-24.502h6.65l4.796,18.027l4.69-18.027h6.091
			l4.796,18.027l4.725-18.027h6.371l-8.086,24.502H415.225z"/>
		<path fill="#2F343B" d="M455.3,149.71v-9.521h-10.151v9.521h-6.23v-24.502h6.23v10.081H455.3v-10.081h6.23v24.502H455.3z"/>
		<path fill="#2F343B" d="M478.993,145.194l-1.785,4.516h-6.405l10.57-24.502h6.406l10.326,24.502h-6.65l-1.75-4.516H478.993z
			 M484.384,131.402l-3.57,9.066h7.071L484.384,131.402z"/>
		<path fill="#2F343B" d="M516.094,130.213v19.497h-6.23v-19.497h-7.316v-5.041h20.933v5.041H516.094z"/>
		<path fill="#2F343B" d="M569.399,149.71l-4.55-16.942l-4.62,16.942h-6.441l-8.016-24.502h6.65l4.796,18.027l4.69-18.027h6.091
			l4.796,18.027l4.725-18.027h6.371l-8.086,24.502H569.399z"/>
		<path fill="#2F343B" d="M593.092,149.71v-24.502h6.23v24.502H593.092z"/>
		<path fill="#2F343B" d="M627.848,144.494v5.215h-16.626v-24.502h6.231v19.287H627.848z"/>
		<path fill="#2F343B" d="M654.449,144.494v5.215h-16.627v-24.502h6.23v19.287H654.449z"/>
		<path fill="#2F343B" d="M679.541,149.71v-24.502h6.23v24.502H679.541z"/>
		<path fill="#2F343B" d="M723.328,125.207c7.701,0,13.021,4.97,13.021,12.251c0,7.246-5.391,12.251-13.268,12.251h-10.291v-24.502
			H723.328z M719.022,144.739h4.445c3.816,0,6.547-2.94,6.547-7.246c0-4.34-2.871-7.316-6.826-7.316h-4.166V144.739z"/>
		<path fill="#2F343B" d="M771.071,137.423c0,7.141-5.672,12.566-13.268,12.566c-7.561,0-13.23-5.391-13.23-12.566
			c0-7.141,5.67-12.426,13.23-12.426C765.399,124.997,771.071,130.317,771.071,137.423z M750.944,137.458
			c0,4.13,3.186,7.316,6.93,7.316c3.781,0,6.791-3.186,6.791-7.316s-3.01-7.246-6.791-7.246
			C754.094,130.213,750.944,133.328,750.944,137.458z"/>
		<path fill="#2F343B" d="M807.819,130.213v19.497h-6.23v-19.497h-7.316v-5.041h20.932v5.041H807.819z"/>
		<path fill="#2F343B" d="M848.49,137.423c0,7.141-5.672,12.566-13.268,12.566c-7.561,0-13.23-5.391-13.23-12.566
			c0-7.141,5.67-12.426,13.23-12.426C842.819,124.997,848.49,130.317,848.49,137.423z M828.364,137.458
			c0,4.13,3.186,7.316,6.93,7.316c3.781,0,6.791-3.186,6.791-7.316s-3.01-7.246-6.791-7.246
			C831.514,130.213,828.364,133.328,828.364,137.458z"/>
		<path fill="#2F343B" d="M489.721,172.108v5.67h10.992v4.901h-10.992v9.031h-6.23v-24.502h18.168v4.9H489.721z"/>
		<path fill="#2F343B" d="M536.518,179.423c0,7.141-5.67,12.566-13.266,12.566c-7.561,0-13.232-5.391-13.232-12.566
			c0-7.141,5.672-12.426,13.232-12.426C530.848,166.997,536.518,172.317,536.518,179.423z M516.391,179.458
			c0,4.13,3.186,7.316,6.932,7.316c3.779,0,6.79-3.186,6.79-7.316s-3.011-7.246-6.79-7.246
			C519.541,172.213,516.391,175.328,516.391,179.458z"/>
		<path fill="#2F343B" d="M557.937,184.814h-0.175h-4.727v6.896h-6.23v-24.502h10.957c6.475,0,10.186,3.08,10.186,8.541
			c0,3.746-1.575,6.441-4.445,7.876l5.146,8.086h-7.071L557.937,184.814z M557.762,179.913c2.695,0,4.27-1.365,4.27-3.955
			c0-2.556-1.574-3.851-4.27-3.851h-4.727v7.806H557.762z"/>
		<path fill="#2F343B" d="M590.487,172.213v19.497h-6.23v-19.497h-7.316v-5.041h20.933v5.041H590.487z"/>
		<path fill="#2F343B" d="M607.53,191.71v-24.502h6.23v24.502H607.53z"/>
		<path fill="#2F343B" d="M631.891,172.108v5.67h10.99v4.901h-10.99v9.031h-6.23v-24.502h18.166v4.9H631.891z"/>
		<path fill="#2F343B" d="M666.436,191.71h-6.195v-7.736l-9.066-16.767h6.23l5.916,10.676l5.775-10.676h6.23l-8.891,16.592V191.71z"
			/>
		<path fill="#2F343B" d="M721.141,191.71l-0.033-15.927l-5.881,13.477h-4.061l-5.881-13.477v15.927h-5.566v-24.538h6.826
			l6.65,14.597l6.65-14.597h6.791v24.538H721.141z"/>
		<path fill="#2F343B" d="M751.205,191.71h-6.195v-7.736l-9.066-16.767h6.23l5.916,10.676l5.775-10.676h6.23l-8.891,16.592V191.71z"
			/>
		<path fill="#2F343B" d="M428.946,233.71l-4.551-16.942l-4.621,16.942h-6.439l-8.017-24.502h6.651l4.795,18.027l4.69-18.027h6.091
			l4.795,18.027l4.727-18.027h6.37l-8.086,24.502H428.946z"/>
		<path fill="#2F343B" d="M458.869,214.108v4.866h11.69v4.9h-11.69v4.936h13.336v4.9h-19.567v-24.502h19.183v4.9H458.869z"/>
		<path fill="#2F343B" d="M488.793,229.194l-1.785,4.516h-6.405l10.571-24.502h6.405l10.326,24.502h-6.651l-1.75-4.516H488.793z
			 M494.184,215.402l-3.57,9.066h7.07L494.184,215.402z"/>
		<path fill="#2F343B" d="M526.663,224.084l-3.255,3.605v6.021h-6.23v-24.502h6.23v10.606l9.381-10.606H540l-9.102,10.151
			l9.696,14.352h-7.456L526.663,224.084z"/>
		<path fill="#2F343B" d="M556.553,214.108v4.866h11.691v4.9h-11.691v4.936h13.336v4.9h-19.566v-24.502h19.182v4.9H556.553z"/>
		<path fill="#2F343B" d="M598.03,233.71l-11.271-15.086v15.086h-5.846v-24.502h5.496l11.306,15.122v-15.122h5.811v24.502H598.03z"
			/>
		<path fill="#2F343B" d="M621.653,214.108v4.866h11.691v4.9h-11.691v4.936h13.336v4.9h-19.566v-24.502h19.182v4.9H621.653z"/>
		<path fill="#2F343B" d="M656.547,209.207c7.701,0,13.021,4.97,13.021,12.251c0,7.245-5.391,12.251-13.266,12.251h-10.291v-24.502
			H656.547z M652.242,228.739h4.445c3.814,0,6.545-2.94,6.545-7.245c0-4.341-2.869-7.316-6.824-7.316h-4.166V228.739z"/>
		<path fill="#2F343B" d="M694.977,233.71v-24.502h6.23v24.502H694.977z"/>
		<path fill="#2F343B" d="M730.223,233.71l-11.271-15.086v15.086h-5.846v-24.502h5.496l11.307,15.122v-15.122h5.811v24.502H730.223z
			"/>
		<path fill="#2F343B" d="M764.733,233.71l-11.271-15.086v15.086h-5.846v-24.502h5.496l11.307,15.122v-15.122h5.811v24.502H764.733z
			"/>
		<path fill="#2F343B" d="M788.356,214.108v4.866h11.691v4.9h-11.691v4.936h13.338v4.9h-19.568v-24.502h19.182v4.9H788.356z"/>
		<path fill="#2F343B" d="M823.846,226.814h-0.174h-4.727v6.896h-6.23v-24.502h10.957c6.475,0,10.186,3.08,10.186,8.541
			c0,3.746-1.574,6.441-4.445,7.876l5.146,8.086h-7.072L823.846,226.814z M823.672,221.914c2.695,0,4.27-1.365,4.27-3.956
			c0-2.556-1.574-3.851-4.27-3.851h-4.727v7.806H823.672z"/>
		<path fill="#2F343B" d="M482.268,255.128l-3.605,4.27c-1.609-1.96-3.99-3.186-6.16-3.186c-3.886,0-6.826,3.08-6.826,7.105
			c0,4.096,2.94,7.211,6.826,7.211c2.064,0,4.445-1.12,6.16-2.87l3.641,3.851c-2.625,2.695-6.511,4.48-10.115,4.48
			c-7.387,0-12.883-5.426-12.883-12.602c0-7.07,5.637-12.392,13.092-12.392C476.037,250.997,479.818,252.607,482.268,255.128z"/>
		<path fill="#2F343B" d="M516.604,263.423c0,7.141-5.671,12.566-13.268,12.566c-7.561,0-13.23-5.391-13.23-12.566
			c0-7.141,5.67-12.427,13.23-12.427C510.933,250.997,516.604,256.318,516.604,263.423z M496.477,263.459
			c0,4.13,3.185,7.315,6.93,7.315c3.781,0,6.791-3.186,6.791-7.315c0-4.131-3.01-7.246-6.791-7.246
			C499.627,256.212,496.477,259.328,496.477,263.459z"/>
		<path fill="#2F343B" d="M544.007,275.71l-11.271-15.087v15.087h-5.846v-24.503h5.495l11.306,15.122v-15.122h5.811v24.503H544.007z
			"/>
		<path fill="#2F343B" d="M567.631,256.107v5.671h10.99v4.9h-10.99v9.031h-6.23v-24.503h18.166v4.9H567.631z"/>
		<path fill="#2F343B" d="M589.539,275.71v-24.503h6.23v24.503H589.539z"/>
		<path fill="#2F343B" d="M618.205,251.207c7.701,0,13.021,4.971,13.021,12.252c0,7.245-5.391,12.251-13.266,12.251H607.67v-24.503
			H618.205z M613.901,270.739h4.445c3.814,0,6.545-2.94,6.545-7.245c0-4.341-2.869-7.316-6.825-7.316h-4.165V270.739z"/>
		<path fill="#2F343B" d="M647.744,256.107v4.866h11.691v4.9h-11.691v4.936h13.338v4.9h-19.568v-24.503h19.182v4.9H647.744z"/>
		<path fill="#2F343B" d="M689.221,275.71l-11.271-15.087v15.087h-5.846v-24.503h5.496l11.307,15.122v-15.122h5.811v24.503H689.221z
			"/>
		<path fill="#2F343B" d="M727.967,255.128l-3.605,4.27c-1.611-1.96-3.99-3.186-6.162-3.186c-3.885,0-6.824,3.08-6.824,7.105
			c0,4.096,2.939,7.211,6.824,7.211c2.066,0,4.445-1.12,6.162-2.87l3.641,3.851c-2.627,2.695-6.512,4.48-10.117,4.48
			c-7.385,0-12.881-5.426-12.881-12.602c0-7.07,5.635-12.392,13.092-12.392C721.737,250.997,725.516,252.607,727.967,255.128z"/>
		<path fill="#2F343B" d="M744.065,256.107v4.866h11.691v4.9h-11.691v4.936h13.336v4.9h-19.566v-24.503h19.182v4.9H744.065z"/>
		<path fill="#2F343B" d="M766.078,259.047c0.07-5.005,3.045-7.945,7.98-7.945c4.656,0,7.525,2.17,7.525,6.091
			c0,5.32-5.355,5.95-5.355,10.15h-4.516c0-5.425,4.307-5.705,4.307-9.171c0-1.575-0.945-2.275-2.521-2.275
			c-1.75,0-2.729,1.016-2.764,3.186L766.078,259.047z M776.824,273.049c0,1.75-1.225,2.94-2.939,2.94
			c-1.717,0-2.906-1.19-2.906-2.94c0-1.715,1.189-2.905,2.906-2.905C775.6,270.144,776.824,271.335,776.824,273.049z"/>
	</g>
	<g display="inline">
		<path fill="#2F343B" d="M563.801,13.825c4.081,0,7.202,3.021,7.202,7.001s-3.141,7.001-7.262,7.001h-5.601V13.825H563.801z
			 M559.74,26.308h4.081c3.12,0,5.562-2.34,5.562-5.461c0-3.141-2.48-5.481-5.621-5.481h-4.021V26.308z"/>
		<path fill="#2F343B" d="M582.781,23.167h-8.602c0.28,2.061,1.78,3.361,3.82,3.361c1.301,0,2.441-0.46,3.262-1.32l0.859,0.92
			c-1,1.12-2.48,1.76-4.24,1.76c-3.102,0-5.241-2.181-5.241-5.321s2.16-5.321,5.222-5.321
			C581.262,17.226,582.942,19.587,582.781,23.167z M581.381,21.887c-0.1-2.021-1.46-3.301-3.52-3.301
			c-2.001,0-3.441,1.3-3.682,3.301H581.381z"/>
		<path fill="#2F343B" d="M594.541,23.167h-8.602c0.28,2.061,1.78,3.361,3.82,3.361c1.301,0,2.441-0.46,3.262-1.32l0.859,0.92
			c-1,1.12-2.48,1.76-4.24,1.76c-3.102,0-5.241-2.181-5.241-5.321s2.16-5.321,5.222-5.321
			C593.022,17.226,594.701,19.587,594.541,23.167z M593.141,21.887c-0.1-2.021-1.46-3.301-3.52-3.301
			c-2.001,0-3.441,1.3-3.682,3.301H593.141z"/>
		<path fill="#2F343B" d="M608.002,22.587c0,3.121-2.041,5.301-5.021,5.301c-1.881,0-3.32-0.86-4.102-2.32v6.141h-1.56V17.286h1.56
			v2.281c0.781-1.48,2.221-2.34,4.062-2.34C605.921,17.226,608.002,19.426,608.002,22.587z M606.422,22.547
			c0-2.26-1.561-3.921-3.762-3.921c-2.221,0-3.781,1.641-3.781,3.921c0,2.301,1.561,3.921,3.781,3.921
			C604.862,26.468,606.422,24.828,606.422,22.547z"/>
		<path fill="#2F343B" d="M620.699,15.365v12.463h-1.6V15.365h-4.561v-1.54h10.742v1.54H620.699z"/>
		<path fill="#2F343B" d="M635.981,21.327v6.501h-1.561v-6.082c0-1.86-1.119-2.96-2.98-2.96c-2.24,0.02-3.561,1.601-3.561,3.861
			v5.181h-1.561V12.985h1.561v6.662c0.721-1.641,2.16-2.4,4.102-2.42C634.5,17.226,635.981,18.786,635.981,21.327z"/>
		<path fill="#2F343B" d="M649.08,22.547c0,3.161-2.221,5.341-5.341,5.341s-5.341-2.181-5.341-5.341
			c0-3.141,2.221-5.301,5.341-5.301S649.08,19.406,649.08,22.547z M639.959,22.567c0,2.321,1.58,3.921,3.78,3.921
			s3.78-1.6,3.78-3.921c0-2.3-1.58-3.901-3.78-3.901S639.959,20.267,639.959,22.567z"/>
		<path fill="#2F343B" d="M660.961,27.828h-1.561v-2.38c-0.701,1.64-2.102,2.42-4.002,2.44c-2.46,0-3.939-1.561-3.939-4.101v-6.501
			h1.56v6.082c0,1.86,1.101,2.96,2.921,2.96c2.18-0.04,3.461-1.62,3.461-3.861v-5.181h1.561V27.828z"/>
		<path fill="#2F343B" d="M673.941,26.728c0,3.081-2.101,5.021-5.302,5.021c-1.66-0.02-3.04-0.56-4.32-1.521l0.721-1.2
			c1.039,0.86,2.14,1.32,3.54,1.34c2.3,0,3.801-1.4,3.801-3.601v-1.601c-0.74,1.4-2.101,2.201-3.881,2.201
			c-2.841,0-4.801-2.101-4.801-5.101c0-2.941,1.94-5.021,4.761-5.041c1.801,0,3.16,0.8,3.921,2.2v-2.141h1.561V26.728z
			 M672.38,22.327c0-2.201-1.501-3.741-3.601-3.741c-2.121,0-3.602,1.561-3.621,3.741c0.02,2.16,1.5,3.721,3.621,3.721
			C670.879,26.048,672.38,24.487,672.38,22.327z"/>
		<path fill="#2F343B" d="M687.24,21.327v6.501h-1.561v-6.082c0-1.86-1.12-2.96-2.98-2.96c-2.24,0.02-3.561,1.601-3.561,3.861v5.181
			h-1.561V12.985h1.561v6.662c0.72-1.641,2.16-2.4,4.101-2.42C685.76,17.226,687.24,18.786,687.24,21.327z"/>
		<path fill="#2F343B" d="M696.159,27.108c-0.74,0.5-1.54,0.78-2.381,0.8c-1.54,0-2.681-0.92-2.681-3v-6.021h-1.52v-1.26h1.52
			v-2.781h1.541v2.781l3.34-0.02v1.28h-3.34v5.741c0,1.28,0.5,1.76,1.4,1.76c0.539,0,1.1-0.18,1.68-0.54L696.159,27.108z"/>
	</g>
	
		<line display="inline" fill="none" stroke="#2B3A42" stroke-width="0.686" stroke-linecap="round" stroke-miterlimit="10" x1="558.279" y1="32.53" x2="594.362" y2="32.53"/>
	
		<line display="inline" fill="none" stroke="#2B3A42" stroke-width="0.8962" stroke-linecap="round" stroke-miterlimit="10" x1="601.529" y1="32.53" x2="663.112" y2="32.53"/>
	
		<line display="inline" fill="none" stroke="#2B3A42" stroke-width="0.5556" stroke-linecap="round" stroke-miterlimit="10" x1="673.487" y1="32.53" x2="697.154" y2="32.53"/>
	<g display="inline">
		<path fill="#2F343B" d="M612.177,391.478v9.972h-1.28v-9.972h-3.649v-1.232h8.595v1.232H612.177z"/>
		<path fill="#2F343B" d="M624.403,396.248v5.202h-1.248v-4.866c0-1.489-0.896-2.369-2.385-2.369c-1.793,0.016-2.85,1.28-2.85,3.089
			v4.146h-1.248v-11.877h1.248v5.33c0.576-1.312,1.729-1.92,3.281-1.937C623.219,392.967,624.403,394.215,624.403,396.248z"/>
		<path fill="#2F343B" d="M634.45,397.721h-6.883c0.224,1.648,1.425,2.689,3.058,2.689c1.04,0,1.953-0.368,2.609-1.056l0.688,0.736
			c-0.801,0.896-1.984,1.408-3.393,1.408c-2.482,0-4.194-1.745-4.194-4.257c0-2.513,1.729-4.258,4.178-4.258
			C633.235,392.967,634.578,394.856,634.45,397.721z M633.33,396.696c-0.08-1.617-1.169-2.641-2.817-2.641
			c-1.601,0-2.753,1.041-2.945,2.641H633.33z"/>
		<path fill="#2F343B" d="M644.307,396.248v5.202h-1.248v-4.866c0-1.489-0.896-2.369-2.386-2.369
			c-1.665,0.016-2.688,1.104-2.833,2.705v4.53h-1.248v-8.436h1.248v1.857c0.592-1.281,1.729-1.889,3.266-1.905
			C643.122,392.967,644.307,394.215,644.307,396.248z"/>
	</g>
</g>
<g id="Layer_5">
	<g>
		<path fill="#2F343B" d="M840.357,219.293c0.069-5.006,3.045-7.946,7.98-7.946c4.655,0,7.525,2.17,7.525,6.09
			c0,5.321-5.355,5.951-5.355,10.151h-4.515c0-5.426,4.305-5.706,4.305-9.171c0-1.575-0.944-2.275-2.52-2.275
			c-1.751,0-2.73,1.015-2.766,3.185L840.357,219.293z M851.103,233.295c0,1.75-1.226,2.94-2.94,2.94s-2.905-1.19-2.905-2.94
			c0-1.715,1.19-2.905,2.905-2.905S851.103,231.579,851.103,233.295z"/>
	</g>
	<rect x="593.256" y="382.984" fill="#E3D9C8" width="63.487" height="22.88"/>
	<g>
		<path fill="#2F343B" d="M615.971,401.45L610,393.415v8.035h-1.889v-11.205h1.856l6.003,8.051v-8.051h1.856v11.205H615.971z"/>
		<path fill="#2F343B" d="M628.754,397.192c0,2.561-1.809,4.322-4.434,4.322c-2.641,0-4.449-1.761-4.449-4.322
			c0-2.577,1.809-4.322,4.449-4.322C626.946,392.871,628.754,394.615,628.754,397.192z M621.711,397.209
			c0,1.648,1.073,2.769,2.609,2.769c1.521,0,2.594-1.121,2.594-2.769c0-1.633-1.072-2.753-2.594-2.753
			C622.784,394.456,621.711,395.576,621.711,397.209z"/>
		<path fill="#2F343B" d="M638.355,401.45l-2.161-6.307l-2.16,6.307h-1.889l-3.138-8.516h1.889l2.209,6.691l2.145-6.691h1.905
			l2.16,6.691l2.178-6.691h1.873l-3.105,8.516H638.355z"/>
	</g>
	<rect x="787.5" y="119.455" fill="#E3D9C8" width="65.5" height="40.5"/>
	<rect x="571.5" y="159.955" fill="#E3D9C8" width="201.5" height="40.5"/>
	<rect x="396" y="200.455" fill="#E3D9C8" width="246.5" height="40.5"/>
	<rect x="453.5" y="240.955" fill="#E3D9C8" width="337.5" height="46.5"/>
</g>
</svg>
