<?xml version="1.0" encoding="utf-8"?>
<!-- Generator: Adobe Illustrator 17.0.0, SVG Export Plug-In . SVG Version: 6.00 Build 0)  -->
<!DOCTYPE svg PUBLIC "-//W3C//DTD SVG 1.0//EN" "http://www.w3.org/TR/2001/REC-SVG-20010904/DTD/svg10.dtd">
<svg version="1.0" xmlns="http://www.w3.org/2000/svg" xmlns:xlink="http://www.w3.org/1999/xlink" x="0px" y="0px" width="1250px"
	 height="420px" viewBox="0 0 1250 420" enable-background="new 0 0 1250 420" xml:space="preserve">
<g id="Layer_9">
</g>
<g id="Layer_3" display="none">
	<g display="inline">
		<path fill="#2F343B" d="M561.615,150.079v5.67h10.991v4.901h-10.991v9.031h-6.23v-24.502h18.167v4.9H561.615z"/>
		<path fill="#2F343B" d="M605.576,159.39c0,6.476-4.305,10.571-11.166,10.571c-6.895,0-11.306-4.096-11.306-10.571v-14.211h6.23
			v14.211c0,3.325,2.136,5.355,5.11,5.355c2.94,0,4.936-2.03,4.936-5.355v-14.211h6.195V159.39z"/>
		<path fill="#2F343B" d="M638.406,149.099l-3.605,4.271c-1.609-1.96-3.99-3.186-6.16-3.186c-3.885,0-6.826,3.081-6.826,7.106
			c0,4.095,2.941,7.21,6.826,7.21c2.064,0,4.445-1.12,6.16-2.87l3.641,3.851c-2.625,2.695-6.51,4.48-10.115,4.48
			c-7.387,0-12.883-5.426-12.883-12.602c0-7.071,5.637-12.391,13.092-12.391C632.176,144.969,635.957,146.579,638.406,149.099z"/>
		<path fill="#2F343B" d="M657.76,160.055l-3.256,3.605v6.021h-6.23v-24.502h6.23v10.606l9.381-10.606h7.211l-9.1,10.151
			l9.695,14.352h-7.455L657.76,160.055z"/>
		<path fill="#2F343B" d="M555.09,211.681l-4.551-16.942l-4.621,16.942h-6.439l-8.017-24.502h6.651l4.795,18.027l4.69-18.027h6.091
			l4.795,18.027l4.727-18.027h6.37l-8.086,24.502H555.09z"/>
		<path fill="#2F343B" d="M595.164,211.681v-9.521h-10.15v9.521h-6.231v-24.502h6.231v10.081h10.15v-10.081h6.23v24.502H595.164z"/>
		<path fill="#2F343B" d="M618.858,207.166l-1.785,4.516h-6.405l10.571-24.502h6.404l10.326,24.502h-6.65l-1.75-4.516H618.858z
			 M624.248,193.374l-3.57,9.066h7.07L624.248,193.374z"/>
		<path fill="#2F343B" d="M655.957,192.184v19.497h-6.23v-19.497h-7.314v-5.041h20.932v5.041H655.957z"/>
		<path fill="#2F343B" d="M677.692,190.014c0,0.91-0.314,1.646-0.77,2.311l-2.555,3.71h-2.871l1.576-3.71
			c-0.807-0.56-1.156-1.365-1.156-2.275c0-1.715,1.225-2.905,2.906-2.905C676.362,187.144,677.692,188.194,677.692,190.014z"/>
		<path fill="#2F343B" d="M707.514,189.629l-2.346,4.865c-2.59-1.505-5.846-2.555-7.842-2.555c-1.609,0-2.695,0.595-2.695,1.785
			c0,4.235,12.953,1.82,12.953,10.676c0,4.9-4.342,7.491-9.803,7.491c-4.094,0-8.295-1.54-11.201-3.92l2.416-4.795
			c2.52,2.205,6.301,3.675,8.855,3.675c1.961,0,3.186-0.735,3.186-2.135c0-4.34-12.951-1.75-12.951-10.431
			c0-4.515,3.885-7.386,9.766-7.386C701.387,186.899,704.992,187.984,707.514,189.629z"/>
		<path fill="#2F343B" d="M517.43,229.179c6.266,0,9.871,3.08,9.871,8.541c0,5.741-3.605,9.066-9.871,9.066h-4.445v6.896h-6.231
			v-24.502H517.43z M512.985,241.885h4.13c2.729,0,4.306-1.365,4.306-3.956c0-2.556-1.576-3.851-4.306-3.851h-4.13V241.885z"/>
		<path fill="#2F343B" d="M562.441,241.395c0,7.141-5.671,12.566-13.267,12.566c-7.561,0-13.23-5.391-13.23-12.566
			c0-7.141,5.67-12.426,13.23-12.426C556.77,228.969,562.441,234.289,562.441,241.395z M542.314,241.43
			c0,4.13,3.185,7.315,6.931,7.315c3.78,0,6.791-3.186,6.791-7.315c0-4.131-3.011-7.246-6.791-7.246
			C545.463,234.184,542.314,237.299,542.314,241.43z"/>
		<path fill="#2F343B" d="M583.405,229.179c6.266,0,9.871,3.08,9.871,8.541c0,5.741-3.605,9.066-9.871,9.066h-4.445v6.896h-6.231
			v-24.502H583.405z M578.959,241.885h4.13c2.729,0,4.306-1.365,4.306-3.956c0-2.556-1.576-3.851-4.306-3.851h-4.13V241.885z"/>
		<path fill="#2F343B" d="M625.58,243.39c0,6.476-4.307,10.571-11.166,10.571c-6.896,0-11.307-4.096-11.307-10.571v-14.211h6.23
			v14.211c0,3.325,2.135,5.355,5.111,5.355c2.939,0,4.936-2.03,4.936-5.355v-14.211h6.195V243.39z"/>
		<path fill="#2F343B" d="M653.684,248.465v5.216h-16.627v-24.502h6.23v19.287H653.684z"/>
		<path fill="#2F343B" d="M669.326,249.166l-1.785,4.516h-6.404l10.57-24.502h6.406l10.326,24.502h-6.65l-1.752-4.516H669.326z
			 M674.717,235.374l-3.57,9.066h7.072L674.717,235.374z"/>
		<path fill="#2F343B" d="M708.842,246.786h-0.176h-4.725v6.896h-6.23v-24.502h10.955c6.477,0,10.188,3.08,10.188,8.541
			c0,3.746-1.576,6.441-4.445,7.876l5.145,8.086h-7.07L708.842,246.786z M708.666,241.885c2.695,0,4.271-1.365,4.271-3.956
			c0-2.556-1.576-3.851-4.271-3.851h-4.725v7.806H708.666z"/>
	</g>
	<g display="inline">
		<path fill="#2F343B" d="M600.143,45.366v12.463h-1.6V45.366h-4.562v-1.54h10.742v1.54H600.143z"/>
		<path fill="#2F343B" d="M607.383,49.627c0.7-1.541,2-2.38,3.781-2.4v1.58c-2.221-0.04-3.602,1.34-3.781,3.421v5.601h-1.561V47.286
			h1.561V49.627z"/>
		<path fill="#2F343B" d="M622.344,53.168h-8.602c0.279,2.061,1.78,3.361,3.82,3.361c1.301,0,2.44-0.46,3.261-1.32l0.86,0.92
			c-1,1.12-2.48,1.76-4.241,1.76c-3.101,0-5.241-2.181-5.241-5.321s2.16-5.321,5.222-5.321
			C620.823,47.227,622.504,49.587,622.344,53.168z M620.944,51.887c-0.1-2.021-1.461-3.301-3.521-3.301
			c-2.001,0-3.44,1.3-3.681,3.301H620.944z"/>
		<path fill="#2F343B" d="M634.664,51.327v6.501h-1.561v-6.082c0-1.86-1.121-2.96-2.98-2.96c-2.081,0.02-3.361,1.38-3.541,3.381
			v5.661h-1.561V47.286h1.561v2.321c0.74-1.601,2.16-2.36,4.08-2.38C633.184,47.227,634.664,48.787,634.664,51.327z"/>
		<path fill="#2F343B" d="M647.824,57.829h-1.561v-2.26c-0.78,1.48-2.221,2.34-4.102,2.34c-3,0-5.08-2.221-5.08-5.361
			c0-3.161,2.08-5.341,5.061-5.341c1.881,0,3.341,0.86,4.121,2.36v-6.582h1.561V57.829z M646.264,52.588
			c0-2.3-1.58-3.961-3.801-3.961c-2.24,0-3.821,1.661-3.821,3.961c0,2.281,1.581,3.921,3.821,3.921
			C644.684,56.508,646.264,54.868,646.264,52.588z"/>
		<path fill="#2F343B" d="M657.882,48.187l-0.601,1.24c-0.819-0.52-1.88-0.86-2.859-0.86c-1.181,0-2.081,0.42-2.081,1.4
			c0,2.341,5.882,1.141,5.882,4.921c0,2.08-1.841,3-3.861,3c-1.5,0-3.041-0.52-4.041-1.48l0.6-1.18c0.9,0.84,2.262,1.34,3.502,1.34
			s2.24-0.46,2.26-1.5c0.061-2.541-5.842-1.24-5.821-4.981c0-2.021,1.741-2.86,3.661-2.86
			C655.781,47.227,657.002,47.587,657.882,48.187z"/>
	</g>
	
		<line display="inline" fill="none" stroke="#2B3A42" stroke-width="0.9313" stroke-linecap="round" stroke-miterlimit="10" x1="593.07" y1="62.53" x2="659.57" y2="62.53"/>
	<g display="inline">
		<path fill="#2F343B" d="M612.179,370.478v9.972h-1.28v-9.972h-3.649v-1.232h8.596v1.232H612.179z"/>
		<path fill="#2F343B" d="M624.405,375.248v5.202h-1.248v-4.866c0-1.489-0.896-2.369-2.385-2.369c-1.793,0.016-2.85,1.28-2.85,3.089
			v4.146h-1.248v-11.877h1.248v5.33c0.576-1.312,1.729-1.92,3.281-1.937C623.221,371.967,624.405,373.215,624.405,375.248z"/>
		<path fill="#2F343B" d="M634.452,376.721h-6.883c0.225,1.648,1.425,2.689,3.058,2.689c1.04,0,1.953-0.368,2.609-1.056l0.688,0.736
			c-0.8,0.896-1.984,1.408-3.393,1.408c-2.481,0-4.194-1.745-4.194-4.257c0-2.513,1.729-4.258,4.178-4.258
			C633.237,371.967,634.58,373.856,634.452,376.721z M633.332,375.696c-0.08-1.617-1.169-2.641-2.817-2.641
			c-1.601,0-2.753,1.041-2.945,2.641H633.332z"/>
		<path fill="#2F343B" d="M644.309,375.248v5.202h-1.248v-4.866c0-1.489-0.896-2.369-2.386-2.369
			c-1.664,0.016-2.688,1.104-2.833,2.705v4.53h-1.248v-8.436h1.248v1.857c0.593-1.281,1.729-1.889,3.266-1.905
			C643.124,371.967,644.309,373.215,644.309,375.248z"/>
	</g>
</g>
<g id="Layer_5">
	<g>
		<path fill="#2F343B" d="M688.068,166.072c0,1.75-1.225,2.94-2.939,2.94c-1.681,0-2.906-1.19-2.906-2.94
			c0-1.715,1.226-2.905,2.906-2.905C686.843,163.167,688.068,164.358,688.068,166.072z M687.053,160.332h-3.641l-1.05-9.731v-6.23
			h5.74v6.23L687.053,160.332z"/>
	</g>
	<g>
		<path fill="#2F343B" d="M726.68,239.676c0.069-5.006,3.045-7.946,7.98-7.946c4.655,0,7.525,2.17,7.525,6.09
			c0,5.321-5.355,5.951-5.355,10.151h-4.516c0-5.425,4.306-5.705,4.306-9.17c0-1.575-0.944-2.275-2.521-2.275
			c-1.75,0-2.73,1.015-2.765,3.185L726.68,239.676z M737.426,253.678c0,1.75-1.226,2.94-2.941,2.94c-1.715,0-2.904-1.19-2.904-2.94
			c0-1.715,1.189-2.905,2.904-2.905C736.2,250.773,737.426,251.963,737.426,253.678z"/>
	</g>
	<rect x="593.257" y="361.984" fill="#E3D9C8" width="63.487" height="22.88"/>
	<g>
		<path fill="#2F343B" d="M615.973,380.45l-5.971-8.035v8.035h-1.889v-11.205h1.856l6.003,8.051v-8.051h1.856v11.205H615.973z"/>
		<path fill="#2F343B" d="M628.756,376.193c0,2.561-1.809,4.322-4.434,4.322c-2.641,0-4.449-1.761-4.449-4.322
			c0-2.577,1.809-4.322,4.449-4.322C626.948,371.871,628.756,373.615,628.756,376.193z M621.713,376.209
			c0,1.648,1.073,2.769,2.609,2.769c1.521,0,2.594-1.121,2.594-2.769c0-1.633-1.072-2.753-2.594-2.753
			C622.786,373.456,621.713,374.576,621.713,376.209z"/>
		<path fill="#2F343B" d="M638.357,380.45l-2.161-6.307l-2.16,6.307h-1.889l-3.138-8.516h1.889l2.209,6.691l2.145-6.691h1.905
			l2.16,6.691l2.178-6.691h1.873l-3.105,8.516H638.357z"/>
	</g>
</g>
</svg>
