<?xml version="1.0" encoding="utf-8"?>
<!-- Generator: Adobe Illustrator 17.0.0, SVG Export Plug-In . SVG Version: 6.00 Build 0)  -->
<!DOCTYPE svg PUBLIC "-//W3C//DTD SVG 1.0//EN" "http://www.w3.org/TR/2001/REC-SVG-20010904/DTD/svg10.dtd">
<svg version="1.0" xmlns="http://www.w3.org/2000/svg" xmlns:xlink="http://www.w3.org/1999/xlink" x="0px" y="0px" width="1250px"
	 height="420px" viewBox="0 0 1250 420" enable-background="new 0 0 1250 420" xml:space="preserve">
<g id="Layer_9">
</g>
<g id="Layer_3">
	<path fill="#45BF55" d="M561.616,2558.486v5.67h10.99v4.901h-10.99v9.03h-6.231v-24.502h18.167v4.9H561.616z"/>
	<path fill="#45BF55" d="M605.577,2567.796c0,6.477-4.306,10.572-11.166,10.572c-6.896,0-11.307-4.096-11.307-10.572v-14.211h6.23
		v14.211c0,3.326,2.136,5.355,5.111,5.355c2.939,0,4.936-2.029,4.936-5.355v-14.211h6.195V2567.796z"/>
	<path fill="#45BF55" d="M638.407,2557.505l-3.605,4.271c-1.61-1.961-3.99-3.186-6.161-3.186c-3.885,0-6.825,3.08-6.825,7.105
		c0,4.096,2.94,7.211,6.825,7.211c2.065,0,4.446-1.121,6.161-2.871l3.641,3.852c-2.626,2.694-6.511,4.48-10.116,4.48
		c-7.386,0-12.882-5.426-12.882-12.602c0-7.071,5.636-12.392,13.092-12.392C632.177,2553.375,635.957,2554.986,638.407,2557.505z"/>
	<path fill="#45BF55" d="M657.761,2568.462l-3.256,3.605v6.02h-6.23v-24.502h6.23v10.605l9.381-10.605h7.211l-9.101,10.15
		l9.696,14.352h-7.456L657.761,2568.462z"/>
	<path fill="#45BF55" d="M555.09,2620.087l-4.551-16.941l-4.62,16.941h-6.44l-8.017-24.502h6.651l4.795,18.027l4.69-18.027h6.091
		l4.796,18.027l4.726-18.027h6.37l-8.086,24.502H555.09z"/>
	<path fill="#45BF55" d="M595.164,2620.087v-9.521h-10.15v9.521h-6.231v-24.502h6.231v10.081h10.15v-10.081h6.23v24.502H595.164z"/>
	<path fill="#45BF55" d="M618.858,2615.572l-1.785,4.516h-6.406l10.571-24.502h6.405l10.326,24.502h-6.65l-1.75-4.516H618.858z
		 M624.249,2601.781l-3.57,9.066h7.07L624.249,2601.781z"/>
	<path fill="#45BF55" d="M655.958,2600.591v19.496h-6.23v-19.496h-7.315v-5.041h20.932v5.041H655.958z"/>
	<path fill="#45BF55" d="M677.692,2598.42c0,0.91-0.314,1.646-0.77,2.311l-2.556,3.71h-2.87l1.575-3.71
		c-0.806-0.56-1.155-1.365-1.155-2.275c0-1.716,1.225-2.905,2.905-2.905C676.362,2595.55,677.692,2596.601,677.692,2598.42z"/>
	<path fill="#45BF55" d="M707.514,2598.036l-2.346,4.865c-2.59-1.505-5.846-2.556-7.841-2.556c-1.609,0-2.695,0.596-2.695,1.785
		c0,4.236,12.952,1.82,12.952,10.677c0,4.9-4.341,7.491-9.802,7.491c-4.095,0-8.296-1.541-11.201-3.921l2.416-4.796
		c2.52,2.205,6.3,3.676,8.855,3.676c1.96,0,3.186-0.734,3.186-2.135c0-4.341-12.951-1.75-12.951-10.432
		c0-4.516,3.885-7.386,9.766-7.386C701.388,2595.305,704.993,2596.39,707.514,2598.036z"/>
	<path fill="#45BF55" d="M517.43,2637.585c6.266,0,9.871,3.08,9.871,8.541c0,5.74-3.605,9.066-9.871,9.066h-4.445v6.895h-6.231
		v-24.502H517.43z M512.984,2650.292h4.13c2.73,0,4.306-1.365,4.306-3.956c0-2.556-1.575-3.851-4.306-3.851h-4.13V2650.292z"/>
	<path fill="#45BF55" d="M562.44,2649.802c0,7.141-5.67,12.566-13.267,12.566c-7.561,0-13.23-5.391-13.23-12.566
		c0-7.142,5.67-12.427,13.23-12.427C556.771,2637.375,562.44,2642.696,562.44,2649.802z M542.313,2649.837
		c0,4.129,3.186,7.314,6.931,7.314c3.78,0,6.791-3.186,6.791-7.314c0-4.131-3.011-7.246-6.791-7.246
		S542.313,2645.707,542.313,2649.837z"/>
	<path fill="#45BF55" d="M583.404,2637.585c6.266,0,9.871,3.08,9.871,8.541c0,5.74-3.605,9.066-9.871,9.066h-4.445v6.895h-6.231
		v-24.502H583.404z M578.959,2650.292h4.13c2.73,0,4.306-1.365,4.306-3.956c0-2.556-1.575-3.851-4.306-3.851h-4.13V2650.292z"/>
	<path fill="#45BF55" d="M625.58,2651.796c0,6.477-4.306,10.572-11.166,10.572c-6.896,0-11.307-4.096-11.307-10.572v-14.211h6.23
		v14.211c0,3.326,2.136,5.355,5.111,5.355c2.94,0,4.936-2.029,4.936-5.355v-14.211h6.195V2651.796z"/>
	<path fill="#45BF55" d="M653.685,2656.873v5.215h-16.627v-24.502h6.23v19.287H653.685z"/>
	<path fill="#45BF55" d="M669.327,2657.572l-1.785,4.516h-6.405l10.571-24.502h6.405l10.326,24.502h-6.65l-1.751-4.516H669.327z
		 M674.718,2643.781l-3.57,9.066h7.071L674.718,2643.781z"/>
	<path fill="#45BF55" d="M708.843,2655.193h-0.175h-4.726v6.895h-6.23v-24.502h10.956c6.476,0,10.187,3.08,10.187,8.541
		c0,3.746-1.575,6.441-4.445,7.875l5.146,8.086h-7.071L708.843,2655.193z M708.668,2650.292c2.695,0,4.271-1.365,4.271-3.956
		c0-2.556-1.575-3.851-4.271-3.851h-4.726v7.807H708.668z"/>
	<path fill="#45BF55" d="M600.143,2453.772v12.463h-1.6v-12.463h-4.562v-1.54h10.742v1.54H600.143z"/>
	<path fill="#45BF55" d="M607.383,2458.034c0.699-1.541,2-2.381,3.78-2.4v1.58c-2.221-0.04-3.601,1.34-3.78,3.421v5.601h-1.561
		v-10.542h1.561V2458.034z"/>
	<path fill="#45BF55" d="M622.344,2461.574h-8.602c0.28,2.061,1.78,3.361,3.82,3.361c1.301,0,2.44-0.46,3.261-1.32l0.86,0.92
		c-1,1.12-2.48,1.761-4.241,1.761c-3.101,0-5.24-2.181-5.24-5.321s2.16-5.321,5.221-5.321
		C620.823,2455.633,622.504,2457.994,622.344,2461.574z M620.943,2460.293c-0.1-2.021-1.46-3.301-3.521-3.301
		c-2,0-3.44,1.301-3.681,3.301H620.943z"/>
	<path fill="#45BF55" d="M634.664,2459.734v6.501h-1.561v-6.081c0-1.86-1.12-2.961-2.98-2.961c-2.081,0.021-3.361,1.381-3.541,3.381
		v5.661h-1.561v-10.542h1.561v2.32c0.74-1.601,2.16-2.36,4.081-2.38C633.184,2455.633,634.664,2457.193,634.664,2459.734z"/>
	<path fill="#45BF55" d="M647.824,2466.235h-1.561v-2.26c-0.78,1.479-2.221,2.34-4.101,2.34c-3.001,0-5.081-2.221-5.081-5.361
		c0-3.16,2.08-5.341,5.061-5.341c1.881,0,3.341,0.86,4.121,2.36v-6.581h1.561V2466.235z M646.264,2460.994
		c0-2.3-1.58-3.961-3.801-3.961c-2.24,0-3.821,1.661-3.821,3.961c0,2.281,1.581,3.921,3.821,3.921
		C644.684,2464.915,646.264,2463.275,646.264,2460.994z"/>
	<path fill="#45BF55" d="M657.883,2456.593l-0.601,1.24c-0.819-0.521-1.88-0.86-2.86-0.86c-1.18,0-2.08,0.42-2.08,1.4
		c0,2.341,5.881,1.141,5.881,4.921c0,2.08-1.84,3.001-3.86,3.001c-1.501,0-3.041-0.521-4.041-1.48l0.6-1.181
		c0.9,0.841,2.261,1.341,3.501,1.341s2.24-0.46,2.261-1.501c0.06-2.54-5.842-1.24-5.821-4.98c0-2.021,1.74-2.86,3.661-2.86
		C655.782,2455.633,657.003,2455.993,657.883,2456.593z"/>
	<path fill="#45BF55" d="M659.57,2471.403h-66.5c-0.257,0-0.466-0.209-0.466-0.466s0.209-0.466,0.466-0.466h66.5
		c0.257,0,0.466,0.209,0.466,0.466S659.827,2471.403,659.57,2471.403z"/>
	<path fill="#45BF55" d="M353.375,1630.192v-24.502h6.23v24.502H353.375z"/>
	<path fill="#45BF55" d="M403.741,1630.192l-11.271-15.086v15.086h-5.846v-24.502h5.495l11.307,15.121v-15.121h5.811v24.502H403.741
		z"/>
	<path fill="#45BF55" d="M427.365,1610.59v4.865h11.691v4.9h-11.691v4.936h13.336v4.9h-19.566v-24.502h19.182v4.9H427.365z"/>
	<path fill="#45BF55" d="M457.955,1610.59v4.865h11.691v4.9h-11.691v4.936h13.336v4.9h-19.566v-24.502h19.182v4.9H457.955z"/>
	<path fill="#45BF55" d="M492.851,1605.69c7.7,0,13.021,4.97,13.021,12.251c0,7.246-5.391,12.251-13.267,12.251h-10.291v-24.502
		H492.851z M488.545,1625.221h4.445c3.815,0,6.546-2.939,6.546-7.245c0-4.341-2.87-7.316-6.826-7.316h-4.165V1625.221z"/>
	<path fill="#45BF55" d="M542.62,1610.695v19.497h-6.23v-19.497h-7.315v-5.04h20.932v5.04H542.62z"/>
	<path fill="#45BF55" d="M583.292,1617.906c0,7.141-5.671,12.566-13.267,12.566c-7.561,0-13.231-5.391-13.231-12.566
		c0-7.141,5.671-12.426,13.231-12.426C577.621,1605.48,583.292,1610.8,583.292,1617.906z M563.165,1617.941
		c0,4.13,3.185,7.315,6.931,7.315c3.78,0,6.79-3.186,6.79-7.315c0-4.131-3.01-7.246-6.79-7.246
		C566.314,1610.695,563.165,1613.81,563.165,1617.941z"/>
	<path fill="#45BF55" d="M620.285,1605.69c5.495,0,8.995,2.38,8.995,6.125c0,2.591-1.61,4.655-4.2,5.391
		c3.08,0.596,5.04,3.011,5.04,6.196c0,4.165-3.64,6.79-9.415,6.79h-12.007v-24.502H620.285z M614.895,1615.491h5.04
		c1.82,0,2.976-0.98,2.976-2.556s-1.155-2.485-2.976-2.485h-5.04V1615.491z M614.895,1625.397h5.04c2.311,0,3.745-1.016,3.745-2.766
		c0-1.646-1.435-2.66-3.745-2.66h-5.04V1625.397z"/>
	<path fill="#45BF55" d="M646.954,1610.59v4.865h11.691v4.9h-11.691v4.936h13.337v4.9h-19.567v-24.502h19.182v4.9H646.954z"/>
	<path fill="#45BF55" d="M692.663,1610.59v5.67h10.991v4.901h-10.991v9.03h-6.23v-24.502H704.6v4.9H692.663z"/>
	<path fill="#45BF55" d="M714.572,1630.192v-24.502h6.23v24.502H714.572z"/>
	<path fill="#45BF55" d="M751.779,1608.14l-2.346,4.865c-2.59-1.505-5.846-2.556-7.841-2.556c-1.609,0-2.695,0.596-2.695,1.785
		c0,4.235,12.952,1.82,12.952,10.677c0,4.9-4.341,7.49-9.802,7.49c-4.095,0-8.296-1.54-11.201-3.92l2.416-4.796
		c2.52,2.205,6.3,3.676,8.855,3.676c1.96,0,3.186-0.735,3.186-2.136c0-4.34-12.951-1.75-12.951-10.431
		c0-4.516,3.885-7.386,9.766-7.386C745.653,1605.41,749.259,1606.495,751.779,1608.14z"/>
	<path fill="#45BF55" d="M783.595,1609.61l-3.605,4.271c-1.61-1.96-3.99-3.186-6.161-3.186c-3.885,0-6.825,3.081-6.825,7.106
		c0,4.095,2.94,7.21,6.825,7.21c2.065,0,4.445-1.12,6.161-2.87l3.641,3.851c-2.626,2.695-6.511,4.48-10.116,4.48
		c-7.386,0-12.882-5.426-12.882-12.602c0-7.07,5.636-12.391,13.092-12.391C777.364,1605.48,781.145,1607.089,783.595,1609.61z"/>
	<path fill="#45BF55" d="M798.782,1625.676l-1.785,4.516h-6.405l10.571-24.502h6.405l10.326,24.502h-6.65l-1.751-4.516H798.782z
		 M804.173,1611.885l-3.57,9.065h7.071L804.173,1611.885z"/>
	<path fill="#45BF55" d="M843.794,1624.977v5.215h-16.627v-24.502h6.23v19.287H843.794z"/>
	<path fill="#45BF55" d="M870.394,1624.977v5.215h-16.627v-24.502h6.23v19.287H870.394z"/>
	<path fill="#45BF55" d="M893.003,1630.192h-6.196v-7.735l-9.065-16.767h6.23l5.916,10.676l5.775-10.676h6.23l-8.891,16.592
		V1630.192z"/>
	<path fill="#45BF55" d="M440.157,1672.192v-24.502h6.23v24.502H440.157z"/>
	<path fill="#45BF55" d="M475.403,1672.192l-11.271-15.086v15.086h-5.846v-24.502h5.495l11.307,15.121v-15.121h5.811v24.502H475.403
		z"/>
	<path fill="#45BF55" d="M503.333,1647.69c7.7,0,13.021,4.97,13.021,12.251c0,7.246-5.391,12.251-13.267,12.251h-10.291v-24.502
		H503.333z M499.027,1667.221h4.445c3.815,0,6.546-2.939,6.546-7.245c0-4.341-2.87-7.316-6.826-7.316h-4.165V1667.221z"/>
	<path fill="#45BF55" d="M532.872,1652.59v4.865h11.691v4.9h-11.691v4.936h13.336v4.9h-19.566v-24.502h19.182v4.9H532.872z"/>
	<path fill="#45BF55" d="M567.907,1647.69c6.266,0,9.871,3.08,9.871,8.54c0,5.741-3.605,9.066-9.871,9.066h-4.445v6.896h-6.23
		v-24.502H567.907z M563.462,1660.396h4.131c2.729,0,4.305-1.365,4.305-3.955c0-2.556-1.575-3.851-4.305-3.851h-4.131V1660.396z"/>
	<path fill="#45BF55" d="M594.262,1652.59v4.865h11.691v4.9h-11.691v4.936h13.336v4.9h-19.566v-24.502h19.182v4.9H594.262z"/>
	<path fill="#45BF55" d="M635.737,1672.192l-11.271-15.086v15.086h-5.846v-24.502h5.495l11.307,15.121v-15.121h5.811v24.502H635.737
		z"/>
	<path fill="#45BF55" d="M663.667,1647.69c7.701,0,13.021,4.97,13.021,12.251c0,7.246-5.391,12.251-13.267,12.251h-10.291v-24.502
		H663.667z M659.361,1667.221h4.445c3.815,0,6.546-2.939,6.546-7.245c0-4.341-2.87-7.316-6.825-7.316h-4.166V1667.221z"/>
	<path fill="#45BF55" d="M693.206,1652.59v4.865h11.691v4.9h-11.691v4.936h13.337v4.9h-19.567v-24.502h19.182v4.9H693.206z"/>
	<path fill="#45BF55" d="M728.906,1652.695v19.497h-6.23v-19.497h-7.315v-5.04h20.932v5.04H728.906z"/>
	<path fill="#45BF55" d="M785.958,1659.906c0,7.141-5.671,12.566-13.267,12.566c-7.561,0-13.231-5.391-13.231-12.566
		c0-7.141,5.671-12.426,13.231-12.426C780.287,1647.48,785.958,1652.8,785.958,1659.906z M765.831,1659.941
		c0,4.13,3.186,7.315,6.931,7.315c3.78,0,6.791-3.186,6.791-7.315c0-4.131-3.011-7.246-6.791-7.246
		S765.831,1655.81,765.831,1659.941z"/>
	<path fill="#45BF55" d="M802.476,1652.59v5.67h10.991v4.901h-10.991v9.03h-6.23v-24.502h18.167v4.9H802.476z"/>
	<path fill="#45BF55" d="M494.444,1714.192l-0.035-15.927l-5.881,13.477h-4.061l-5.881-13.477v15.927h-5.565v-24.537h6.826
		l6.65,14.596l6.65-14.596h6.791v24.537H494.444z"/>
	<path fill="#45BF55" d="M524.508,1714.192h-6.195v-7.735l-9.066-16.767h6.23l5.916,10.676l5.775-10.676h6.23l-8.891,16.591
		V1714.192z"/>
	<path fill="#45BF55" d="M568.467,1689.69c6.266,0,9.871,3.08,9.871,8.54c0,5.741-3.605,9.066-9.871,9.066h-4.445v6.896h-6.23
		v-24.502H568.467z M564.021,1702.396h4.131c2.729,0,4.305-1.365,4.305-3.955c0-2.556-1.575-3.851-4.305-3.851h-4.131V1702.396z"/>
	<path fill="#45BF55" d="M592.337,1709.676l-1.785,4.516h-6.405l10.57-24.502h6.406l10.326,24.502h-6.651l-1.75-4.516H592.337z
		 M597.728,1695.885l-3.57,9.065h7.07L597.728,1695.885z"/>
	<path fill="#45BF55" d="M631.852,1707.297h-0.175h-4.726v6.896h-6.23v-24.502h10.956c6.476,0,10.187,3.08,10.187,8.54
		c0,3.746-1.575,6.441-4.445,7.876l5.146,8.086h-7.071L631.852,1707.297z M631.677,1702.396c2.695,0,4.271-1.365,4.271-3.955
		c0-2.556-1.575-3.851-4.271-3.851h-4.726v7.806H631.677z"/>
	<path fill="#45BF55" d="M659.291,1694.59v4.865h11.691v4.9h-11.691v4.936h13.337v4.9h-19.567v-24.502h19.182v4.9H659.291z"/>
	<path fill="#45BF55" d="M700.768,1714.192l-11.271-15.086v15.086h-5.846v-24.502h5.496l11.306,15.121v-15.121h5.811v24.502H700.768
		z"/>
	<path fill="#45BF55" d="M729.501,1694.695v19.497h-6.23v-19.497h-7.315v-5.04h20.932v5.04H729.501z"/>
	<path fill="#45BF55" d="M751.235,1692.525c0,0.91-0.314,1.646-0.77,2.311l-2.556,3.71h-2.87l1.575-3.71
		c-0.806-0.561-1.155-1.365-1.155-2.275c0-1.716,1.225-2.905,2.905-2.905C749.905,1689.655,751.235,1690.705,751.235,1692.525z"/>
	<path fill="#45BF55" d="M781.057,1692.14l-2.346,4.865c-2.59-1.505-5.846-2.556-7.841-2.556c-1.609,0-2.695,0.596-2.695,1.785
		c0,4.235,12.952,1.82,12.952,10.677c0,4.9-4.341,7.49-9.802,7.49c-4.095,0-8.296-1.54-11.201-3.92l2.416-4.796
		c2.52,2.205,6.3,3.676,8.855,3.676c1.96,0,3.186-0.735,3.186-2.136c0-4.341-12.951-1.75-12.951-10.431
		c0-4.516,3.885-7.386,9.766-7.386C774.931,1689.41,778.536,1690.495,781.057,1692.14z"/>
	<path fill="#45BF55" d="M412.885,188.917v-24.502h6.23v24.502H412.885z"/>
	<path fill="#45BF55" d="M463.251,188.917l-11.271-15.086v15.086h-5.846v-24.502h5.496l11.306,15.122v-15.122h5.811v24.502H463.251z
		"/>
	<path fill="#45BF55" d="M486.874,169.315v4.866h11.691v4.9h-11.691v4.936h13.337v4.9h-19.567v-24.502h19.183v4.9H486.874z"/>
	<path fill="#45BF55" d="M517.464,169.315v4.866h11.691v4.9h-11.691v4.936h13.337v4.9h-19.567v-24.502h19.183v4.9H517.464z"/>
	<path fill="#45BF55" d="M552.359,164.415c7.701,0,13.021,4.97,13.021,12.251c0,7.246-5.391,12.251-13.267,12.251h-10.291v-24.502
		H552.359z M548.054,183.946h4.446c3.815,0,6.545-2.94,6.545-7.246c0-4.34-2.87-7.316-6.825-7.316h-4.166V183.946z"/>
	<path fill="#45BF55" d="M596.354,184.401l-1.785,4.516h-6.405l10.571-24.502h6.405l10.326,24.502h-6.65l-1.75-4.516H596.354z
		 M601.744,170.61l-3.57,9.066h7.071L601.744,170.61z"/>
	<path fill="#45BF55" d="M630.968,169.315v5.67h10.991v4.901h-10.991v9.031h-6.23v-24.502h18.167v4.9H630.968z"/>
	<path fill="#45BF55" d="M669.504,183.702v5.215h-16.627v-24.502h6.23v19.287H669.504z"/>
	<path fill="#45BF55" d="M701.53,178.626c0,6.476-4.306,10.571-11.167,10.571c-6.896,0-11.306-4.096-11.306-10.571v-14.211h6.23
		v14.211c0,3.325,2.136,5.355,5.11,5.355c2.94,0,4.936-2.03,4.936-5.355v-14.211h6.196V178.626z"/>
	<path fill="#45BF55" d="M719.237,169.315v4.866h11.691v4.9h-11.691v4.936h13.337v4.9h-19.567v-24.502h19.182v4.9H719.237z"/>
	<path fill="#45BF55" d="M760.714,188.917l-11.271-15.086v15.086h-5.846v-24.502h5.496l11.306,15.122v-15.122h5.811v24.502H760.714z
		"/>
	<path fill="#45BF55" d="M799.459,168.335l-3.605,4.271c-1.61-1.96-3.99-3.186-6.161-3.186c-3.885,0-6.825,3.081-6.825,7.106
		c0,4.095,2.94,7.21,6.825,7.21c2.065,0,4.445-1.12,6.161-2.87l3.641,3.851c-2.626,2.695-6.511,4.48-10.116,4.48
		c-7.386,0-12.882-5.426-12.882-12.602c0-7.071,5.636-12.391,13.092-12.391C793.229,164.205,797.009,165.815,799.459,168.335z"/>
	<path fill="#45BF55" d="M815.557,169.315v4.866h11.691v4.9h-11.691v4.936h13.337v4.9h-19.567v-24.502h19.182v4.9H815.557z"/>
	<path fill="#45BF55" d="M479.735,211.42v19.497h-6.23V211.42h-7.315v-5.041h20.932v5.041H479.735z"/>
	<path fill="#45BF55" d="M520.407,218.631c0,7.141-5.671,12.566-13.267,12.566c-7.561,0-13.231-5.391-13.231-12.566
		c0-7.141,5.671-12.426,13.231-12.426C514.736,206.205,520.407,211.525,520.407,218.631z M500.28,218.666
		c0,4.13,3.185,7.316,6.931,7.316c3.78,0,6.79-3.186,6.79-7.316s-3.01-7.246-6.79-7.246
		C503.43,211.42,500.28,214.535,500.28,218.666z"/>
	<path fill="#45BF55" d="M557.4,206.415c5.495,0,8.995,2.38,8.995,6.125c0,2.59-1.609,4.655-4.2,5.391
		c3.08,0.595,5.041,3.01,5.041,6.196c0,4.165-3.641,6.791-9.416,6.791h-12.007v-24.502H557.4z M552.01,216.215h5.04
		c1.82,0,2.976-0.98,2.976-2.555s-1.155-2.485-2.976-2.485h-5.04V216.215z M552.01,226.122h5.04c2.311,0,3.745-1.015,3.745-2.765
		c0-1.646-1.435-2.661-3.745-2.661h-5.04V226.122z"/>
	<path fill="#45BF55" d="M584.069,211.315v4.866h11.691v4.9h-11.691v4.936h13.336v4.9h-19.566v-24.502h19.182v4.9H584.069z"/>
	<path fill="#45BF55" d="M639.93,230.917v-9.521h-10.151v9.521h-6.23v-24.502h6.23v10.081h10.151v-10.081h6.23v24.502H639.93z"/>
	<path fill="#45BF55" d="M663.623,226.401l-1.785,4.516h-6.405l10.571-24.502h6.405l10.326,24.502h-6.65l-1.751-4.516H663.623z
		 M669.014,212.61l-3.57,9.066h7.071L669.014,212.61z"/>
	<path fill="#45BF55" d="M702.684,206.415c6.266,0,9.871,3.08,9.871,8.541c0,5.741-3.605,9.066-9.871,9.066h-4.445v6.896h-6.23
		v-24.502H702.684z M698.238,219.121h4.131c2.73,0,4.306-1.365,4.306-3.955c0-2.556-1.575-3.851-4.306-3.851h-4.131V219.121z"/>
	<path fill="#45BF55" d="M733.483,206.415c6.266,0,9.871,3.08,9.871,8.541c0,5.741-3.605,9.066-9.871,9.066h-4.445v6.896h-6.23
		v-24.502H733.483z M729.038,219.121h4.131c2.73,0,4.306-1.365,4.306-3.955c0-2.556-1.575-3.851-4.306-3.851h-4.131V219.121z"/>
	<path fill="#45BF55" d="M766.244,230.917h-6.196v-7.736l-9.065-16.767h6.23l5.916,10.676l5.775-10.676h6.23l-8.891,16.592V230.917z
		"/>
	<path fill="#45BF55" d="M415.227,2079.361l-4.551-16.941l-4.62,16.941h-6.44l-8.017-24.502h6.651l4.795,18.026l4.69-18.026h6.091
		l4.796,18.026l4.726-18.026h6.37l-8.086,24.502H415.227z"/>
	<path fill="#45BF55" d="M455.301,2079.361v-9.521h-10.15v9.521h-6.231v-24.502h6.231v10.081h10.15v-10.081h6.23v24.502H455.301z"/>
	<path fill="#45BF55" d="M478.994,2074.845l-1.785,4.516h-6.405l10.571-24.502h6.405l10.326,24.502h-6.65l-1.75-4.516H478.994z
		 M484.385,2061.054l-3.57,9.065h7.071L484.385,2061.054z"/>
	<path fill="#45BF55" d="M516.095,2059.864v19.497h-6.23v-19.497h-7.315v-5.04h20.932v5.04H516.095z"/>
	<path fill="#45BF55" d="M569.4,2079.361l-4.551-16.941l-4.62,16.941h-6.44l-8.017-24.502h6.651l4.795,18.026l4.69-18.026H568
		l4.796,18.026l4.726-18.026h6.37l-8.086,24.502H569.4z"/>
	<path fill="#45BF55" d="M593.093,2079.361v-24.502h6.231v24.502H593.093z"/>
	<path fill="#45BF55" d="M627.85,2074.146v5.215h-16.627v-24.502h6.23v19.287H627.85z"/>
	<path fill="#45BF55" d="M654.45,2074.146v5.215h-16.627v-24.502h6.23v19.287H654.45z"/>
	<path fill="#45BF55" d="M679.543,2079.361v-24.502h6.23v24.502H679.543z"/>
	<path fill="#45BF55" d="M723.328,2054.859c7.701,0,13.021,4.97,13.021,12.251c0,7.246-5.391,12.251-13.267,12.251h-10.291v-24.502
		H723.328z M719.022,2074.39h4.445c3.815,0,6.546-2.939,6.546-7.245c0-4.341-2.87-7.316-6.825-7.316h-4.166V2074.39z"/>
	<path fill="#45BF55" d="M771.07,2067.075c0,7.141-5.671,12.566-13.267,12.566c-7.561,0-13.231-5.391-13.231-12.566
		c0-7.141,5.671-12.426,13.231-12.426C765.399,2054.649,771.07,2059.969,771.07,2067.075z M750.943,2067.11
		c0,4.13,3.186,7.315,6.931,7.315c3.78,0,6.791-3.186,6.791-7.315c0-4.131-3.011-7.246-6.791-7.246
		S750.943,2062.979,750.943,2067.11z"/>
	<path fill="#45BF55" d="M807.818,2059.864v19.497h-6.23v-19.497h-7.315v-5.04h20.932v5.04H807.818z"/>
	<path fill="#45BF55" d="M848.49,2067.075c0,7.141-5.671,12.566-13.267,12.566c-7.561,0-13.231-5.391-13.231-12.566
		c0-7.141,5.671-12.426,13.231-12.426C842.819,2054.649,848.49,2059.969,848.49,2067.075z M828.363,2067.11
		c0,4.13,3.186,7.315,6.931,7.315c3.78,0,6.791-3.186,6.791-7.315c0-4.131-3.011-7.246-6.791-7.246
		S828.363,2062.979,828.363,2067.11z"/>
	<path fill="#45BF55" d="M489.723,2101.759v5.67h10.991v4.901h-10.991v9.03h-6.23v-24.502h18.167v4.9H489.723z"/>
	<path fill="#45BF55" d="M536.52,2109.075c0,7.141-5.671,12.566-13.267,12.566c-7.561,0-13.231-5.391-13.231-12.566
		c0-7.141,5.671-12.426,13.231-12.426C530.849,2096.649,536.52,2101.969,536.52,2109.075z M516.393,2109.11
		c0,4.13,3.185,7.315,6.931,7.315c3.78,0,6.79-3.186,6.79-7.315c0-4.131-3.01-7.246-6.79-7.246S516.393,2104.979,516.393,2109.11z"
		/>
	<path fill="#45BF55" d="M557.938,2114.465h-0.175h-4.726v6.896h-6.23v-24.502h10.956c6.476,0,10.186,3.08,10.186,8.54
		c0,3.746-1.575,6.441-4.445,7.876l5.146,8.086h-7.07L557.938,2114.465z M557.763,2109.565c2.695,0,4.271-1.365,4.271-3.955
		c0-2.556-1.575-3.851-4.271-3.851h-4.726v7.806H557.763z"/>
	<path fill="#45BF55" d="M590.487,2101.864v19.497h-6.23v-19.497h-7.315v-5.04h20.932v5.04H590.487z"/>
	<path fill="#45BF55" d="M607.531,2121.361v-24.502h6.23v24.502H607.531z"/>
	<path fill="#45BF55" d="M631.892,2101.759v5.67h10.991v4.901h-10.991v9.03h-6.23v-24.502h18.167v4.9H631.892z"/>
	<path fill="#45BF55" d="M666.438,2121.361h-6.196v-7.735l-9.065-16.767h6.23l5.916,10.676l5.775-10.676h6.23l-8.891,16.592
		V2121.361z"/>
	<path fill="#45BF55" d="M721.142,2121.361l-0.034-15.927l-5.881,13.477h-4.061l-5.881-13.477v15.927h-5.565v-24.537h6.826
		l6.65,14.597l6.65-14.597h6.791v24.537H721.142z"/>
	<path fill="#45BF55" d="M751.206,2121.361h-6.196v-7.735l-9.065-16.767h6.23l5.916,10.676l5.775-10.676h6.23l-8.891,16.592
		V2121.361z"/>
	<path fill="#45BF55" d="M428.946,2163.361l-4.551-16.941l-4.62,16.941h-6.44l-8.017-24.502h6.651l4.795,18.026l4.69-18.026h6.091
		l4.796,18.026l4.726-18.026h6.37l-8.086,24.502H428.946z"/>
	<path fill="#45BF55" d="M458.87,2143.759v4.865h11.69v4.9h-11.69v4.936h13.336v4.9h-19.567v-24.502h19.183v4.9H458.87z"/>
	<path fill="#45BF55" d="M488.794,2158.845l-1.785,4.516h-6.405l10.571-24.502h6.405l10.326,24.502h-6.65l-1.75-4.516H488.794z
		 M494.185,2145.054l-3.57,9.065h7.071L494.185,2145.054z"/>
	<path fill="#45BF55" d="M526.664,2153.735l-3.255,3.605v6.021h-6.231v-24.502h6.231v10.605l9.381-10.605H540l-9.101,10.15
		l9.696,14.352h-7.456L526.664,2153.735z"/>
	<path fill="#45BF55" d="M556.554,2143.759v4.865h11.691v4.9h-11.691v4.936h13.336v4.9h-19.566v-24.502h19.182v4.9H556.554z"/>
	<path fill="#45BF55" d="M598.029,2163.361l-11.271-15.086v15.086h-5.846v-24.502h5.495l11.307,15.121v-15.121h5.811v24.502H598.029
		z"/>
	<path fill="#45BF55" d="M621.653,2143.759v4.865h11.691v4.9h-11.691v4.936h13.337v4.9h-19.567v-24.502h19.182v4.9H621.653z"/>
	<path fill="#45BF55" d="M656.549,2138.859c7.701,0,13.021,4.97,13.021,12.251c0,7.245-5.391,12.251-13.267,12.251h-10.291v-24.502
		H656.549z M652.243,2158.39h4.445c3.815,0,6.546-2.94,6.546-7.245c0-4.341-2.87-7.316-6.825-7.316h-4.166V2158.39z"/>
	<path fill="#45BF55" d="M694.978,2163.361v-24.502h6.23v24.502H694.978z"/>
	<path fill="#45BF55" d="M730.225,2163.361l-11.271-15.086v15.086h-5.846v-24.502h5.496l11.306,15.121v-15.121h5.811v24.502H730.225
		z"/>
	<path fill="#45BF55" d="M764.734,2163.361l-11.271-15.086v15.086h-5.846v-24.502h5.496l11.306,15.121v-15.121h5.811v24.502H764.734
		z"/>
	<path fill="#45BF55" d="M788.357,2143.759v4.865h11.691v4.9h-11.691v4.936h13.337v4.9h-19.567v-24.502h19.182v4.9H788.357z"/>
	<path fill="#45BF55" d="M823.848,2156.465h-0.175h-4.726v6.896h-6.23v-24.502h10.956c6.476,0,10.187,3.08,10.187,8.54
		c0,3.746-1.575,6.441-4.445,7.876l5.146,8.086h-7.071L823.848,2156.465z M823.673,2151.565c2.695,0,4.271-1.365,4.271-3.955
		c0-2.556-1.575-3.851-4.271-3.851h-4.726v7.806H823.673z"/>
	<path fill="#45BF55" d="M482.27,2184.779l-3.605,4.271c-1.61-1.96-3.991-3.186-6.161-3.186c-3.886,0-6.825,3.08-6.825,7.105
		c0,4.096,2.939,7.211,6.825,7.211c2.065,0,4.445-1.12,6.161-2.87l3.64,3.851c-2.625,2.695-6.511,4.48-10.115,4.48
		c-7.387,0-12.882-5.426-12.882-12.602c0-7.07,5.636-12.392,13.092-12.392C476.038,2180.648,479.818,2182.258,482.27,2184.779z"/>
	<path fill="#45BF55" d="M516.604,2193.075c0,7.141-5.671,12.566-13.267,12.566c-7.561,0-13.231-5.391-13.231-12.566
		c0-7.141,5.671-12.427,13.231-12.427C510.934,2180.648,516.604,2185.969,516.604,2193.075z M496.478,2193.11
		c0,4.13,3.185,7.315,6.931,7.315c3.78,0,6.79-3.186,6.79-7.315c0-4.131-3.01-7.246-6.79-7.246S496.478,2188.979,496.478,2193.11z"
		/>
	<path fill="#45BF55" d="M544.008,2205.361l-11.271-15.087v15.087h-5.846v-24.503h5.495l11.307,15.122v-15.122h5.811v24.503H544.008
		z"/>
	<path fill="#45BF55" d="M567.632,2185.758v5.671h10.991v4.9h-10.991v9.031h-6.23v-24.503h18.167v4.9H567.632z"/>
	<path fill="#45BF55" d="M589.541,2205.361v-24.503h6.23v24.503H589.541z"/>
	<path fill="#45BF55" d="M618.207,2180.858c7.701,0,13.021,4.971,13.021,12.252c0,7.245-5.391,12.251-13.267,12.251h-10.291v-24.503
		H618.207z M613.901,2200.39h4.445c3.815,0,6.546-2.94,6.546-7.245c0-4.341-2.87-7.316-6.826-7.316h-4.165V2200.39z"/>
	<path fill="#45BF55" d="M647.746,2185.758v4.866h11.691v4.9h-11.691v4.936h13.337v4.9h-19.567v-24.503h19.182v4.9H647.746z"/>
	<path fill="#45BF55" d="M689.223,2205.361l-11.271-15.087v15.087h-5.846v-24.503h5.496l11.306,15.122v-15.122h5.811v24.503H689.223
		z"/>
	<path fill="#45BF55" d="M727.968,2184.779l-3.605,4.271c-1.61-1.96-3.99-3.186-6.161-3.186c-3.885,0-6.825,3.08-6.825,7.105
		c0,4.096,2.94,7.211,6.825,7.211c2.065,0,4.445-1.12,6.161-2.87l3.641,3.851c-2.626,2.695-6.511,4.48-10.116,4.48
		c-7.386,0-12.882-5.426-12.882-12.602c0-7.07,5.636-12.392,13.092-12.392C721.737,2180.648,725.518,2182.258,727.968,2184.779z"/>
	<path fill="#45BF55" d="M744.065,2185.758v4.866h11.691v4.9h-11.691v4.936h13.337v4.9h-19.567v-24.503h19.182v4.9H744.065z"/>
	<path fill="#45BF55" d="M766.08,2188.699c0.069-5.005,3.045-7.945,7.98-7.945c4.655,0,7.525,2.17,7.525,6.091
		c0,5.32-5.355,5.95-5.355,10.15h-4.516c0-5.425,4.306-5.705,4.306-9.171c0-1.575-0.945-2.275-2.521-2.275
		c-1.75,0-2.729,1.016-2.765,3.186L766.08,2188.699z M776.826,2202.701c0,1.75-1.226,2.94-2.94,2.94c-1.716,0-2.905-1.19-2.905-2.94
		c0-1.715,1.189-2.905,2.905-2.905C775.601,2199.795,776.826,2200.986,776.826,2202.701z"/>
	<path fill="#45BF55" d="M598.803,45.066l-0.68,1.5c-1.261-0.84-2.74-1.181-3.861-1.181c-1.801,0-2.98,0.68-2.98,1.861
		c0,3.601,7.882,1.72,7.861,6.801c0,2.34-2.061,3.841-5.061,3.841c-2.041,0-4.041-0.88-5.361-2.141l0.721-1.44
		c1.3,1.261,3.08,1.98,4.66,1.98c2.021,0,3.281-0.82,3.281-2.16c0.02-3.681-7.861-1.721-7.861-6.742c0-2.2,1.939-3.621,4.84-3.621
		C595.982,43.766,597.643,44.286,598.803,45.066z"/>
	<path fill="#45BF55" d="M611.343,57.829h-1.561v-2.38c-0.7,1.64-2.101,2.42-4.001,2.44c-2.461,0-3.94-1.561-3.94-4.101v-6.501h1.56
		v6.082c0,1.86,1.101,2.96,2.922,2.96c2.18-0.04,3.46-1.62,3.46-3.861v-5.181h1.561V57.829z"/>
	<path fill="#45BF55" d="M623.362,48.807l-0.86,1.1c-0.8-0.76-1.86-1.22-3.141-1.22c-2.18,0-3.74,1.581-3.74,3.881
		c0,2.301,1.561,3.901,3.74,3.901c1.381,0,2.521-0.48,3.261-1.36l0.9,0.96c-0.94,1.14-2.4,1.82-4.221,1.82
		c-3.062,0-5.222-2.181-5.222-5.321s2.181-5.321,5.222-5.321C621.002,47.227,622.402,47.807,623.362,48.807z"/>
	<path fill="#45BF55" d="M634.082,48.807l-0.859,1.1c-0.801-0.76-1.861-1.22-3.142-1.22c-2.181,0-3.741,1.581-3.741,3.881
		c0,2.301,1.561,3.901,3.741,3.901c1.38,0,2.521-0.48,3.261-1.36l0.9,0.96c-0.94,1.14-2.4,1.82-4.221,1.82
		c-3.061,0-5.221-2.181-5.221-5.321s2.18-5.321,5.221-5.321C631.722,47.227,633.122,47.807,634.082,48.807z"/>
	<path fill="#45BF55" d="M645.662,53.168h-8.602c0.28,2.061,1.78,3.361,3.82,3.361c1.301,0,2.441-0.46,3.262-1.32l0.859,0.92
		c-1,1.12-2.48,1.76-4.24,1.76c-3.102,0-5.241-2.181-5.241-5.321s2.16-5.321,5.222-5.321
		C644.143,47.227,645.822,49.587,645.662,53.168z M644.262,51.887c-0.1-2.021-1.46-3.301-3.52-3.301c-2.001,0-3.441,1.3-3.682,3.301
		H644.262z"/>
	<path fill="#45BF55" d="M654.502,48.187l-0.601,1.24c-0.819-0.52-1.88-0.86-2.86-0.86c-1.18,0-2.08,0.42-2.08,1.4
		c0,2.341,5.881,1.141,5.881,4.921c0,2.08-1.84,3-3.861,3c-1.5,0-3.04-0.52-4.041-1.48l0.601-1.18c0.9,0.84,2.261,1.34,3.501,1.34
		s2.24-0.46,2.26-1.5c0.061-2.541-5.841-1.24-5.82-4.981c0-2.021,1.74-2.86,3.66-2.86C652.401,47.227,653.621,47.587,654.502,48.187
		z"/>
	<path fill="#45BF55" d="M663.561,48.187l-0.6,1.24c-0.82-0.52-1.881-0.86-2.86-0.86c-1.181,0-2.081,0.42-2.081,1.4
		c0,2.341,5.882,1.141,5.882,4.921c0,2.08-1.841,3-3.86,3c-1.501,0-3.041-0.52-4.041-1.48l0.6-1.18c0.9,0.84,2.261,1.34,3.501,1.34
		s2.24-0.46,2.261-1.5c0.06-2.541-5.842-1.24-5.822-4.981c0-2.021,1.741-2.86,3.662-2.86
		C661.461,47.227,662.682,47.587,663.561,48.187z"/>
	<path fill="#45BF55" d="M664.653,63.03h-76.666c-0.276,0-0.5-0.224-0.5-0.5s0.224-0.5,0.5-0.5h76.666c0.276,0,0.5,0.224,0.5,0.5
		S664.93,63.03,664.653,63.03z"/>
	<path fill="#45BF55" d="M612.178,370.478v9.972h-1.279v-9.972h-3.65v-1.232h8.596v1.232H612.178z"/>
	<path fill="#45BF55" d="M624.404,375.248v5.202h-1.248v-4.866c0-1.489-0.896-2.369-2.386-2.369
		c-1.792,0.016-2.849,1.28-2.849,3.089v4.146h-1.249v-11.877h1.249v5.33c0.576-1.312,1.729-1.92,3.281-1.937
		C623.22,371.967,624.404,373.215,624.404,375.248z"/>
	<path fill="#45BF55" d="M634.451,376.721h-6.883c0.225,1.648,1.425,2.689,3.058,2.689c1.04,0,1.953-0.368,2.609-1.056l0.688,0.736
		c-0.801,0.896-1.985,1.408-3.394,1.408c-2.481,0-4.194-1.745-4.194-4.257c0-2.513,1.729-4.258,4.178-4.258
		C633.235,371.967,634.58,373.856,634.451,376.721z M633.331,375.696c-0.08-1.617-1.169-2.641-2.817-2.641
		c-1.6,0-2.753,1.041-2.945,2.641H633.331z"/>
	<path fill="#45BF55" d="M644.309,375.248v5.202h-1.249v-4.866c0-1.489-0.896-2.369-2.386-2.369
		c-1.664,0.016-2.688,1.104-2.832,2.705v4.53h-1.249v-8.436h1.249v1.857c0.592-1.281,1.729-1.889,3.266-1.905
		C643.123,371.967,644.309,373.215,644.309,375.248z"/>
	<path fill="#45BF55" d="M517.691,670.469v-24.502h6.23v24.502H517.691z"/>
	<path fill="#45BF55" d="M547.162,650.972v19.497h-6.23v-19.497h-7.315v-5.041h20.932v5.041H547.162z"/>
	<path fill="#45BF55" d="M568.896,648.802c0,0.91-0.315,1.646-0.771,2.311l-2.555,3.71h-2.87l1.574-3.71
		c-0.805-0.56-1.154-1.365-1.154-2.275c0-1.715,1.225-2.905,2.905-2.905C567.566,645.932,568.896,646.982,568.896,648.802z"/>
	<path fill="#45BF55" d="M596.268,665.254v5.215h-16.627v-24.502h6.23v19.287H596.268z"/>
	<path fill="#45BF55" d="M622.867,665.254v5.215H606.24v-24.502h6.23v19.287H622.867z"/>
	<path fill="#45BF55" d="M653.525,665.954l-1.785,4.516h-6.405l10.571-24.502h6.405l10.326,24.502h-6.65l-1.751-4.516H653.525z
		 M658.916,652.162l-3.57,9.066h7.071L658.916,652.162z"/>
	<path fill="#45BF55" d="M698.536,665.254v5.215h-16.627v-24.502h6.23v19.287H698.536z"/>
	<path fill="#45BF55" d="M725.137,665.254v5.215H708.51v-24.502h6.23v19.287H725.137z"/>
	<path fill="#45BF55" d="M501.803,704.524c0,5.215-3.255,8.226-8.471,8.226c-3.466,0-6.266-1.436-8.436-3.921l2.87-4.165
		c1.75,1.82,3.71,2.73,5.146,2.73c1.645,0,2.625-1.015,2.625-3.01v-11.411h-8.4v-5.041h14.666V704.524z"/>
	<path fill="#45BF55" d="M535.333,702.178c0,6.476-4.305,10.571-11.166,10.571c-6.896,0-11.306-4.096-11.306-10.571v-14.211h6.23
		v14.211c0,3.325,2.135,5.355,5.11,5.355c2.94,0,4.936-2.03,4.936-5.355v-14.211h6.195V702.178z"/>
	<path fill="#45BF55" d="M565.888,690.417l-2.345,4.865c-2.591-1.505-5.846-2.555-7.841-2.555c-1.61,0-2.695,0.595-2.695,1.785
		c0,4.235,12.951,1.82,12.951,10.676c0,4.9-4.341,7.491-9.801,7.491c-4.096,0-8.296-1.54-11.201-3.92l2.415-4.795
		c2.521,2.205,6.301,3.675,8.855,3.675c1.961,0,3.186-0.735,3.186-2.135c0-4.34-12.951-1.75-12.951-10.431
		c0-4.515,3.886-7.386,9.766-7.386C559.762,687.687,563.367,688.772,565.888,690.417z"/>
	<path fill="#45BF55" d="M587.692,692.972v19.497h-6.231v-19.497h-7.315v-5.041h20.933v5.041H587.692z"/>
	<path fill="#45BF55" d="M640.997,712.469l-4.551-16.942l-4.62,16.942h-6.44l-8.016-24.502h6.65l4.796,18.027l4.69-18.027h6.09
		l4.796,18.027l4.726-18.027h6.371l-8.086,24.502H640.997z"/>
	<path fill="#45BF55" d="M689.508,700.183c0,7.141-5.671,12.566-13.267,12.566c-7.561,0-13.231-5.391-13.231-12.566
		c0-7.141,5.671-12.426,13.231-12.426C683.837,687.757,689.508,693.077,689.508,700.183z M669.381,700.218
		c0,4.13,3.186,7.316,6.931,7.316c3.78,0,6.791-3.186,6.791-7.316s-3.011-7.246-6.791-7.246S669.381,696.088,669.381,700.218z"/>
	<path fill="#45BF55" d="M710.926,705.574h-0.175h-4.726v6.896h-6.23v-24.502h10.956c6.476,0,10.187,3.08,10.187,8.541
		c0,3.746-1.575,6.441-4.445,7.876l5.146,8.086h-7.071L710.926,705.574z M710.751,700.673c2.695,0,4.271-1.365,4.271-3.955
		c0-2.556-1.575-3.851-4.271-3.851h-4.726v7.806H710.751z"/>
	<path fill="#45BF55" d="M741.621,702.843l-3.256,3.605v6.021h-6.23v-24.502h6.23v10.606l9.381-10.606h7.211l-9.101,10.151
		l9.696,14.352h-7.456L741.621,702.843z"/>
	<path fill="#45BF55" d="M489.604,754.469v-24.502h6.23v24.502H489.604z"/>
	<path fill="#45BF55" d="M519.075,734.972v19.497h-6.23v-19.497h-7.315v-5.041h20.932v5.041H519.075z"/>
	<path fill="#45BF55" d="M555.196,732.417l-2.346,4.865c-2.59-1.505-5.846-2.555-7.841-2.555c-1.61,0-2.695,0.595-2.695,1.785
		c0,4.235,12.951,1.82,12.951,10.677c0,4.9-4.34,7.49-9.801,7.49c-4.096,0-8.296-1.54-11.201-3.92l2.415-4.796
		c2.521,2.205,6.301,3.676,8.856,3.676c1.96,0,3.186-0.735,3.186-2.136c0-4.341-12.952-1.75-12.952-10.431
		c0-4.515,3.886-7.386,9.767-7.386C549.07,729.687,552.676,730.772,555.196,732.417z"/>
	<path fill="#45BF55" d="M571.889,734.867v4.866h11.691v4.9h-11.691v4.936h13.337v4.9h-19.567v-24.502h19.183v4.9H571.889z"/>
	<path fill="#45BF55" d="M612.875,749.254v5.216h-16.627v-24.502h6.23v19.287H612.875z"/>
	<path fill="#45BF55" d="M629.079,734.867v5.67h10.991v4.9h-10.991v9.031h-6.23v-24.502h18.166v4.9H629.079z"/>
	<path fill="#45BF55" d="M690.995,742.183c0,7.141-5.671,12.566-13.267,12.566c-7.561,0-13.231-5.391-13.231-12.566
		c0-7.141,5.671-12.426,13.231-12.426C685.324,729.757,690.995,735.077,690.995,742.183z M670.868,742.218
		c0,4.13,3.186,7.315,6.931,7.315c3.78,0,6.791-3.186,6.791-7.315c0-4.131-3.011-7.246-6.791-7.246S670.868,738.088,670.868,742.218
		z"/>
	<path fill="#45BF55" d="M723.335,744.178c0,6.476-4.306,10.571-11.167,10.571c-6.896,0-11.306-4.096-11.306-10.571v-14.211h6.23
		v14.211c0,3.325,2.136,5.355,5.11,5.355c2.94,0,4.936-2.03,4.936-5.355v-14.211h6.196V744.178z"/>
	<path fill="#45BF55" d="M746.153,734.972v19.497h-6.23v-19.497h-7.315v-5.041h20.932v5.041H746.153z"/>
	<path fill="#45BF55" d="M580.393,541.918v12.463h-1.6v-12.463h-4.562v-1.54h10.742v1.54H580.393z"/>
	<path fill="#45BF55" d="M595.674,547.88v6.501h-1.561v-6.082c0-1.86-1.12-2.96-2.98-2.96c-2.24,0.02-3.561,1.601-3.561,3.861v5.181
		h-1.561v-14.843h1.561v6.662c0.72-1.641,2.16-2.4,4.101-2.42C594.193,543.779,595.674,545.339,595.674,547.88z"/>
	<path fill="#45BF55" d="M608.233,549.72h-8.602c0.28,2.061,1.78,3.361,3.82,3.361c1.301,0,2.441-0.46,3.261-1.32l0.86,0.92
		c-1,1.12-2.48,1.76-4.24,1.76c-3.102,0-5.241-2.181-5.241-5.321s2.16-5.321,5.221-5.321
		C606.713,543.779,608.394,546.139,608.233,549.72z M606.833,548.44c-0.1-2.021-1.46-3.301-3.521-3.301c-2,0-3.44,1.3-3.681,3.301
		H606.833z"/>
	<path fill="#45BF55" d="M618.212,541.918v4.921h6.541v1.54h-6.541v6.001h-1.601v-14.003h8.902v1.54H618.212z"/>
	<path fill="#45BF55" d="M636.793,554.381h-1.561v-2.38c-0.7,1.64-2.101,2.42-4.001,2.44c-2.46,0-3.94-1.561-3.94-4.101v-6.501
		h1.561v6.082c0,1.86,1.1,2.96,2.921,2.96c2.18-0.04,3.46-1.62,3.46-3.861v-5.181h1.561V554.381z"/>
	<path fill="#45BF55" d="M646.032,553.661c-0.74,0.5-1.541,0.78-2.381,0.8c-1.54,0-2.681-0.92-2.681-3v-6.021h-1.521v-1.26h1.521
		v-2.781h1.54v2.781l3.341-0.02v1.28h-3.341v5.741c0,1.28,0.5,1.76,1.4,1.76c0.54,0,1.101-0.18,1.681-0.54L646.032,553.661z"/>
	<path fill="#45BF55" d="M657.533,554.381h-1.561v-2.38c-0.7,1.64-2.101,2.42-4.001,2.44c-2.461,0-3.94-1.561-3.94-4.101v-6.501
		h1.56v6.082c0,1.86,1.101,2.96,2.921,2.96c2.181-0.04,3.461-1.62,3.461-3.861v-5.181h1.561V554.381z"/>
	<path fill="#45BF55" d="M662.892,546.179c0.7-1.541,2-2.38,3.78-2.4v1.58c-2.221-0.04-3.601,1.34-3.78,3.421v5.601h-1.561v-10.542
		h1.561V546.179z"/>
	<path fill="#45BF55" d="M677.853,549.72h-8.603c0.28,2.061,1.781,3.361,3.821,3.361c1.3,0,2.44-0.46,3.261-1.32l0.86,0.92
		c-1.001,1.12-2.48,1.76-4.241,1.76c-3.101,0-5.241-2.181-5.241-5.321s2.16-5.321,5.222-5.321
		C676.332,543.779,678.013,546.139,677.853,549.72z M676.452,548.44c-0.101-2.021-1.461-3.301-3.521-3.301
		c-2.001,0-3.441,1.3-3.682,3.301H676.452z"/>
	<path fill="#45BF55" d="M678.32,559.665h-104c-0.321,0-0.582-0.261-0.582-0.583s0.261-0.583,0.582-0.583h104
		c0.321,0,0.582,0.261,0.582,0.583S678.642,559.665,678.32,559.665z"/>
	<path fill="#45BF55" d="M612.179,867.031v9.972h-1.28v-9.972h-3.649v-1.232h8.596v1.232H612.179z"/>
	<path fill="#45BF55" d="M624.404,871.801v5.202h-1.248v-4.866c0-1.489-0.896-2.369-2.385-2.369c-1.793,0.016-2.85,1.28-2.85,3.089
		v4.146h-1.248v-11.877h1.248v5.33c0.576-1.312,1.729-1.92,3.281-1.937C623.221,868.52,624.404,869.768,624.404,871.801z"/>
	<path fill="#45BF55" d="M634.452,873.274h-6.883c0.225,1.648,1.425,2.689,3.058,2.689c1.04,0,1.953-0.368,2.609-1.056l0.688,0.736
		c-0.8,0.896-1.984,1.408-3.393,1.408c-2.481,0-4.194-1.745-4.194-4.257c0-2.513,1.729-4.258,4.178-4.258
		C633.236,868.52,634.58,870.408,634.452,873.274z M633.332,872.249c-0.08-1.617-1.169-2.641-2.817-2.641
		c-1.601,0-2.753,1.041-2.945,2.641H633.332z"/>
	<path fill="#45BF55" d="M644.309,871.801v5.202h-1.248v-4.866c0-1.489-0.896-2.369-2.386-2.369
		c-1.664,0.016-2.688,1.104-2.833,2.705v4.53h-1.248v-8.436h1.248v1.857c0.593-1.281,1.729-1.889,3.266-1.905
		C643.124,868.52,644.309,869.768,644.309,871.801z"/>
	<path fill="#45BF55" d="M612.178,1843.754v9.972h-1.279v-9.972h-3.65v-1.232h8.596v1.232H612.178z"/>
	<path fill="#45BF55" d="M624.404,1848.523v5.202h-1.248v-4.865c0-1.489-0.896-2.369-2.386-2.369
		c-1.792,0.016-2.849,1.28-2.849,3.089v4.146h-1.249v-11.877h1.249v5.33c0.576-1.312,1.729-1.92,3.281-1.937
		C623.22,1845.242,624.404,1846.491,624.404,1848.523z"/>
	<path fill="#45BF55" d="M634.451,1849.996h-6.883c0.225,1.648,1.425,2.689,3.058,2.689c1.04,0,1.953-0.368,2.609-1.057l0.688,0.736
		c-0.801,0.896-1.985,1.408-3.394,1.408c-2.481,0-4.194-1.744-4.194-4.257c0-2.514,1.729-4.258,4.178-4.258
		C633.235,1845.242,634.58,1847.13,634.451,1849.996z M633.331,1848.971c-0.08-1.616-1.169-2.641-2.817-2.641
		c-1.6,0-2.753,1.04-2.945,2.641H633.331z"/>
	<path fill="#45BF55" d="M644.309,1848.523v5.202h-1.249v-4.865c0-1.489-0.896-2.369-2.386-2.369
		c-1.664,0.016-2.688,1.104-2.832,2.705v4.529h-1.249v-8.436h1.249v1.857c0.592-1.281,1.729-1.889,3.266-1.905
		C643.123,1845.242,644.309,1846.491,644.309,1848.523z"/>
	<path fill="#45BF55" d="M563.803,1943.477c4.08,0,7.201,3.021,7.201,7.001c0,3.981-3.141,7.002-7.262,7.002h-5.601v-14.003H563.803
		z M559.741,1955.96h4.081c3.121,0,5.562-2.341,5.562-5.461c0-3.141-2.48-5.481-5.621-5.481h-4.021V1955.96z"/>
	<path fill="#45BF55" d="M582.783,1952.819h-8.603c0.28,2.061,1.78,3.36,3.821,3.36c1.3,0,2.44-0.46,3.261-1.32l0.86,0.921
		c-1.001,1.12-2.48,1.76-4.241,1.76c-3.101,0-5.241-2.181-5.241-5.321s2.16-5.32,5.222-5.32
		C581.263,1946.878,582.943,1949.238,582.783,1952.819z M581.383,1951.539c-0.101-2.021-1.461-3.301-3.521-3.301
		c-2.001,0-3.441,1.3-3.682,3.301H581.383z"/>
	<path fill="#45BF55" d="M594.543,1952.819h-8.603c0.28,2.061,1.78,3.36,3.821,3.36c1.3,0,2.44-0.46,3.261-1.32l0.86,0.921
		c-1.001,1.12-2.48,1.76-4.241,1.76c-3.101,0-5.241-2.181-5.241-5.321s2.16-5.32,5.222-5.32
		C593.022,1946.878,594.703,1949.238,594.543,1952.819z M593.143,1951.539c-0.101-2.021-1.461-3.301-3.521-3.301
		c-2.001,0-3.441,1.3-3.682,3.301H593.143z"/>
	<path fill="#45BF55" d="M608.003,1952.239c0,3.12-2.04,5.301-5.021,5.301c-1.881,0-3.321-0.86-4.102-2.32v6.142h-1.56v-14.424h1.56
		v2.281c0.78-1.48,2.221-2.341,4.062-2.341C605.923,1946.878,608.003,1949.078,608.003,1952.239z M606.423,1952.199
		c0-2.261-1.561-3.921-3.761-3.921c-2.221,0-3.781,1.641-3.781,3.921c0,2.301,1.561,3.921,3.781,3.921
		C604.862,1956.12,606.423,1954.479,606.423,1952.199z"/>
	<path fill="#45BF55" d="M620.701,1945.017v12.463h-1.6v-12.463h-4.562v-1.54h10.742v1.54H620.701z"/>
	<path fill="#45BF55" d="M635.982,1950.978v6.502h-1.561v-6.082c0-1.86-1.12-2.96-2.98-2.96c-2.24,0.02-3.561,1.601-3.561,3.86
		v5.182h-1.561v-14.844h1.561v6.662c0.72-1.641,2.16-2.4,4.101-2.421C634.502,1946.878,635.982,1948.438,635.982,1950.978z"/>
	<path fill="#45BF55" d="M649.082,1952.199c0,3.16-2.221,5.341-5.341,5.341c-3.121,0-5.341-2.181-5.341-5.341
		c0-3.141,2.22-5.301,5.341-5.301C646.861,1946.898,649.082,1949.058,649.082,1952.199z M639.96,1952.218
		c0,2.321,1.581,3.921,3.781,3.921s3.78-1.6,3.78-3.921c0-2.3-1.58-3.9-3.78-3.9S639.96,1949.919,639.96,1952.218z"/>
	<path fill="#45BF55" d="M660.962,1957.48h-1.561v-2.381c-0.7,1.641-2.101,2.421-4.001,2.44c-2.46,0-3.94-1.561-3.94-4.101v-6.502
		h1.561v6.082c0,1.86,1.1,2.96,2.921,2.96c2.18-0.04,3.46-1.62,3.46-3.86v-5.182h1.561V1957.48z"/>
	<path fill="#45BF55" d="M673.942,1956.38c0,3.081-2.101,5.021-5.302,5.021c-1.66-0.021-3.04-0.561-4.32-1.521l0.72-1.2
		c1.04,0.86,2.141,1.32,3.541,1.34c2.3,0,3.801-1.4,3.801-3.601v-1.601c-0.74,1.4-2.101,2.201-3.881,2.201
		c-2.841,0-4.801-2.101-4.801-5.102c0-2.94,1.94-5.021,4.761-5.041c1.8,0,3.16,0.8,3.921,2.2v-2.141h1.561V1956.38z
		 M672.382,1951.979c0-2.201-1.501-3.741-3.601-3.741c-2.121,0-3.602,1.561-3.621,3.741c0.02,2.16,1.5,3.721,3.621,3.721
		C670.881,1955.7,672.382,1954.139,672.382,1951.979z"/>
	<path fill="#45BF55" d="M687.242,1950.978v6.502h-1.561v-6.082c0-1.86-1.12-2.96-2.98-2.96c-2.241,0.02-3.562,1.601-3.562,3.86
		v5.182h-1.56v-14.844h1.56v6.662c0.721-1.641,2.161-2.4,4.102-2.421C685.762,1946.878,687.242,1948.438,687.242,1950.978z"/>
	<path fill="#45BF55" d="M696.161,1956.759c-0.74,0.5-1.541,0.78-2.381,0.801c-1.54,0-2.681-0.921-2.681-3.001v-6.021h-1.521v-1.26
		h1.521v-2.781h1.54v2.781l3.341-0.021v1.28h-3.341v5.741c0,1.28,0.5,1.761,1.4,1.761c0.54,0,1.101-0.18,1.681-0.54
		L696.161,1956.759z"/>
	<path fill="#45BF55" d="M594.362,1962.524h-36.084c-0.189,0-0.343-0.153-0.343-0.343s0.153-0.343,0.343-0.343h36.084
		c0.189,0,0.343,0.153,0.343,0.343S594.552,1962.524,594.362,1962.524z"/>
	<path fill="#45BF55" d="M663.112,1962.63h-61.584c-0.247,0-0.448-0.201-0.448-0.448s0.201-0.448,0.448-0.448h61.584
		c0.247,0,0.448,0.201,0.448,0.448S663.359,1962.63,663.112,1962.63z"/>
	<path fill="#45BF55" d="M697.153,1962.459h-23.666c-0.153,0-0.277-0.124-0.277-0.277s0.124-0.277,0.277-0.277h23.666
		c0.153,0,0.277,0.124,0.277,0.277S697.307,1962.459,697.153,1962.459z"/>
	<path fill="#45BF55" d="M612.178,2321.129v9.972h-1.28v-9.972h-3.649v-1.232h8.596v1.232H612.178z"/>
	<path fill="#45BF55" d="M624.403,2325.899v5.202h-1.248v-4.865c0-1.489-0.896-2.369-2.385-2.369c-1.793,0.016-2.85,1.28-2.85,3.089
		v4.146h-1.248v-11.877h1.248v5.33c0.576-1.312,1.729-1.92,3.281-1.937C623.22,2322.618,624.403,2323.867,624.403,2325.899z"/>
	<path fill="#45BF55" d="M634.451,2327.372h-6.883c0.225,1.648,1.425,2.689,3.058,2.689c1.04,0,1.953-0.368,2.609-1.057l0.688,0.736
		c-0.8,0.896-1.984,1.408-3.393,1.408c-2.481,0-4.194-1.744-4.194-4.257c0-2.514,1.729-4.258,4.178-4.258
		C633.235,2322.618,634.579,2324.506,634.451,2327.372z M633.331,2326.347c-0.08-1.616-1.169-2.641-2.817-2.641
		c-1.601,0-2.753,1.04-2.945,2.641H633.331z"/>
	<path fill="#45BF55" d="M644.308,2325.899v5.202h-1.248v-4.865c0-1.489-0.896-2.369-2.386-2.369
		c-1.664,0.016-2.688,1.104-2.833,2.705v4.529h-1.248v-8.436h1.248v1.857c0.593-1.281,1.729-1.889,3.266-1.905
		C643.123,2322.618,644.308,2323.867,644.308,2325.899z"/>
	<path fill="#45BF55" d="M556.621,1480.103V1466.1h1.6v14.003H556.621z"/>
	<path fill="#45BF55" d="M571.883,1473.602v6.501h-1.561v-6.081c0-1.86-1.12-2.961-2.98-2.961c-2.08,0.021-3.361,1.381-3.541,3.381
		v5.661h-1.561v-10.542h1.561v2.32c0.74-1.601,2.16-2.36,4.081-2.38C570.402,1469.502,571.883,1471.061,571.883,1473.602z"/>
	<path fill="#45BF55" d="M585.043,1480.103h-1.561v-2.26c-0.78,1.479-2.221,2.34-4.102,2.34c-3,0-5.08-2.221-5.08-5.361
		c0-3.16,2.08-5.341,5.061-5.341c1.881,0,3.341,0.86,4.121,2.36v-6.581h1.561V1480.103z M583.482,1474.862
		c0-2.3-1.58-3.961-3.801-3.961c-2.24,0-3.821,1.661-3.821,3.961c0,2.281,1.581,3.921,3.821,3.921
		C581.902,1478.783,583.482,1477.143,583.482,1474.862z"/>
	<path fill="#45BF55" d="M598.022,1475.442h-8.603c0.281,2.061,1.781,3.361,3.821,3.361c1.3,0,2.44-0.46,3.261-1.32l0.86,0.92
		c-1.001,1.12-2.48,1.761-4.241,1.761c-3.101,0-5.24-2.181-5.24-5.321s2.16-5.321,5.221-5.321
		C596.502,1469.502,598.183,1471.862,598.022,1475.442z M596.622,1474.162c-0.101-2.021-1.46-3.301-3.521-3.301
		c-2,0-3.441,1.301-3.682,3.301H596.622z"/>
	<path fill="#45BF55" d="M611.482,1474.862c0,3.121-2.041,5.302-5.021,5.302c-1.88,0-3.32-0.86-4.101-2.32v6.141h-1.56v-14.423h1.56
		v2.28c0.78-1.48,2.221-2.34,4.062-2.34C609.402,1469.502,611.482,1471.702,611.482,1474.862z M609.902,1474.822
		c0-2.26-1.561-3.921-3.761-3.921c-2.221,0-3.781,1.641-3.781,3.921c0,2.301,1.561,3.921,3.781,3.921
		C608.342,1478.743,609.902,1477.103,609.902,1474.822z"/>
	<path fill="#45BF55" d="M623.303,1475.442H614.7c0.28,2.061,1.78,3.361,3.821,3.361c1.3,0,2.44-0.46,3.26-1.32l0.861,0.92
		c-1.001,1.12-2.48,1.761-4.241,1.761c-3.101,0-5.241-2.181-5.241-5.321s2.16-5.321,5.221-5.321
		C621.781,1469.502,623.463,1471.862,623.303,1475.442z M621.902,1474.162c-0.101-2.021-1.461-3.301-3.521-3.301
		c-2,0-3.44,1.301-3.681,3.301H621.902z"/>
	<path fill="#45BF55" d="M635.622,1473.602v6.501h-1.561v-6.081c0-1.86-1.12-2.961-2.98-2.961c-2.081,0.021-3.36,1.381-3.54,3.381
		v5.661h-1.561v-10.542h1.561v2.32c0.739-1.601,2.16-2.36,4.08-2.38C634.142,1469.502,635.622,1471.061,635.622,1473.602z"/>
	<path fill="#45BF55" d="M648.781,1480.103h-1.561v-2.26c-0.779,1.479-2.22,2.34-4.1,2.34c-3.002,0-5.082-2.221-5.082-5.361
		c0-3.16,2.08-5.341,5.062-5.341c1.88,0,3.341,0.86,4.12,2.36v-6.581h1.561V1480.103z M647.221,1474.862
		c0-2.3-1.58-3.961-3.801-3.961c-2.24,0-3.82,1.661-3.82,3.961c0,2.281,1.58,3.921,3.82,3.921
		C645.641,1478.783,647.221,1477.143,647.221,1474.862z"/>
	<path fill="#45BF55" d="M661.762,1475.442h-8.602c0.279,2.061,1.78,3.361,3.82,3.361c1.301,0,2.44-0.46,3.261-1.32l0.86,0.92
		c-1,1.12-2.48,1.761-4.241,1.761c-3.101,0-5.241-2.181-5.241-5.321s2.16-5.321,5.222-5.321
		C660.241,1469.502,661.922,1471.862,661.762,1475.442z M660.361,1474.162c-0.1-2.021-1.461-3.301-3.521-3.301
		c-2.001,0-3.44,1.301-3.681,3.301H660.361z"/>
	<path fill="#45BF55" d="M674.082,1473.602v6.501h-1.561v-6.081c0-1.86-1.121-2.961-2.98-2.961
		c-2.081,0.021-3.361,1.381-3.541,3.381v5.661h-1.561v-10.542H666v2.32c0.74-1.601,2.16-2.36,4.08-2.38
		C672.602,1469.502,674.082,1471.061,674.082,1473.602z"/>
	<path fill="#45BF55" d="M685.781,1471.082l-0.859,1.1c-0.801-0.76-1.861-1.22-3.142-1.22c-2.181,0-3.741,1.58-3.741,3.881
		s1.561,3.9,3.741,3.9c1.38,0,2.521-0.479,3.261-1.36l0.9,0.961c-0.94,1.14-2.4,1.82-4.221,1.82c-3.061,0-5.221-2.181-5.221-5.321
		s2.18-5.321,5.221-5.321C683.421,1469.502,684.821,1470.082,685.781,1471.082z"/>
	<path fill="#45BF55" d="M697.361,1475.442h-8.602c0.279,2.061,1.78,3.361,3.82,3.361c1.301,0,2.44-0.46,3.261-1.32l0.86,0.92
		c-1,1.12-2.48,1.761-4.241,1.761c-3.101,0-5.241-2.181-5.241-5.321s2.16-5.321,5.222-5.321
		C695.841,1469.502,697.521,1471.862,697.361,1475.442z M695.961,1474.162c-0.1-2.021-1.461-3.301-3.521-3.301
		c-2.001,0-3.44,1.301-3.681,3.301H695.961z"/>
	<path fill="#45BF55" d="M597.82,1485.214h-43c-0.226,0-0.408-0.183-0.408-0.408s0.183-0.408,0.408-0.408h43
		c0.226,0,0.408,0.183,0.408,0.408S598.046,1485.214,597.82,1485.214z"/>
	<path fill="#45BF55" d="M698.07,1485.214h-92c-0.226,0-0.408-0.183-0.408-0.408s0.183-0.408,0.408-0.408h92
		c0.226,0,0.408,0.183,0.408,0.408S698.296,1485.214,698.07,1485.214z"/>
	<path fill="#45BF55" d="M277.618,1152.685v4.866h11.691v4.9h-11.691v4.936h13.336v4.9h-19.566v-24.502h19.182v4.9H277.618z"/>
	<path fill="#45BF55" d="M309.013,1172.287l-9.521-24.502h6.65l6.266,18.027l6.266-18.027h6.406l-9.626,24.502H309.013z"/>
	<path fill="#45BF55" d="M340.723,1152.685v4.866h11.691v4.9h-11.691v4.936h13.336v4.9h-19.566v-24.502h19.182v4.9H340.723z"/>
	<path fill="#45BF55" d="M376.213,1165.391h-0.175h-4.726v6.896h-6.23v-24.502h10.956c6.476,0,10.186,3.08,10.186,8.541
		c0,3.746-1.575,6.441-4.445,7.876l5.146,8.086h-7.07L376.213,1165.391z M376.038,1160.49c2.695,0,4.271-1.365,4.271-3.955
		c0-2.556-1.575-3.851-4.271-3.851h-4.726v7.806H376.038z"/>
	<path fill="#45BF55" d="M409.813,1172.287h-6.195v-7.736l-9.066-16.767h6.23l5.916,10.676l5.775-10.676h6.23l-8.891,16.592
		V1172.287z"/>
	<path fill="#45BF55" d="M439.318,1152.79v19.497h-6.23v-19.497h-7.316v-5.041h20.933v5.041H439.318z"/>
	<path fill="#45BF55" d="M472.743,1172.287v-9.521h-10.15v9.521h-6.231v-24.502h6.231v10.081h10.15v-10.081h6.23v24.502H472.743z"/>
	<path fill="#45BF55" d="M490.871,1172.287v-24.502h6.231v24.502H490.871z"/>
	<path fill="#45BF55" d="M526.118,1172.287l-11.271-15.086v15.086h-5.846v-24.502h5.496l11.306,15.122v-15.122h5.811v24.502H526.118
		z"/>
	<path fill="#45BF55" d="M565.179,1159.825v9.556c-2.626,1.855-6.756,3.186-10.187,3.186c-7.456,0-13.091-5.391-13.091-12.532
		c0-7.105,5.775-12.461,13.511-12.461c3.641,0,7.491,1.4,10.012,3.64l-3.501,4.235c-1.785-1.645-4.271-2.66-6.546-2.66
		c-4.025,0-7.105,3.15-7.105,7.246c0,4.166,3.115,7.316,7.176,7.316c1.26,0,2.87-0.455,4.341-1.19v-6.336H565.179z"/>
	<path fill="#45BF55" d="M591.636,1172.287v-24.502h6.23v24.502H591.636z"/>
	<path fill="#45BF55" d="M626.882,1172.287l-11.271-15.086v15.086h-5.846v-24.502h5.495l11.307,15.122v-15.122h5.811v24.502H626.882
		z"/>
	<path fill="#45BF55" d="M680.817,1172.287l-0.034-15.927l-5.881,13.477h-4.061l-5.881-13.477v15.927h-5.565v-24.538h6.826
		l6.65,14.597l6.65-14.597h6.791v24.538H680.817z"/>
	<path fill="#45BF55" d="M723.133,1160.001c0,7.141-5.671,12.566-13.267,12.566c-7.561,0-13.231-5.391-13.231-12.566
		c0-7.141,5.671-12.426,13.231-12.426C717.462,1147.574,723.133,1152.895,723.133,1160.001z M703.006,1160.035
		c0,4.13,3.186,7.316,6.931,7.316c3.78,0,6.791-3.186,6.791-7.316s-3.011-7.246-6.791-7.246S703.006,1155.905,703.006,1160.035z"/>
	<path fill="#45BF55" d="M743.956,1147.784c7.701,0,13.021,4.97,13.021,12.251c0,7.246-5.391,12.251-13.267,12.251H733.42v-24.502
		H743.956z M739.65,1167.316h4.445c3.815,0,6.546-2.94,6.546-7.246c0-4.34-2.87-7.316-6.825-7.316h-4.166V1167.316z"/>
	<path fill="#45BF55" d="M773.495,1152.685v4.866h11.691v4.9h-11.691v4.936h13.337v4.9h-19.567v-24.502h19.182v4.9H773.495z"/>
	<path fill="#45BF55" d="M808.985,1165.391h-0.175h-4.726v6.896h-6.23v-24.502h10.956c6.476,0,10.187,3.08,10.187,8.541
		c0,3.746-1.575,6.441-4.445,7.876l5.146,8.086h-7.071L808.985,1165.391z M808.811,1160.49c2.695,0,4.271-1.365,4.271-3.955
		c0-2.556-1.575-3.851-4.271-3.851h-4.726v7.806H808.811z"/>
	<path fill="#45BF55" d="M835.76,1167.771l-1.785,4.516h-6.405l10.571-24.502h6.405l10.326,24.502h-6.65l-1.751-4.516H835.76z
		 M841.15,1153.98l-3.57,9.066h7.071L841.15,1153.98z"/>
	<path fill="#45BF55" d="M872.86,1152.79v19.497h-6.23v-19.497h-7.315v-5.041h20.932v5.041H872.86z"/>
	<path fill="#45BF55" d="M889.904,1172.287v-24.502h6.23v24.502H889.904z"/>
	<path fill="#45BF55" d="M932.922,1160.001c0,7.141-5.671,12.566-13.267,12.566c-7.561,0-13.231-5.391-13.231-12.566
		c0-7.141,5.671-12.426,13.231-12.426C927.251,1147.574,932.922,1152.895,932.922,1160.001z M912.795,1160.035
		c0,4.13,3.186,7.316,6.931,7.316c3.78,0,6.791-3.186,6.791-7.316s-3.011-7.246-6.791-7.246S912.795,1155.905,912.795,1160.035z"/>
	<path fill="#45BF55" d="M960.325,1172.287l-11.271-15.086v15.086h-5.846v-24.502h5.496l11.306,15.122v-15.122h5.811v24.502H960.325
		z"/>
	<path fill="#45BF55" d="M982.409,1169.627c0,0.875-0.314,1.61-0.77,2.31l-2.556,3.71h-2.87l1.575-3.746
		c-0.806-0.525-1.155-1.365-1.155-2.275c0-1.68,1.225-2.871,2.905-2.871C981.079,1166.756,982.409,1167.771,982.409,1169.627z"/>
	<path fill="#45BF55" d="M332.656,1194.685v4.866h11.69v4.9h-11.69v4.936h13.336v4.9h-19.567v-24.502h19.183v4.9H332.656z"/>
	<path fill="#45BF55" d="M380.013,1214.287h-7.456l-5.285-7.806l-5.286,7.806h-7.246l8.751-12.531l-8.19-11.971h7.246l4.726,7.141
		l4.725-7.141h7.316l-8.086,11.691L380.013,1214.287z"/>
	<path fill="#45BF55" d="M410.673,1193.705l-3.605,4.271c-1.61-1.96-3.991-3.186-6.161-3.186c-3.886,0-6.825,3.081-6.825,7.106
		c0,4.095,2.939,7.21,6.825,7.21c2.065,0,4.445-1.12,6.161-2.87l3.64,3.851c-2.625,2.695-6.511,4.48-10.115,4.48
		c-7.387,0-12.882-5.426-12.882-12.602c0-7.071,5.636-12.391,13.092-12.391C404.441,1189.574,408.222,1191.184,410.673,1193.705z"/>
	<path fill="#45BF55" d="M426.771,1194.685v4.866h11.691v4.9h-11.691v4.936h13.336v4.9H420.54v-24.502h19.182v4.9H426.771z"/>
	<path fill="#45BF55" d="M461.806,1189.784c6.266,0,9.871,3.08,9.871,8.541c0,5.741-3.605,9.066-9.871,9.066h-4.445v6.896h-6.23
		v-24.502H461.806z M457.36,1202.49h4.131c2.729,0,4.305-1.365,4.305-3.955c0-2.556-1.575-3.851-4.305-3.851h-4.131V1202.49z"/>
	<path fill="#45BF55" d="M493.271,1194.79v19.497h-6.23v-19.497h-7.315v-5.041h20.932v5.041H493.271z"/>
	<path fill="#45BF55" d="M531.665,1194.685v5.67h10.99v4.901h-10.99v9.031h-6.231v-24.502h18.167v4.9H531.665z"/>
	<path fill="#45BF55" d="M578.461,1202.001c0,7.141-5.67,12.566-13.267,12.566c-7.561,0-13.23-5.391-13.23-12.566
		c0-7.141,5.67-12.426,13.23-12.426C572.791,1189.574,578.461,1194.895,578.461,1202.001z M558.334,1202.035
		c0,4.13,3.186,7.316,6.931,7.316c3.78,0,6.791-3.186,6.791-7.316s-3.011-7.246-6.791-7.246S558.334,1197.905,558.334,1202.035z"/>
	<path fill="#45BF55" d="M599.88,1207.391h-0.176h-4.725v6.896h-6.231v-24.502h10.956c6.477,0,10.187,3.08,10.187,8.541
		c0,3.746-1.575,6.441-4.445,7.876l5.146,8.086h-7.071L599.88,1207.391z M599.704,1202.49c2.695,0,4.271-1.365,4.271-3.955
		c0-2.556-1.575-3.851-4.271-3.851h-4.725v7.806H599.704z"/>
	<path fill="#45BF55" d="M647.549,1194.79v19.497h-6.23v-19.497h-7.315v-5.041h20.932v5.041H647.549z"/>
	<path fill="#45BF55" d="M670.823,1194.685v4.866h11.691v4.9h-11.691v4.936h13.337v4.9h-19.567v-24.502h19.182v4.9H670.823z"/>
	<path fill="#45BF55" d="M716.604,1214.287l-0.034-15.927l-5.881,13.477h-4.061l-5.881-13.477v15.927h-5.565v-24.538h6.826
		l6.65,14.597l6.65-14.597h6.791v24.538H716.604z"/>
	<path fill="#45BF55" d="M744.708,1189.784c6.266,0,9.871,3.08,9.871,8.541c0,5.741-3.605,9.066-9.871,9.066h-4.445v6.896h-6.23
		v-24.502H744.708z M740.263,1202.49h4.131c2.73,0,4.306-1.365,4.306-3.955c0-2.556-1.575-3.851-4.306-3.851h-4.131V1202.49z"/>
	<path fill="#45BF55" d="M776.173,1194.79v19.497h-6.23v-19.497h-7.315v-5.041h20.932v5.041H776.173z"/>
	<path fill="#45BF55" d="M796.157,1209.771l-1.785,4.516h-6.405l10.571-24.502h6.405l10.326,24.502h-6.65l-1.751-4.516H796.157z
		 M801.548,1195.98l-3.57,9.066h7.071L801.548,1195.98z"/>
	<path fill="#45BF55" d="M833.258,1194.79v19.497h-6.23v-19.497h-7.315v-5.041h20.932v5.041H833.258z"/>
	<path fill="#45BF55" d="M850.302,1214.287v-24.502h6.23v24.502H850.302z"/>
	<path fill="#45BF55" d="M893.319,1202.001c0,7.141-5.671,12.566-13.267,12.566c-7.561,0-13.231-5.391-13.231-12.566
		c0-7.141,5.671-12.426,13.231-12.426C887.648,1189.574,893.319,1194.895,893.319,1202.001z M873.192,1202.035
		c0,4.13,3.186,7.316,6.931,7.316c3.78,0,6.791-3.186,6.791-7.316s-3.011-7.246-6.791-7.246S873.192,1197.905,873.192,1202.035z"/>
	<path fill="#45BF55" d="M920.724,1214.287l-11.271-15.086v15.086h-5.846v-24.502h5.496l11.306,15.122v-15.122h5.811v24.502H920.724
		z"/>
	<path fill="#45BF55" d="M612.178,1369.848v9.972h-1.28v-9.972h-3.649v-1.232h8.595v1.232H612.178z"/>
	<path fill="#45BF55" d="M624.403,1374.618v5.202h-1.248v-4.866c0-1.489-0.896-2.369-2.386-2.369
		c-1.792,0.016-2.849,1.28-2.849,3.089v4.146h-1.249v-11.877h1.249v5.33c0.576-1.312,1.729-1.92,3.281-1.937
		C623.219,1371.337,624.403,1372.585,624.403,1374.618z"/>
	<path fill="#45BF55" d="M634.451,1376.09h-6.883c0.224,1.648,1.424,2.689,3.057,2.689c1.041,0,1.953-0.368,2.609-1.056l0.688,0.736
		c-0.801,0.896-1.985,1.408-3.394,1.408c-2.481,0-4.193-1.745-4.193-4.257c0-2.513,1.729-4.258,4.178-4.258
		C633.234,1371.337,634.579,1373.225,634.451,1376.09z M633.33,1375.066c-0.08-1.617-1.168-2.641-2.816-2.641
		c-1.601,0-2.754,1.041-2.945,2.641H633.33z"/>
	<path fill="#45BF55" d="M644.308,1374.618v5.202h-1.249v-4.866c0-1.489-0.896-2.369-2.385-2.369
		c-1.665,0.016-2.689,1.104-2.833,2.705v4.53h-1.249v-8.436h1.249v1.857c0.592-1.281,1.729-1.889,3.266-1.905
		C643.123,1371.337,644.308,1372.585,644.308,1374.618z"/>
	<path fill="#45BF55" d="M587.492,1006.198v-6.161h-8.441v6.161h-1.601v-14.003h1.601v6.321h8.441v-6.321h1.601v14.003H587.492z"/>
	<path fill="#45BF55" d="M602.192,1001.537h-8.603c0.28,2.061,1.78,3.361,3.821,3.361c1.3,0,2.44-0.46,3.261-1.32l0.86,0.92
		c-1.001,1.12-2.48,1.76-4.241,1.76c-3.101,0-5.241-2.181-5.241-5.321s2.16-5.321,5.222-5.321
		C600.672,995.596,602.353,997.957,602.192,1001.537z M600.792,1000.257c-0.101-2.021-1.461-3.301-3.521-3.301
		c-2.001,0-3.441,1.3-3.682,3.301H600.792z"/>
	<path fill="#45BF55" d="M614.552,1006.198h-1.561v-2.26c-0.779,1.48-2.22,2.34-4.101,2.34c-3.001,0-5.081-2.221-5.081-5.361
		c0-3.161,2.08-5.341,5.062-5.341c1.88,0,3.341,0.86,4.12,2.36v-6.582h1.561V1006.198z M612.991,1000.957
		c0-2.3-1.58-3.961-3.801-3.961c-2.24,0-3.82,1.661-3.82,3.961c0,2.281,1.58,3.921,3.82,3.921
		C611.411,1004.878,612.991,1003.238,612.991,1000.957z"/>
	<path fill="#45BF55" d="M628.071,1000.917c0,3.161-2.221,5.341-5.341,5.341c-3.121,0-5.341-2.181-5.341-5.341
		c0-3.141,2.22-5.301,5.341-5.301C625.851,995.616,628.071,997.776,628.071,1000.917z M618.949,1000.937
		c0,2.321,1.581,3.921,3.781,3.921s3.78-1.6,3.78-3.921c0-2.3-1.58-3.901-3.78-3.901S618.949,998.637,618.949,1000.937z"/>
	<path fill="#45BF55" d="M640.452,999.697v6.501h-1.561v-6.082c0-1.86-1.12-2.96-2.98-2.96c-2.081,0.02-3.361,1.38-3.541,3.381
		v5.661h-1.561v-10.542h1.561v2.321c0.74-1.601,2.16-2.36,4.081-2.38C638.972,995.596,640.452,997.156,640.452,999.697z"/>
	<path fill="#45BF55" d="M645.71,992.635c0,0.62-0.44,1.08-1.021,1.08s-1.021-0.46-1.021-1.08s0.44-1.08,1.021-1.08
		S645.71,992.015,645.71,992.635z M643.93,1006.198v-10.542h1.54v10.542H643.93z"/>
	<path fill="#45BF55" d="M655.431,996.556l-0.601,1.24c-0.819-0.52-1.88-0.86-2.86-0.86c-1.18,0-2.08,0.42-2.08,1.4
		c0,2.341,5.881,1.141,5.881,4.921c0,2.08-1.84,3-3.86,3c-1.501,0-3.041-0.52-4.041-1.48l0.6-1.18c0.9,0.84,2.261,1.34,3.501,1.34
		s2.24-0.46,2.261-1.5c0.06-2.541-5.842-1.24-5.821-4.981c0-2.021,1.74-2.86,3.661-2.86
		C653.33,995.596,654.551,995.956,655.431,996.556z"/>
	<path fill="#45BF55" d="M675.753,999.697v6.501h-1.561v-6.082c0-1.88-1.1-2.98-2.92-2.98c-2.181,0.06-3.441,1.621-3.441,3.881
		v5.181h-1.58v-6.082c0-1.88-1.08-2.98-2.921-2.98c-2.16,0.06-3.46,1.621-3.46,3.881v5.181h-1.541v-10.542h1.541v2.381
		c0.7-1.641,2.12-2.42,4.021-2.44c1.98,0,3.341,1.02,3.78,2.76c0.66-1.86,2.141-2.74,4.161-2.76
		C674.293,995.596,675.753,997.156,675.753,999.697z"/>
	<path fill="#45BF55" d="M677.07,1011.308h-99c-0.226,0-0.408-0.183-0.408-0.408s0.183-0.408,0.408-0.408h99
		c0.226,0,0.408,0.183,0.408,0.408S677.296,1011.308,677.07,1011.308z"/>
	<path fill="#45BF55" d="M429.999,3049.899v-24.502h6.23v24.502H429.999z"/>
	<path fill="#45BF55" d="M452.819,3028.232c0,0.91-0.315,1.646-0.771,2.311l-2.555,3.71h-2.87l1.575-3.71
		c-0.805-0.561-1.155-1.365-1.155-2.275c0-1.716,1.226-2.905,2.905-2.905C451.489,3025.362,452.819,3026.412,452.819,3028.232z"/>
	<path fill="#45BF55" d="M480.19,3044.684v5.215h-16.627v-24.502h6.23v19.287H480.19z"/>
	<path fill="#45BF55" d="M506.791,3044.684v5.215h-16.627v-24.502h6.23v19.287H506.791z"/>
	<path fill="#45BF55" d="M543.225,3030.402v19.497h-6.23v-19.497h-7.316v-5.04h20.933v5.04H543.225z"/>
	<path fill="#45BF55" d="M571.399,3043.003h-0.175h-4.726v6.896h-6.231v-24.502h10.957c6.476,0,10.186,3.08,10.186,8.54
		c0,3.746-1.575,6.441-4.445,7.876l5.146,8.086h-7.071L571.399,3043.003z M571.225,3038.103c2.695,0,4.27-1.365,4.27-3.955
		c0-2.556-1.574-3.851-4.27-3.851h-4.726v7.806H571.225z"/>
	<path fill="#45BF55" d="M605,3049.899h-6.195v-7.735l-9.066-16.767h6.23l5.916,10.676l5.775-10.676h6.23L605,3041.989V3049.899z"/>
	<path fill="#45BF55" d="M649.624,3030.402v19.497h-6.23v-19.497h-7.315v-5.04h20.932v5.04H649.624z"/>
	<path fill="#45BF55" d="M690.296,3037.613c0,7.141-5.671,12.566-13.267,12.566c-7.561,0-13.231-5.391-13.231-12.566
		c0-7.141,5.671-12.426,13.231-12.426C684.625,3025.187,690.296,3030.507,690.296,3037.613z M670.169,3037.648
		c0,4.13,3.186,7.315,6.931,7.315c3.78,0,6.791-3.186,6.791-7.315c0-4.131-3.011-7.246-6.791-7.246
		S670.169,3033.517,670.169,3037.648z"/>
	<path fill="#45BF55" d="M737.369,3037.438v9.556c-2.625,1.855-6.755,3.186-10.186,3.186c-7.456,0-13.092-5.391-13.092-12.531
		c0-7.105,5.775-12.461,13.512-12.461c3.641,0,7.491,1.399,10.011,3.64l-3.5,4.235c-1.785-1.645-4.271-2.66-6.546-2.66
		c-4.025,0-7.105,3.15-7.105,7.246c0,4.165,3.115,7.315,7.176,7.315c1.26,0,2.87-0.455,4.34-1.189v-6.336H737.369z"/>
	<path fill="#45BF55" d="M754.938,3030.297v4.865h11.691v4.9h-11.691v4.936h13.337v4.9h-19.567v-24.502h19.182v4.9H754.938z"/>
	<path fill="#45BF55" d="M790.638,3030.402v19.497h-6.23v-19.497h-7.315v-5.04h20.932v5.04H790.638z"/>
	<path fill="#45BF55" d="M458.822,3087.383l-1.785,4.516h-6.405l10.571-24.502h6.405l10.326,24.502h-6.651l-1.75-4.516H458.822z
		 M464.213,3073.592l-3.57,9.065h7.07L464.213,3073.592z"/>
	<path fill="#45BF55" d="M512.862,3067.397c7.7,0,13.021,4.97,13.021,12.251c0,7.246-5.391,12.251-13.267,12.251h-10.291v-24.502
		H512.862z M508.557,3086.928h4.445c3.816,0,6.546-2.939,6.546-7.245c0-4.341-2.87-7.316-6.825-7.316h-4.166V3086.928z"/>
	<path fill="#45BF55" d="M542.402,3072.297v4.865h11.691v4.9h-11.691v4.936h13.336v4.9h-19.566v-24.502h19.182v4.9H542.402z"/>
	<path fill="#45BF55" d="M588.113,3071.317l-3.605,4.271c-1.609-1.96-3.99-3.186-6.16-3.186c-3.886,0-6.826,3.081-6.826,7.106
		c0,4.095,2.94,7.21,6.826,7.21c2.064,0,4.445-1.12,6.16-2.87l3.641,3.851c-2.625,2.695-6.511,4.48-10.116,4.48
		c-7.386,0-12.881-5.426-12.881-12.602c0-7.07,5.636-12.391,13.091-12.391C581.883,3067.187,585.663,3068.796,588.113,3071.317z"/>
	<path fill="#45BF55" d="M604.211,3072.297v4.865h11.691v4.9h-11.691v4.936h13.336v4.9H597.98v-24.502h19.182v4.9H604.211z"/>
	<path fill="#45BF55" d="M645.688,3091.899l-11.271-15.086v15.086h-5.846v-24.502h5.496l11.306,15.121v-15.121h5.811v24.502H645.688
		z"/>
	<path fill="#45BF55" d="M674.421,3072.402v19.497h-6.23v-19.497h-7.315v-5.04h20.932v5.04H674.421z"/>
	<path fill="#45BF55" d="M720.866,3083.954c0,5.215-3.255,8.226-8.471,8.226c-3.465,0-6.266-1.436-8.436-3.921l2.87-4.165
		c1.75,1.82,3.71,2.73,5.146,2.73c1.646,0,2.625-1.016,2.625-3.011v-11.411h-8.4v-5.04h14.666V3083.954z"/>
	<path fill="#45BF55" d="M757.232,3079.613c0,7.141-5.671,12.566-13.267,12.566c-7.561,0-13.231-5.391-13.231-12.566
		c0-7.141,5.671-12.426,13.231-12.426C751.562,3067.187,757.232,3072.507,757.232,3079.613z M737.105,3079.648
		c0,4.13,3.186,7.315,6.931,7.315c3.78,0,6.791-3.186,6.791-7.315c0-4.131-3.011-7.246-6.791-7.246
		S737.105,3075.517,737.105,3079.648z"/>
	<path fill="#45BF55" d="M779.105,3067.397c5.496,0,8.996,2.38,8.996,6.125c0,2.591-1.61,4.655-4.2,5.391
		c3.08,0.596,5.04,3.011,5.04,6.196c0,4.165-3.64,6.79-9.416,6.79H767.52v-24.502H779.105z M773.715,3077.198h5.041
		c1.82,0,2.976-0.98,2.976-2.556s-1.155-2.485-2.976-2.485h-5.041V3077.198z M773.715,3087.104h5.041
		c2.311,0,3.745-1.016,3.745-2.766c0-1.646-1.435-2.66-3.745-2.66h-5.041V3087.104z"/>
	<path fill="#45BF55" d="M521.771,3133.899l-4.551-16.941l-4.621,16.941h-6.439l-8.017-24.502h6.651l4.795,18.026l4.69-18.026h6.091
		l4.795,18.026l4.727-18.026h6.37l-8.086,24.502H521.771z"/>
	<path fill="#45BF55" d="M545.464,3133.899v-24.502h6.23v24.502H545.464z"/>
	<path fill="#45BF55" d="M574.935,3114.402v19.497h-6.23v-19.497h-7.315v-5.04h20.932v5.04H574.935z"/>
	<path fill="#45BF55" d="M608.359,3133.899v-9.521h-10.15v9.521h-6.23v-24.502h6.23v10.081h10.15v-10.081h6.23v24.502H608.359z"/>
	<path fill="#45BF55" d="M652.948,3114.402v19.497h-6.23v-19.497h-7.315v-5.04h20.932v5.04H652.948z"/>
	<path fill="#45BF55" d="M686.374,3133.899v-9.521h-10.151v9.521h-6.23v-24.502h6.23v10.081h10.151v-10.081h6.23v24.502H686.374z"/>
	<path fill="#45BF55" d="M704.502,3133.899v-24.502h6.23v24.502H704.502z"/>
	<path fill="#45BF55" d="M741.709,3111.847l-2.346,4.865c-2.59-1.505-5.846-2.556-7.841-2.556c-1.609,0-2.695,0.596-2.695,1.785
		c0,4.235,12.952,1.82,12.952,10.677c0,4.9-4.341,7.49-9.802,7.49c-4.095,0-8.296-1.54-11.201-3.92l2.416-4.796
		c2.52,2.205,6.3,3.676,8.855,3.676c1.96,0,3.186-0.735,3.186-2.136c0-4.341-12.951-1.75-12.951-10.431
		c0-4.516,3.885-7.386,9.766-7.386C735.583,3109.117,739.188,3110.202,741.709,3111.847z"/>
	<path fill="#45BF55" d="M387.598,3156.296v4.866h11.691v4.9h-11.691v4.936h13.336v4.9h-19.566v-24.503h19.182v4.9H387.598z"/>
	<path fill="#45BF55" d="M433.31,3155.317l-3.605,4.271c-1.61-1.96-3.991-3.186-6.161-3.186c-3.885,0-6.825,3.08-6.825,7.105
		c0,4.096,2.94,7.211,6.825,7.211c2.065,0,4.445-1.12,6.161-2.87l3.64,3.851c-2.625,2.695-6.51,4.48-10.115,4.48
		c-7.387,0-12.882-5.426-12.882-12.602c0-7.07,5.636-12.392,13.092-12.392C427.078,3151.186,430.859,3152.796,433.31,3155.317z"/>
	<path fill="#45BF55" d="M467.645,3163.613c0,7.141-5.67,12.566-13.267,12.566c-7.561,0-13.231-5.391-13.231-12.566
		c0-7.141,5.671-12.427,13.231-12.427C461.975,3151.186,467.645,3156.507,467.645,3163.613z M447.518,3163.648
		c0,4.13,3.186,7.315,6.931,7.315c3.78,0,6.79-3.186,6.79-7.315c0-4.131-3.01-7.246-6.79-7.246S447.518,3159.517,447.518,3163.648z"
		/>
	<path fill="#45BF55" d="M495.049,3175.899l-11.271-15.087v15.087h-5.846v-24.503h5.496l11.306,15.122v-15.122h5.811v24.503H495.049
		z"/>
	<path fill="#45BF55" d="M537.329,3163.613c0,7.141-5.671,12.566-13.267,12.566c-7.561,0-13.231-5.391-13.231-12.566
		c0-7.141,5.671-12.427,13.231-12.427C531.658,3151.186,537.329,3156.507,537.329,3163.613z M517.202,3163.648
		c0,4.13,3.185,7.315,6.931,7.315c3.78,0,6.791-3.186,6.791-7.315c0-4.131-3.011-7.246-6.791-7.246
		S517.202,3159.517,517.202,3163.648z"/>
	<path fill="#45BF55" d="M569.039,3175.899l-0.035-15.927l-5.881,13.477h-4.061l-5.881-13.477v15.927h-5.565v-24.537h6.825
		l6.651,14.596l6.65-14.596h6.791v24.537H569.039z"/>
	<path fill="#45BF55" d="M586.466,3175.899v-24.503h6.23v24.503H586.466z"/>
	<path fill="#45BF55" d="M625.948,3155.317l-3.605,4.271c-1.61-1.96-3.991-3.186-6.161-3.186c-3.885,0-6.825,3.08-6.825,7.105
		c0,4.096,2.94,7.211,6.825,7.211c2.065,0,4.445-1.12,6.161-2.87l3.641,3.851c-2.626,2.695-6.511,4.48-10.116,4.48
		c-7.387,0-12.882-5.426-12.882-12.602c0-7.07,5.636-12.392,13.092-12.392C619.717,3151.186,623.498,3152.796,625.948,3155.317z"/>
	<path fill="#45BF55" d="M654.893,3153.846l-2.346,4.866c-2.59-1.506-5.846-2.556-7.841-2.556c-1.609,0-2.695,0.595-2.695,1.785
		c0,4.235,12.952,1.82,12.952,10.677c0,4.9-4.341,7.49-9.802,7.49c-4.095,0-8.296-1.54-11.201-3.92l2.416-4.796
		c2.52,2.205,6.3,3.676,8.855,3.676c1.96,0,3.186-0.735,3.186-2.136c0-4.341-12.951-1.75-12.951-10.431
		c0-4.516,3.885-7.386,9.766-7.386C648.767,3151.117,652.372,3152.202,654.893,3153.846z"/>
	<path fill="#45BF55" d="M691.011,3151.396c7.701,0,13.021,4.971,13.021,12.252c0,7.245-5.391,12.251-13.267,12.251h-10.291v-24.503
		H691.011z M686.705,3170.928h4.445c3.815,0,6.546-2.94,6.546-7.245c0-4.341-2.87-7.316-6.825-7.316h-4.166V3170.928z"/>
	<path fill="#45BF55" d="M720.55,3156.296v4.866h11.691v4.9H720.55v4.936h13.337v4.9h-19.567v-24.503h19.182v4.9H720.55z"/>
	<path fill="#45BF55" d="M766.576,3163.438v9.556c-2.625,1.855-6.755,3.186-10.186,3.186c-7.456,0-13.092-5.391-13.092-12.531
		c0-7.106,5.775-12.462,13.512-12.462c3.641,0,7.491,1.4,10.011,3.641l-3.5,4.235c-1.785-1.645-4.271-2.66-6.546-2.66
		c-4.025,0-7.105,3.15-7.105,7.246c0,4.165,3.115,7.315,7.176,7.315c1.26,0,2.87-0.455,4.34-1.19v-6.335H766.576z"/>
	<path fill="#45BF55" d="M789.045,3169.003h-0.175h-4.726v6.896h-6.23v-24.503h10.956c6.476,0,10.187,3.081,10.187,8.541
		c0,3.746-1.575,6.441-4.445,7.876l5.146,8.086h-7.071L789.045,3169.003z M788.87,3164.103c2.695,0,4.271-1.365,4.271-3.956
		c0-2.555-1.575-3.851-4.271-3.851h-4.726v7.807H788.87z"/>
	<path fill="#45BF55" d="M816.484,3156.296v4.866h11.691v4.9h-11.691v4.936h13.337v4.9h-19.567v-24.503h19.182v4.9H816.484z"/>
	<path fill="#45BF55" d="M847.074,3156.296v4.866h11.691v4.9h-11.691v4.936h13.337v4.9h-19.567v-24.503h19.182v4.9H847.074z"/>
	<path fill="#45BF55" d="M612.178,3287.46v9.972h-1.28v-9.972h-3.649v-1.232h8.595v1.232H612.178z"/>
	<path fill="#45BF55" d="M624.403,3292.23v5.202h-1.248v-4.865c0-1.489-0.896-2.369-2.386-2.369
		c-1.792,0.016-2.849,1.28-2.849,3.089v4.146h-1.249v-11.877h1.249v5.33c0.576-1.312,1.729-1.92,3.281-1.937
		C623.219,3288.949,624.403,3290.198,624.403,3292.23z"/>
	<path fill="#45BF55" d="M634.451,3293.703h-6.883c0.224,1.648,1.424,2.689,3.057,2.689c1.041,0,1.953-0.368,2.609-1.057
		l0.688,0.736c-0.801,0.896-1.985,1.408-3.394,1.408c-2.481,0-4.193-1.744-4.193-4.257c0-2.514,1.729-4.258,4.178-4.258
		C633.234,3288.949,634.579,3290.837,634.451,3293.703z M633.33,3292.678c-0.08-1.616-1.168-2.641-2.816-2.641
		c-1.601,0-2.754,1.04-2.945,2.641H633.33z"/>
	<path fill="#45BF55" d="M644.308,3292.23v5.202h-1.249v-4.865c0-1.489-0.896-2.369-2.385-2.369
		c-1.665,0.016-2.689,1.104-2.833,2.705v4.529h-1.249v-8.436h1.249v1.857c0.592-1.281,1.729-1.889,3.266-1.905
		C643.123,3288.949,644.308,3290.198,644.308,3292.23z"/>
	<path fill="#45BF55" d="M605.622,2911.808l-0.96,1.221c-1.08-1.101-2.601-1.761-4.141-1.761c-3.161,0-5.701,2.44-5.701,5.521
		c0,3.061,2.54,5.521,5.701,5.521c1.54,0,3.041-0.64,4.141-1.68l0.98,1.1c-1.381,1.301-3.261,2.161-5.201,2.161
		c-4.041,0-7.241-3.141-7.241-7.102c0-3.921,3.24-7.021,7.301-7.021C602.422,2909.768,604.282,2910.548,605.622,2911.808z"/>
	<path fill="#45BF55" d="M614.842,2922.191c-0.841,1.14-2.181,1.7-3.861,1.7c-2.181,0-3.581-1.4-3.581-3.221
		c0-1.841,1.461-3.001,3.941-3.021h3.461v-0.62c0-1.541-0.961-2.461-2.821-2.461c-1.16,0-2.24,0.44-3.341,1.2l-0.659-1.141
		c1.359-0.899,2.5-1.42,4.301-1.42c2.601,0,4.04,1.38,4.061,3.641l0.02,6.962h-1.52V2922.191z M614.821,2920.17v-1.261h-3.28
		c-1.761,0-2.681,0.54-2.681,1.7s0.94,1.921,2.42,1.921C613.062,2922.531,614.421,2921.63,614.821,2920.17z"/>
	<path fill="#45BF55" d="M619.94,2923.811v-14.844h1.56v14.844H619.94z"/>
	<path fill="#45BF55" d="M625.5,2923.811v-14.844h1.56v14.844H625.5z"/>
	<path fill="#45BF55" d="M632.74,2910.248c0,0.62-0.44,1.08-1.021,1.08s-1.021-0.46-1.021-1.08s0.44-1.08,1.021-1.08
		S632.74,2909.627,632.74,2910.248z M630.96,2923.811v-10.543h1.54v10.543H630.96z"/>
	<path fill="#45BF55" d="M645.942,2917.309v6.502h-1.561v-6.082c0-1.86-1.12-2.96-2.98-2.96c-2.081,0.02-3.361,1.38-3.541,3.381
		v5.661H636.3v-10.543h1.561v2.321c0.74-1.601,2.16-2.36,4.081-2.381C644.462,2913.208,645.942,2914.769,645.942,2917.309z"/>
	<path fill="#45BF55" d="M658.602,2922.71c0,3.081-2.101,5.021-5.301,5.021c-1.66-0.021-3.041-0.561-4.321-1.521l0.721-1.2
		c1.04,0.86,2.14,1.32,3.54,1.34c2.301,0,3.801-1.4,3.801-3.601v-1.601c-0.74,1.4-2.101,2.201-3.881,2.201
		c-2.84,0-4.801-2.101-4.801-5.102c0-2.94,1.94-5.021,4.761-5.041c1.801,0,3.161,0.8,3.921,2.2v-2.141h1.561V2922.71z
		 M657.041,2918.31c0-2.201-1.5-3.741-3.601-3.741c-2.12,0-3.601,1.561-3.621,3.741c0.021,2.16,1.501,3.721,3.621,3.721
		C655.541,2922.031,657.041,2920.47,657.041,2918.31z"/>
	<path fill="#45BF55" d="M646.82,2928.92h-51c-0.226,0-0.408-0.183-0.408-0.408s0.183-0.408,0.408-0.408h51
		c0.226,0,0.408,0.183,0.408,0.408S647.046,2928.92,646.82,2928.92z"/>
	<path fill="#45BF55" d="M612.18,2778.884v9.973h-1.281v-9.973h-3.648v-1.232h8.595v1.232H612.18z"/>
	<path fill="#45BF55" d="M624.404,2783.655v5.202h-1.248v-4.866c0-1.488-0.896-2.369-2.385-2.369c-1.793,0.017-2.85,1.28-2.85,3.09
		v4.146h-1.248v-11.877h1.248v5.33c0.576-1.312,1.729-1.921,3.281-1.937C623.221,2780.374,624.404,2781.622,624.404,2783.655z"/>
	<path fill="#45BF55" d="M634.453,2785.127h-6.883c0.224,1.648,1.424,2.688,3.057,2.688c1.041,0,1.953-0.368,2.609-1.056
		l0.688,0.736c-0.8,0.896-1.984,1.408-3.393,1.408c-2.481,0-4.193-1.745-4.193-4.258s1.729-4.258,4.178-4.258
		C633.236,2780.374,634.58,2782.262,634.453,2785.127z M633.332,2784.103c-0.08-1.617-1.168-2.642-2.816-2.642
		c-1.602,0-2.754,1.041-2.945,2.642H633.332z"/>
	<path fill="#45BF55" d="M644.309,2783.655v5.202h-1.248v-4.866c0-1.488-0.896-2.369-2.385-2.369
		c-1.665,0.017-2.689,1.104-2.834,2.705v4.53h-1.248v-8.436h1.248v1.856c0.593-1.28,1.729-1.889,3.266-1.904
		C643.125,2780.374,644.309,2781.622,644.309,2783.655z"/>
</g>
<g id="Layer_5" display="none">
	<path display="inline" fill="#45BF55" d="M840.357,2148.945c0.07-5.006,3.045-7.946,7.98-7.946c4.656,0,7.525,2.17,7.525,6.091
		c0,5.32-5.355,5.95-5.355,10.151h-4.515c0-5.426,4.306-5.706,4.306-9.171c0-1.575-0.945-2.275-2.521-2.275
		c-1.751,0-2.73,1.015-2.765,3.185L840.357,2148.945z M851.104,2162.946c0,1.75-1.225,2.94-2.94,2.94
		c-1.715,0-2.905-1.19-2.905-2.94c0-1.715,1.19-2.905,2.905-2.905C849.879,2160.041,851.104,2161.231,851.104,2162.946z"/>
	<rect x="593.257" y="361.984" display="inline" fill="#167F39" width="63.487" height="22.88"/>
	<path display="inline" fill="#45BF55" d="M688.067,2574.479c0,1.75-1.225,2.94-2.939,2.94c-1.681,0-2.906-1.19-2.906-2.94
		c0-1.715,1.226-2.905,2.906-2.905C686.843,2571.574,688.067,2572.764,688.067,2574.479z M687.053,2568.739h-3.641l-1.05-9.731
		v-6.23h5.74v6.23L687.053,2568.739z"/>
	<path display="inline" fill="#45BF55" d="M726.68,2645.083c0.069-5.006,3.045-7.945,7.98-7.945c4.655,0,7.526,2.17,7.526,6.09
		c0,5.321-5.356,5.951-5.356,10.151h-4.515c0-5.426,4.305-5.705,4.305-9.171c0-1.575-0.944-2.275-2.52-2.275
		c-1.751,0-2.73,1.016-2.766,3.186L726.68,2645.083z M737.426,2659.084c0,1.75-1.226,2.94-2.94,2.94s-2.905-1.19-2.905-2.94
		c0-1.715,1.19-2.905,2.905-2.905S737.426,2657.37,737.426,2659.084z"/>
	<path display="inline" fill="#45BF55" d="M615.972,380.45l-5.97-8.035v8.035h-1.889v-11.205h1.855l6.003,8.051v-8.051h1.856v11.205
		H615.972z"/>
	<path display="inline" fill="#45BF55" d="M628.756,376.192c0,2.561-1.809,4.322-4.434,4.322c-2.641,0-4.45-1.761-4.45-4.322
		c0-2.577,1.81-4.322,4.45-4.322C626.947,371.871,628.756,373.615,628.756,376.192z M621.713,376.209
		c0,1.648,1.072,2.769,2.609,2.769c1.521,0,2.593-1.121,2.593-2.769c0-1.633-1.072-2.753-2.593-2.753
		C622.785,373.456,621.713,374.576,621.713,376.209z"/>
	<path display="inline" fill="#45BF55" d="M638.355,380.45l-2.16-6.307l-2.161,6.307h-1.889l-3.138-8.516h1.889l2.209,6.691
		l2.145-6.691h1.905l2.161,6.691l2.177-6.691h1.873l-3.105,8.516H638.355z"/>
	<rect x="593.257" y="858.537" display="inline" fill="#167F39" width="63.487" height="22.88"/>
	<path display="inline" fill="#45BF55" d="M615.973,877.003l-5.971-8.035v8.035h-1.889v-11.205h1.856l6.003,8.051v-8.051h1.856
		v11.205H615.973z"/>
	<path display="inline" fill="#45BF55" d="M628.757,872.745c0,2.561-1.809,4.322-4.434,4.322c-2.642,0-4.45-1.761-4.45-4.322
		c0-2.577,1.809-4.322,4.45-4.322C626.948,868.423,628.757,870.168,628.757,872.745z M621.714,872.761
		c0,1.648,1.072,2.769,2.609,2.769c1.521,0,2.593-1.121,2.593-2.769c0-1.633-1.072-2.753-2.593-2.753
		C622.786,870.008,621.714,871.129,621.714,872.761z"/>
	<path display="inline" fill="#45BF55" d="M638.356,877.003l-2.16-6.307l-2.161,6.307h-1.889l-3.138-8.516h1.889l2.209,6.691
		l2.145-6.691h1.905l2.161,6.691l2.177-6.691h1.873l-3.105,8.516H638.356z"/>
	<rect x="593.257" y="2770.391" display="inline" fill="#167F39" width="63.487" height="22.88"/>
	<path display="inline" fill="#45BF55" d="M615.973,2788.857l-5.971-8.035v8.035h-1.889v-11.205h1.856l6.003,8.052v-8.052h1.856
		v11.205H615.973z"/>
	<path display="inline" fill="#45BF55" d="M628.757,2784.599c0,2.561-1.809,4.321-4.434,4.321c-2.642,0-4.45-1.761-4.45-4.321
		c0-2.577,1.809-4.322,4.45-4.322C626.948,2780.277,628.757,2782.022,628.757,2784.599z M621.714,2784.615
		c0,1.648,1.072,2.77,2.609,2.77c1.521,0,2.593-1.121,2.593-2.77c0-1.633-1.072-2.753-2.593-2.753
		C622.786,2781.862,621.714,2782.982,621.714,2784.615z"/>
	<path display="inline" fill="#45BF55" d="M638.356,2788.857l-2.16-6.307l-2.161,6.307h-1.889l-3.138-8.516h1.889l2.209,6.69
		l2.145-6.69h1.905l2.161,6.69l2.177-6.69h1.873l-3.105,8.516H638.356z"/>
	<rect x="593.257" y="2312.635" display="inline" fill="#167F39" width="63.487" height="22.88"/>
	<path display="inline" fill="#45BF55" d="M615.972,2331.101l-5.971-8.035v8.035h-1.889v-11.204h1.856l6.003,8.051v-8.051h1.856
		v11.204H615.972z"/>
	<path display="inline" fill="#45BF55" d="M628.756,2326.843c0,2.562-1.809,4.322-4.434,4.322c-2.642,0-4.45-1.761-4.45-4.322
		c0-2.577,1.809-4.321,4.45-4.321C626.947,2322.522,628.756,2324.266,628.756,2326.843z M621.713,2326.86
		c0,1.648,1.072,2.769,2.609,2.769c1.521,0,2.593-1.12,2.593-2.769c0-1.633-1.072-2.753-2.593-2.753
		C622.785,2324.107,621.713,2325.227,621.713,2326.86z"/>
	<path display="inline" fill="#45BF55" d="M638.355,2331.101l-2.16-6.307l-2.161,6.307h-1.889l-3.138-8.516h1.889l2.209,6.691
		l2.145-6.691h1.905l2.161,6.691l2.177-6.691h1.873l-3.105,8.516H638.355z"/>
	<rect x="593.257" y="1835.259" display="inline" fill="#167F39" width="63.487" height="22.88"/>
	<path display="inline" fill="#45BF55" d="M615.972,1853.725l-5.97-8.035v8.035h-1.889v-11.204h1.855l6.003,8.051v-8.051h1.856
		v11.204H615.972z"/>
	<path display="inline" fill="#45BF55" d="M628.756,1849.467c0,2.562-1.809,4.322-4.434,4.322c-2.641,0-4.45-1.761-4.45-4.322
		c0-2.577,1.81-4.321,4.45-4.321C626.947,1845.146,628.756,1846.89,628.756,1849.467z M621.713,1849.484
		c0,1.648,1.072,2.769,2.609,2.769c1.521,0,2.593-1.12,2.593-2.769c0-1.633-1.072-2.753-2.593-2.753
		C622.785,1846.731,621.713,1847.851,621.713,1849.484z"/>
	<path display="inline" fill="#45BF55" d="M638.355,1853.725l-2.16-6.307l-2.161,6.307h-1.889l-3.138-8.516h1.889l2.209,6.691
		l2.145-6.691h1.905l2.161,6.691l2.177-6.691h1.873l-3.105,8.516H638.355z"/>
	<rect x="557" y="3063.846" display="inline" fill="#167F39" width="129" height="34.667"/>
	<path display="inline" fill="#45BF55" d="M587.674,3071.52l-2.346,4.865c-2.59-1.505-5.846-2.556-7.841-2.556
		c-1.61,0-2.695,0.596-2.695,1.785c0,4.235,12.951,1.82,12.951,10.677c0,4.9-4.34,7.49-9.801,7.49c-4.096,0-8.296-1.54-11.201-3.92
		l2.415-4.796c2.521,2.205,6.301,3.676,8.856,3.676c1.96,0,3.186-0.735,3.186-2.136c0-4.34-12.952-1.75-12.952-10.431
		c0-4.516,3.886-7.386,9.767-7.386C581.548,3068.79,585.153,3069.875,587.674,3071.52z"/>
	<path display="inline" fill="#45BF55" d="M598.137,3093.572v-24.502h6.23v24.502H598.137z"/>
	<path display="inline" fill="#45BF55" d="M637.934,3081.111v9.556c-2.626,1.855-6.756,3.186-10.187,3.186
		c-7.456,0-13.091-5.391-13.091-12.531c0-7.105,5.775-12.461,13.511-12.461c3.641,0,7.491,1.399,10.012,3.64l-3.501,4.235
		c-1.785-1.645-4.271-2.66-6.546-2.66c-4.025,0-7.105,3.15-7.105,7.246c0,4.165,3.115,7.315,7.176,7.315
		c1.26,0,2.87-0.455,4.341-1.189v-6.336H637.934z"/>
	<path display="inline" fill="#45BF55" d="M666.388,3093.572l-11.271-15.086v15.086h-5.846v-24.502h5.496l11.306,15.121v-15.121
		h5.811v24.502H666.388z"/>
	<rect x="593.257" y="3278.966" display="inline" fill="#167F39" width="63.487" height="22.88"/>
	<path display="inline" fill="#45BF55" d="M615.971,3297.432l-5.97-8.035v8.035h-1.889v-11.204h1.856l6.002,8.051v-8.051h1.857
		v11.204H615.971z"/>
	<path display="inline" fill="#45BF55" d="M628.755,3293.174c0,2.562-1.809,4.322-4.434,4.322c-2.641,0-4.45-1.761-4.45-4.322
		c0-2.577,1.81-4.321,4.45-4.321C626.946,3288.853,628.755,3290.597,628.755,3293.174z M621.712,3293.191
		c0,1.648,1.073,2.769,2.609,2.769c1.521,0,2.593-1.12,2.593-2.769c0-1.633-1.072-2.753-2.593-2.753
		C622.785,3290.438,621.712,3291.558,621.712,3293.191z"/>
	<path display="inline" fill="#45BF55" d="M638.355,3297.432l-2.161-6.307l-2.161,6.307h-1.889l-3.137-8.516h1.889l2.209,6.691
		l2.145-6.691h1.904l2.161,6.691l2.177-6.691h1.873l-3.105,8.516H638.355z"/>
	<rect x="530" y="640.886" display="inline" fill="#167F39" width="30.333" height="37.333"/>
	<rect x="633" y="640.886" display="inline" fill="#167F39" width="109.486" height="33.667"/>
	<rect x="468.667" y="680.553" display="inline" fill="#167F39" width="137" height="39.333"/>
	<rect x="530" y="722.219" display="inline" fill="#167F39" width="122" height="44"/>
	<rect x="579" y="145.917" display="inline" fill="#167F39" width="41.48" height="51.667"/>
	<rect x="644.667" y="145.917" display="inline" fill="#167F39" width="31.333" height="51.667"/>
	<rect x="705" y="145.917" display="inline" fill="#167F39" width="31.333" height="51.667"/>
	<rect x="769" y="145.917" display="inline" fill="#167F39" width="61" height="51.667"/>
	<rect x="787.5" y="2049.106" display="inline" fill="#167F39" width="65.5" height="40.5"/>
	<rect x="571.5" y="2089.606" display="inline" fill="#167F39" width="201.5" height="40.5"/>
	<rect x="396" y="2130.106" display="inline" fill="#167F39" width="246.5" height="40.5"/>
	<rect x="453.5" y="2170.606" display="inline" fill="#167F39" width="337.5" height="46.5"/>
	<rect x="587.333" y="1597.275" display="inline" fill="#167F39" width="169.667" height="38"/>
	<rect x="739.667" y="1687.275" display="inline" fill="#167F39" width="14.667" height="38"/>
	<rect x="874" y="1597.275" display="inline" fill="#167F39" width="32.333" height="38"/>
	<rect x="430" y="1640.36" display="inline" fill="#167F39" width="410" height="34.582"/>
	<rect x="593.257" y="1361.354" display="inline" fill="#167F39" width="63.487" height="22.88"/>
	<path display="inline" fill="#45BF55" d="M615.971,1379.82l-5.97-8.035v8.035h-1.889v-11.205h1.856l6.002,8.051v-8.051h1.857
		v11.205H615.971z"/>
	<path display="inline" fill="#45BF55" d="M628.755,1375.562c0,2.561-1.809,4.322-4.434,4.322c-2.641,0-4.45-1.761-4.45-4.322
		c0-2.577,1.81-4.322,4.45-4.322C626.946,1371.24,628.755,1372.985,628.755,1375.562z M621.712,1375.578
		c0,1.648,1.073,2.769,2.609,2.769c1.521,0,2.593-1.121,2.593-2.769c0-1.633-1.072-2.753-2.593-2.753
		C622.785,1372.825,621.712,1373.945,621.712,1375.578z"/>
	<path display="inline" fill="#45BF55" d="M638.355,1379.82l-2.161-6.307l-2.161,6.307h-1.889l-3.137-8.516h1.889l2.209,6.691
		l2.145-6.691h1.904l2.161,6.691l2.177-6.691h1.873l-3.105,8.516H638.355z"/>
	<rect x="656.333" y="1185.37" display="inline" fill="#167F39" width="331.667" height="34"/>
	<path display="inline" fill="#45BF55" d="M689.523,1201.98c0,7.141-5.67,12.566-13.266,12.566c-7.561,0-13.232-5.391-13.232-12.566
		c0-7.141,5.672-12.426,13.232-12.426C683.854,1189.553,689.523,1194.874,689.523,1201.98z M669.396,1202.014
		c0,4.13,3.186,7.316,6.932,7.316c3.779,0,6.79-3.186,6.79-7.316s-3.011-7.246-6.79-7.246
		C672.547,1194.769,669.396,1197.884,669.396,1202.014z"/>
	<path display="inline" fill="#45BF55" d="M710.942,1207.37h-0.175h-4.727v6.896h-6.23v-24.502h10.957
		c6.475,0,10.186,3.08,10.186,8.541c0,3.746-1.575,6.441-4.445,7.876l5.146,8.086h-7.071L710.942,1207.37z M710.768,1202.469
		c2.695,0,4.27-1.365,4.27-3.955c0-2.556-1.574-3.851-4.27-3.851h-4.727v7.806H710.768z"/>
	<path display="inline" fill="#45BF55" d="M743.492,1194.769v19.497h-6.23v-19.497h-7.316v-5.041h20.933v5.041H743.492z"/>
	<path display="inline" fill="#45BF55" d="M760.535,1214.266v-24.502h6.23v24.502H760.535z"/>
	<path display="inline" fill="#45BF55" d="M795.293,1209.05v5.215h-16.627v-24.502h6.23v19.287H795.293z"/>
	<path display="inline" fill="#45BF55" d="M821.893,1209.05v5.215h-16.627v-24.502h6.23v19.287H821.893z"/>
	<path display="inline" fill="#45BF55" d="M837.535,1209.75l-1.785,4.516h-6.405l10.571-24.502h6.404l10.326,24.502h-6.65
		l-1.75-4.516H837.535z M842.926,1195.959l-3.57,9.066h7.07L842.926,1195.959z"/>
	<path display="inline" fill="#45BF55" d="M902.393,1193.684l-3.605,4.271c-1.611-1.96-3.99-3.186-6.162-3.186
		c-3.885,0-6.824,3.081-6.824,7.106c0,4.095,2.939,7.21,6.824,7.21c2.066,0,4.445-1.12,6.162-2.87l3.641,3.851
		c-2.627,2.695-6.512,4.48-10.117,4.48c-7.385,0-12.881-5.426-12.881-12.602c0-7.071,5.635-12.391,13.092-12.391
		C896.162,1189.553,899.941,1191.163,902.393,1193.684z"/>
	<path display="inline" fill="#45BF55" d="M928.641,1214.266v-9.521h-10.15v9.521h-6.23v-24.502h6.23v10.081h10.15v-10.081h6.23
		v24.502H928.641z"/>
	<path display="inline" fill="#45BF55" d="M946.77,1214.266v-24.502H953v24.502H946.77z"/>
	<path display="inline" fill="#45BF55" d="M975.574,1189.763c6.266,0,9.871,3.08,9.871,8.541c0,5.741-3.605,9.066-9.871,9.066
		h-4.445v6.896h-6.23v-24.502H975.574z M971.129,1202.469h4.131c2.73,0,4.307-1.365,4.307-3.955c0-2.556-1.576-3.851-4.307-3.851
		h-4.131V1202.469z"/>
	<path display="inline" fill="#45BF55" d="M1014.775,1192.214l-2.346,4.865c-2.59-1.505-5.846-2.555-7.84-2.555
		c-1.609,0-2.695,0.595-2.695,1.785c0,4.235,12.951,1.82,12.951,10.676c0,4.9-4.34,7.491-9.801,7.491
		c-4.096,0-8.297-1.54-11.201-3.92l2.416-4.795c2.52,2.205,6.299,3.675,8.855,3.675c1.959,0,3.186-0.735,3.186-2.135
		c0-4.34-12.951-1.75-12.951-10.431c0-4.515,3.885-7.386,9.766-7.386C1008.65,1189.483,1012.256,1190.568,1014.775,1192.214z"/>
</g>
</svg>
