<?xml version="1.0" encoding="utf-8"?>
<!-- Generator: Adobe Illustrator 17.0.0, SVG Export Plug-In . SVG Version: 6.00 Build 0)  -->
<!DOCTYPE svg PUBLIC "-//W3C//DTD SVG 1.1//EN" "http://www.w3.org/Graphics/SVG/1.1/DTD/svg11.dtd">
<svg version="1.1" id="Layer_1" xmlns="http://www.w3.org/2000/svg" xmlns:xlink="http://www.w3.org/1999/xlink" x="0px" y="0px"
	 width="295px" height="300px" viewBox="0 0 295 300" enable-background="new 0 0 295 300" xml:space="preserve">
<g id="Layer_9">
</g>
<g id="Layer_3">
	<g>
		<g enable-background="new    ">
			<path fill="#2F343B" d="M65.485,101.717v2.78h6.682v2.801h-6.682v2.82h7.622v2.801H61.925V98.916h10.962v2.801H65.485z"/>
			<path fill="#2F343B" d="M83.426,112.919l-5.441-14.003h3.801l3.581,10.302l3.581-10.302h3.661l-5.501,14.003H83.426z"/>
			<path fill="#2F343B" d="M101.545,101.717v2.78h6.682v2.801h-6.682v2.82h7.622v2.801H97.984V98.916h10.962v2.801H101.545z"/>
			<path fill="#2F343B" d="M121.826,108.979h-0.1h-2.701v3.94h-3.561V98.916h6.261c3.701,0,5.821,1.761,5.821,4.881
				c0,2.141-0.9,3.681-2.541,4.501l2.94,4.621h-4.041L121.826,108.979z M121.726,106.178c1.541,0,2.44-0.78,2.44-2.261
				c0-1.46-0.9-2.2-2.44-2.2h-2.701v4.461H121.726z"/>
			<path fill="#2F343B" d="M141.026,112.919h-3.541v-4.421l-5.181-9.582h3.561l3.38,6.102l3.301-6.102h3.561l-5.081,9.482V112.919z"
				/>
			<path fill="#2F343B" d="M157.886,101.776v11.143h-3.562v-11.143h-4.181v-2.881h11.963v2.881H157.886z"/>
			<path fill="#2F343B" d="M176.986,112.919v-5.441h-5.802v5.441h-3.561V98.916h3.561v5.761h5.802v-5.761h3.561v14.003H176.986z"/>
			<path fill="#2F343B" d="M187.344,112.919V98.916h3.561v14.003H187.344z"/>
			<path fill="#2F343B" d="M207.486,112.919l-6.441-8.622v8.622h-3.341V98.916h3.141l6.461,8.642v-8.642h3.321v14.003H207.486z"/>
			<path fill="#2F343B" d="M229.806,105.798v5.461c-1.5,1.06-3.86,1.82-5.82,1.82c-4.262,0-7.482-3.081-7.482-7.162
				c0-4.061,3.301-7.121,7.722-7.121c2.081,0,4.281,0.8,5.722,2.08l-2.001,2.421c-1.02-0.94-2.44-1.521-3.74-1.521
				c-2.301,0-4.061,1.801-4.061,4.141c0,2.381,1.78,4.182,4.101,4.182c0.72,0,1.641-0.261,2.48-0.681v-3.62H229.806z"/>
		</g>
		<g enable-background="new    ">
			<path fill="#2F343B" d="M33.705,136.919v-14.003h3.561v14.003H33.705z"/>
			<path fill="#2F343B" d="M53.847,136.919l-6.441-8.622v8.622h-3.341v-14.003h3.141l6.461,8.642v-8.642h3.321v14.003H53.847z"/>
			<path fill="#2F343B" d="M84.667,136.919l-0.02-9.102l-3.361,7.701h-2.32l-3.361-7.701v9.102h-3.181v-14.023h3.901l3.801,8.342
				l3.801-8.342h3.881v14.023H84.667z"/>
			<path fill="#2F343B" d="M108.847,129.897c0,4.081-3.241,7.182-7.582,7.182c-4.321,0-7.562-3.081-7.562-7.182
				c0-4.081,3.241-7.102,7.562-7.102C105.606,122.796,108.847,125.837,108.847,129.897z M97.345,129.917
				c0,2.361,1.82,4.182,3.96,4.182c2.161,0,3.881-1.82,3.881-4.182c0-2.36-1.72-4.141-3.881-4.141
				C99.145,125.776,97.345,127.557,97.345,129.917z"/>
			<path fill="#2F343B" d="M120.745,122.916c4.401,0,7.442,2.841,7.442,7.001c0,4.142-3.081,7.002-7.582,7.002h-5.881v-14.003
				H120.745z M118.285,134.078h2.541c2.181,0,3.741-1.68,3.741-4.141c0-2.48-1.64-4.181-3.9-4.181h-2.381V134.078z"/>
			<path fill="#2F343B" d="M137.625,125.717v2.78h6.682v2.801h-6.682v2.82h7.622v2.801h-11.182v-14.003h10.962v2.801H137.625z"/>
			<path fill="#2F343B" d="M157.905,132.979h-0.1h-2.701v3.94h-3.561v-14.003h6.262c3.7,0,5.821,1.761,5.821,4.881
				c0,2.141-0.9,3.681-2.541,4.501l2.94,4.621h-4.04L157.905,132.979z M157.806,130.178c1.54,0,2.44-0.78,2.44-2.261
				c0-1.46-0.9-2.2-2.44-2.2h-2.701v4.461H157.806z"/>
			<path fill="#2F343B" d="M173.205,134.339l-1.021,2.58h-3.661l6.042-14.003h3.66l5.901,14.003h-3.801l-1-2.58H173.205z
				 M176.285,126.457l-2.04,5.181h4.041L176.285,126.457z"/>
			<path fill="#2F343B" d="M194.405,125.776v11.143h-3.562v-11.143h-4.181v-2.881h11.963v2.881H194.405z"/>
			<path fill="#2F343B" d="M204.144,136.919v-14.003h3.561v14.003H204.144z"/>
			<path fill="#2F343B" d="M228.727,129.897c0,4.081-3.24,7.182-7.582,7.182c-4.32,0-7.562-3.081-7.562-7.182
				c0-4.081,3.241-7.102,7.562-7.102C225.486,122.796,228.727,125.837,228.727,129.897z M217.225,129.917
				c0,2.361,1.82,4.182,3.96,4.182c2.161,0,3.881-1.82,3.881-4.182c0-2.36-1.72-4.141-3.881-4.141
				C219.024,125.776,217.225,127.557,217.225,129.917z"/>
			<path fill="#2F343B" d="M244.386,136.919l-6.441-8.622v8.622h-3.341v-14.003h3.141l6.461,8.642v-8.642h3.321v14.003H244.386z"/>
			<path fill="#2F343B" d="M257.004,135.398c0,0.5-0.18,0.92-0.44,1.32l-1.46,2.12h-1.641l0.9-2.14
				c-0.46-0.301-0.66-0.78-0.66-1.301c0-0.96,0.7-1.641,1.66-1.641C256.244,133.758,257.004,134.339,257.004,135.398z"/>
		</g>
		<g enable-background="new    ">
			<path fill="#2F343B" d="M68.435,149.717v2.78h6.682v2.801h-6.682v2.82h7.622v2.801H64.875v-14.003h10.962v2.801H68.435z"/>
			<path fill="#2F343B" d="M95.497,160.919h-4.261l-3.021-4.461l-3.021,4.461h-4.141l5.001-7.161l-4.681-6.842h4.141l2.701,4.081
				l2.7-4.081h4.181l-4.621,6.682L95.497,160.919z"/>
			<path fill="#2F343B" d="M113.017,149.156l-2.061,2.44c-0.92-1.12-2.28-1.82-3.521-1.82c-2.22,0-3.9,1.761-3.9,4.062
				c0,2.34,1.68,4.12,3.9,4.12c1.181,0,2.541-0.64,3.521-1.64l2.081,2.2c-1.5,1.54-3.721,2.561-5.781,2.561
				c-4.221,0-7.362-3.101-7.362-7.201c0-4.041,3.221-7.082,7.482-7.082C109.456,146.796,111.617,147.716,113.017,149.156z"/>
			<path fill="#2F343B" d="M122.215,149.717v2.78h6.682v2.801h-6.682v2.82h7.622v2.801h-11.182v-14.003h10.962v2.801H122.215z"/>
			<path fill="#2F343B" d="M142.235,146.916c3.581,0,5.641,1.761,5.641,4.881c0,3.281-2.06,5.182-5.641,5.182h-2.541v3.94h-3.561
				v-14.003H142.235z M139.695,154.178h2.361c1.56,0,2.46-0.78,2.46-2.261c0-1.46-0.9-2.2-2.46-2.2h-2.361V154.178z"/>
			<path fill="#2F343B" d="M160.216,149.776v11.143h-3.562v-11.143h-4.181v-2.881h11.963v2.881H160.216z"/>
			<path fill="#2F343B" d="M182.154,149.717v3.24h6.281v2.801h-6.281v5.161h-3.561v-14.003h10.383v2.801H182.154z"/>
			<path fill="#2F343B" d="M208.896,153.897c0,4.081-3.24,7.182-7.582,7.182c-4.32,0-7.562-3.081-7.562-7.182
				c0-4.081,3.241-7.102,7.562-7.102C205.656,146.796,208.896,149.837,208.896,153.897z M197.395,153.917
				c0,2.361,1.82,4.182,3.96,4.182c2.161,0,3.881-1.82,3.881-4.182c0-2.36-1.72-4.141-3.881-4.141
				C199.194,149.776,197.395,151.557,197.395,153.917z"/>
			<path fill="#2F343B" d="M221.135,156.979h-0.1h-2.701v3.94h-3.561v-14.003h6.262c3.7,0,5.821,1.761,5.821,4.881
				c0,2.141-0.9,3.681-2.541,4.501l2.94,4.621h-4.04L221.135,156.979z M221.035,154.178c1.54,0,2.44-0.78,2.44-2.261
				c0-1.46-0.9-2.2-2.44-2.2h-2.701v4.461H221.035z"/>
		</g>
		<g enable-background="new    ">
			<path fill="#2F343B" d="M67.896,173.776v11.143h-3.561v-11.143h-4.181v-2.881h11.962v2.881H67.896z"/>
			<path fill="#2F343B" d="M81.195,173.717v2.78h6.682v2.801h-6.682v2.82h7.622v2.801H77.634v-14.003h10.962v2.801H81.195z"/>
			<path fill="#2F343B" d="M107.357,184.919l-0.02-9.102l-3.361,7.701h-2.32l-3.361-7.701v9.102h-3.181v-14.023h3.901l3.801,8.342
				l3.801-8.342h3.881v14.023H107.357z"/>
			<path fill="#2F343B" d="M123.415,170.916c3.581,0,5.641,1.761,5.641,4.881c0,3.281-2.06,5.182-5.641,5.182h-2.541v3.94h-3.561
				v-14.003H123.415z M120.875,178.178h2.361c1.56,0,2.46-0.78,2.46-2.261c0-1.46-0.9-2.2-2.46-2.2h-2.361V178.178z"/>
			<path fill="#2F343B" d="M141.396,173.776v11.143h-3.561v-11.143h-4.181v-2.881h11.962v2.881H141.396z"/>
			<path fill="#2F343B" d="M152.814,182.339l-1.021,2.58h-3.66l6.041-14.003h3.661l5.901,14.003h-3.801l-1.001-2.58H152.814z
				 M155.896,174.457l-2.041,5.181h4.041L155.896,174.457z"/>
			<path fill="#2F343B" d="M174.016,173.776v11.143h-3.562v-11.143h-4.181v-2.881h11.963v2.881H174.016z"/>
			<path fill="#2F343B" d="M183.754,184.919v-14.003h3.561v14.003H183.754z"/>
			<path fill="#2F343B" d="M208.337,177.897c0,4.081-3.241,7.182-7.582,7.182c-4.321,0-7.562-3.081-7.562-7.182
				c0-4.081,3.24-7.102,7.562-7.102C205.096,170.796,208.337,173.837,208.337,177.897z M196.834,177.917
				c0,2.361,1.82,4.182,3.961,4.182c2.16,0,3.881-1.82,3.881-4.182c0-2.36-1.721-4.141-3.881-4.141S196.834,175.557,196.834,177.917
				z"/>
			<path fill="#2F343B" d="M223.996,184.919l-6.441-8.622v8.622h-3.341v-14.003h3.141l6.461,8.642v-8.642h3.321v14.003H223.996z"/>
		</g>
	</g>
	<g>
		<g enable-background="new    ">
			<path fill="#2F343B" d="M111.766,26.426v-5.391h-7.386v5.391h-1.4V14.175h1.4v5.53h7.386v-5.53h1.4v12.251H111.766z"/>
			<path fill="#2F343B" d="M124.628,22.348h-7.526c0.245,1.803,1.558,2.94,3.343,2.94c1.137,0,2.135-0.402,2.853-1.155l0.752,0.806
				c-0.875,0.979-2.17,1.54-3.71,1.54c-2.713,0-4.586-1.908-4.586-4.655c0-2.748,1.891-4.656,4.568-4.656
				C123.298,17.15,124.769,19.215,124.628,22.348z M123.403,21.228c-0.087-1.768-1.277-2.888-3.08-2.888
				c-1.75,0-3.01,1.138-3.221,2.888H123.403z"/>
			<path fill="#2F343B" d="M135.443,26.426h-1.365v-1.978c-0.683,1.295-1.943,2.048-3.588,2.048c-2.625,0-4.446-1.943-4.446-4.69
				c0-2.766,1.82-4.674,4.428-4.674c1.645,0,2.923,0.753,3.605,2.065V13.44h1.365V26.426z M134.078,21.84
				c0-2.013-1.383-3.465-3.326-3.465c-1.96,0-3.343,1.452-3.343,3.465c0,1.996,1.383,3.431,3.343,3.431
				C132.695,25.271,134.078,23.836,134.078,21.84z"/>
			<path fill="#2F343B" d="M147.273,21.806c0,2.765-1.943,4.673-4.673,4.673c-2.73,0-4.673-1.908-4.673-4.673
				c0-2.748,1.943-4.639,4.673-4.639C145.33,17.167,147.273,19.058,147.273,21.806z M139.292,21.824c0,2.029,1.383,3.43,3.308,3.43
				s3.308-1.4,3.308-3.43c0-2.013-1.382-3.413-3.308-3.413S139.292,19.811,139.292,21.824z"/>
			<path fill="#2F343B" d="M158.105,20.738v5.688h-1.365v-5.32c0-1.628-0.98-2.591-2.608-2.591
				c-1.819,0.018-2.939,1.208-3.098,2.958v4.953h-1.365v-9.224h1.365v2.03c0.647-1.4,1.891-2.065,3.57-2.083
				C156.81,17.15,158.105,18.515,158.105,20.738z"/>
			<path fill="#2F343B" d="M162.707,14.56c0,0.543-0.385,0.945-0.893,0.945s-0.893-0.402-0.893-0.945s0.385-0.945,0.893-0.945
				S162.707,14.017,162.707,14.56z M161.149,26.426v-9.224h1.348v9.224H161.149z"/>
			<path fill="#2F343B" d="M171.212,17.991l-0.524,1.085c-0.718-0.455-1.646-0.753-2.503-0.753c-1.033,0-1.82,0.368-1.82,1.226
				c0,2.048,5.146,0.997,5.146,4.305c0,1.82-1.61,2.626-3.378,2.626c-1.312,0-2.66-0.455-3.535-1.295l0.524-1.033
				c0.788,0.735,1.979,1.173,3.063,1.173s1.96-0.402,1.978-1.312c0.053-2.223-5.11-1.085-5.093-4.358
				c0-1.768,1.522-2.503,3.202-2.503C169.374,17.15,170.442,17.465,171.212,17.991z"/>
			<path fill="#2F343B" d="M188.993,20.738v5.688h-1.365v-5.32c0-1.646-0.963-2.608-2.556-2.608c-1.907,0.053-3.01,1.418-3.01,3.396
				v4.533h-1.383v-5.32c0-1.646-0.945-2.608-2.556-2.608c-1.89,0.053-3.027,1.418-3.027,3.396v4.533h-1.348v-9.224h1.348v2.083
				c0.612-1.436,1.855-2.118,3.518-2.136c1.732,0,2.923,0.893,3.308,2.416c0.578-1.628,1.873-2.398,3.641-2.416
				C187.715,17.15,188.993,18.515,188.993,20.738z"/>
		</g>
	</g>
	
		<line fill="none" stroke="#2F343B" stroke-width="0.875" stroke-linecap="round" stroke-miterlimit="10" x1="101.458" y1="30.538" x2="190.542" y2="30.538"/>
	<g>
		<g enable-background="new    ">
			<path fill="#2F343B" d="M132.961,264.873v8.727h-1.121v-8.727h-3.193v-1.079h7.522v1.079H132.961z"/>
			<path fill="#2F343B" d="M143.66,269.047v4.553h-1.093v-4.258c0-1.303-0.784-2.073-2.087-2.073
				c-1.569,0.014-2.494,1.12-2.494,2.703v3.628h-1.092v-10.394h1.092v4.664c0.504-1.148,1.513-1.681,2.872-1.694
				C142.623,266.176,143.66,267.269,143.66,269.047z"/>
			<path fill="#2F343B" d="M152.45,270.336h-6.022c0.196,1.442,1.247,2.354,2.675,2.354c0.911,0,1.709-0.322,2.283-0.925
				l0.603,0.645c-0.7,0.784-1.736,1.232-2.97,1.232c-2.171,0-3.669-1.526-3.669-3.726s1.513-3.727,3.656-3.727
				C151.386,266.176,152.562,267.828,152.45,270.336z M151.47,269.439c-0.069-1.415-1.022-2.312-2.465-2.312
				c-1.4,0-2.409,0.911-2.577,2.312H151.47z"/>
			<path fill="#2F343B" d="M161.075,269.047v4.553h-1.093v-4.258c0-1.303-0.784-2.073-2.087-2.073
				c-1.457,0.014-2.354,0.966-2.479,2.367v3.964h-1.093v-7.382h1.093v1.625c0.519-1.121,1.513-1.653,2.857-1.667
				C160.039,266.176,161.075,267.269,161.075,269.047z"/>
		</g>
	</g>
</g>
<g id="Layer_5" display="none">
	<rect x="117.966" y="257.791" display="inline" fill="#E3D9C8" width="55.551" height="20.02"/>
	<g display="inline">
		<text transform="matrix(1 0 0 1 129.537 273.5566)" fill="#2F343B" font-family="'Montserrat-Regular'" font-size="14">Now</text>
	</g>
	<rect x="76.167" y="165.517" display="inline" fill="#E3D9C8" width="168.333" height="26.333"/>
	<g display="inline">
		
			<text transform="matrix(1 0 0 1 77.1071 184.5853)" fill="#2F343B" font-family="'Montserrat-Bold'" font-size="20" letter-spacing="4">ORTILLA</text>
	</g>
	<g display="inline">
		
			<text transform="matrix(1 0 0 1 81.7738 207.9185)" fill="#2F343B" font-family="'Montserrat-Bold'" font-size="20" letter-spacing="4">CHIPS</text>
	</g>
</g>
</svg>
