<?xml version="1.0" encoding="utf-8"?>
<!-- Generator: Adobe Illustrator 17.0.0, SVG Export Plug-In . SVG Version: 6.00 Build 0)  -->
<!DOCTYPE svg PUBLIC "-//W3C//DTD SVG 1.1//EN" "http://www.w3.org/Graphics/SVG/1.1/DTD/svg11.dtd">
<svg version="1.1" id="Layer_1" xmlns="http://www.w3.org/2000/svg" xmlns:xlink="http://www.w3.org/1999/xlink" x="0px" y="0px"
	 width="295px" height="300px" viewBox="0 0 295 300" enable-background="new 0 0 295 300" xml:space="preserve">
<g id="Layer_9">
</g>
<g id="Layer_3" display="none">
	<g display="inline">
		
			<text transform="matrix(1 0 0 1 36.8402 112.9172)" fill="#2F343B" font-family="'Montserrat-Bold'" font-size="20" letter-spacing="4">I’LL TRY TO GET </text>
		
			<text transform="matrix(1 0 0 1 50.5602 136.9172)" fill="#2F343B" font-family="'Montserrat-Bold'" font-size="20" letter-spacing="4">A DECENT JOB</text>
		
			<text transform="matrix(1 0 0 1 77.6302 160.9172)" fill="#2F343B" font-family="'Montserrat-Bold'" font-size="20" letter-spacing="4">WITH THIS</text>
		
			<text transform="matrix(1 0 0 1 68.2402 184.9172)" fill="#2F343B" font-family="'Montserrat-Bold'" font-size="20" letter-spacing="4">ECONOMICS</text>
		
			<text transform="matrix(1 0 0 1 94.9402 208.9172)" fill="#2F343B" font-family="'Montserrat-Bold'" font-size="20" letter-spacing="4">DEGREE</text>
	</g>
	<g display="inline">
		<text transform="matrix(1 0 0 1 116.0606 26.4265)" fill="#2F343B" font-family="'Montserrat-Light'" font-size="17.5">Calling</text>
	</g>
	
		<line display="inline" fill="none" stroke="#2F343B" stroke-width="0.875" stroke-linecap="round" stroke-miterlimit="10" x1="118.325" y1="30.538" x2="162.658" y2="30.538"/>
	<g display="inline">
		<text transform="matrix(1 0 0 1 128.4933 273.6003)" fill="#2F343B" font-family="'Montserrat-Light'" font-size="14">Then</text>
	</g>
</g>
<g id="Layer_5">
	<rect x="110.75" y="122.614" fill="#E3D9C8" width="71.851" height="18"/>
	<g>
		<g enable-background="new    ">
			<path fill="#2F343B" d="M124.934,126.487l-1.34,2.78c-1.48-0.86-3.341-1.46-4.481-1.46c-0.92,0-1.541,0.34-1.541,1.021
				c0,2.42,7.402,1.04,7.402,6.101c0,2.801-2.48,4.281-5.602,4.281c-2.34,0-4.741-0.88-6.401-2.24l1.38-2.741
				c1.44,1.261,3.601,2.101,5.061,2.101c1.121,0,1.821-0.42,1.821-1.22c0-2.48-7.402-1.001-7.402-5.962
				c0-2.58,2.221-4.221,5.581-4.221C121.433,124.927,123.493,125.547,124.934,126.487z"/>
			<path fill="#2F343B" d="M130.911,139.09v-14.003h3.561v14.003H130.911z"/>
			<path fill="#2F343B" d="M153.653,131.969v5.461c-1.5,1.06-3.86,1.82-5.821,1.82c-4.261,0-7.482-3.081-7.482-7.162
				c0-4.061,3.301-7.121,7.722-7.121c2.08,0,4.281,0.8,5.721,2.08l-2,2.421c-1.021-0.94-2.44-1.521-3.741-1.521
				c-2.3,0-4.06,1.801-4.06,4.141c0,2.381,1.78,4.182,4.1,4.182c0.721,0,1.641-0.261,2.48-0.681v-3.62L153.653,131.969
				L153.653,131.969z"/>
			<path fill="#2F343B" d="M169.913,139.09l-6.441-8.622v8.622h-3.341v-14.003h3.141l6.461,8.642v-8.642h3.321v14.003
				L169.913,139.09L169.913,139.09z"/>
		</g>
	</g>
	<rect x="117.966" y="257.791" fill="#E3D9C8" width="55.551" height="20.02"/>
	<g>
		<g enable-background="new    ">
			<path fill="#2F343B" d="M137.704,273.558l-5.225-7.032v7.032h-1.653v-9.806h1.625l5.253,7.046v-7.046h1.625v9.806H137.704z"/>
			<path fill="#2F343B" d="M148.89,269.832c0,2.241-1.583,3.781-3.88,3.781c-2.311,0-3.894-1.54-3.894-3.781
				c0-2.256,1.583-3.782,3.894-3.782C147.307,266.05,148.89,267.576,148.89,269.832z M142.726,269.846
				c0,1.442,0.938,2.423,2.283,2.423c1.331,0,2.27-0.98,2.27-2.423c0-1.429-0.939-2.409-2.27-2.409
				C143.665,267.437,142.726,268.417,142.726,269.846z"/>
			<path fill="#2F343B" d="M157.29,273.558l-1.892-5.519l-1.891,5.519h-1.653l-2.745-7.452h1.653l1.933,5.855l1.877-5.855h1.667
				l1.891,5.855l1.905-5.855h1.639l-2.717,7.452H157.29z"/>
		</g>
	</g>
</g>
</svg>
