<?xml version="1.0" encoding="utf-8"?>
<!-- Generator: Adobe Illustrator 17.0.0, SVG Export Plug-In . SVG Version: 6.00 Build 0)  -->
<!DOCTYPE svg PUBLIC "-//W3C//DTD SVG 1.1//EN" "http://www.w3.org/Graphics/SVG/1.1/DTD/svg11.dtd">
<svg version="1.1" id="Layer_1" xmlns="http://www.w3.org/2000/svg" xmlns:xlink="http://www.w3.org/1999/xlink" x="0px" y="0px"
	 width="295px" height="300px" viewBox="0 0 295 300" enable-background="new 0 0 295 300" xml:space="preserve">
<g id="Layer_9">
</g>
<g id="Layer_3">
	<g>
		<g enable-background="new    ">
			<path fill="#2F343B" d="M25.225,116.751l-2.601-9.682l-2.641,9.682h-3.681l-4.581-14.003h3.801l2.741,10.302l2.681-10.302h3.48
				l2.741,10.302l2.701-10.302h3.641l-4.621,14.003H25.225z"/>
			<path fill="#2F343B" d="M48.125,116.751v-5.441h-5.801v5.441h-3.561v-14.003h3.561v5.761h5.801v-5.761h3.561v14.003H48.125z"/>
			<path fill="#2F343B" d="M61.663,114.171l-1.021,2.58h-3.661l6.042-14.003h3.661l5.901,14.003h-3.801l-1-2.58H61.663z
				 M64.744,106.289l-2.041,5.181h4.041L64.744,106.289z"/>
			<path fill="#2F343B" d="M82.864,105.608v11.143h-3.561v-11.143h-4.181v-2.881h11.962v2.881H82.864z"/>
			<path fill="#2F343B" d="M113.325,116.751l-2.601-9.682l-2.641,9.682h-3.681l-4.581-14.003h3.801l2.741,10.302l2.681-10.302h3.48
				l2.741,10.302l2.701-10.302h3.641l-4.621,14.003H113.325z"/>
			<path fill="#2F343B" d="M126.862,116.751v-14.003h3.561v14.003H126.862z"/>
			<path fill="#2F343B" d="M146.724,113.771v2.98h-9.502v-14.003h3.561v11.022H146.724z"/>
			<path fill="#2F343B" d="M161.924,113.771v2.98h-9.502v-14.003h3.561v11.022H161.924z"/>
			<path fill="#2F343B" d="M176.262,116.751v-14.003h3.561v14.003H176.262z"/>
			<path fill="#2F343B" d="M201.282,102.748c4.401,0,7.441,2.841,7.441,7.001c0,4.142-3.08,7.002-7.581,7.002h-5.882v-14.003
				H201.282z M198.821,113.91h2.541c2.181,0,3.74-1.68,3.74-4.141c0-2.48-1.64-4.181-3.9-4.181h-2.381V113.91z"/>
			<path fill="#2F343B" d="M228.564,109.729c0,4.081-3.241,7.182-7.582,7.182c-4.321,0-7.562-3.081-7.562-7.182
				c0-4.081,3.24-7.102,7.562-7.102C225.323,102.628,228.564,105.669,228.564,109.729z M217.062,109.749
				c0,2.361,1.82,4.182,3.961,4.182c2.16,0,3.881-1.82,3.881-4.182c0-2.36-1.721-4.141-3.881-4.141S217.062,107.389,217.062,109.749
				z"/>
			<path fill="#2F343B" d="M249.562,105.608v11.143h-3.562v-11.143h-4.181v-2.881h11.963v2.881H249.562z"/>
			<path fill="#2F343B" d="M272.804,109.729c0,4.081-3.24,7.182-7.582,7.182c-4.32,0-7.562-3.081-7.562-7.182
				c0-4.081,3.241-7.102,7.562-7.102C269.563,102.628,272.804,105.669,272.804,109.729z M261.302,109.749
				c0,2.361,1.82,4.182,3.96,4.182c2.161,0,3.881-1.82,3.881-4.182c0-2.36-1.72-4.141-3.881-4.141
				C263.102,105.608,261.302,107.389,261.302,109.749z"/>
		</g>
		<g enable-background="new    ">
			<path fill="#2F343B" d="M69.032,129.549v3.24h6.281v2.801h-6.281v5.161h-3.561v-14.003h10.382v2.801H69.032z"/>
			<path fill="#2F343B" d="M95.774,133.729c0,4.081-3.241,7.182-7.582,7.182c-4.321,0-7.562-3.081-7.562-7.182
				c0-4.081,3.241-7.102,7.562-7.102C92.533,126.628,95.774,129.669,95.774,133.729z M84.271,133.749c0,2.361,1.82,4.182,3.96,4.182
				c2.161,0,3.881-1.82,3.881-4.182c0-2.36-1.72-4.141-3.881-4.141C86.072,129.608,84.271,131.389,84.271,133.749z"/>
			<path fill="#2F343B" d="M108.012,136.811h-0.1h-2.701v3.94h-3.561v-14.003h6.261c3.701,0,5.821,1.761,5.821,4.881
				c0,2.141-0.9,3.681-2.541,4.501l2.94,4.621h-4.041L108.012,136.811z M107.912,134.01c1.541,0,2.44-0.78,2.44-2.261
				c0-1.46-0.9-2.2-2.44-2.2h-2.701v4.461H107.912z"/>
			<path fill="#2F343B" d="M126.612,129.608v11.143h-3.561v-11.143h-4.181v-2.881h11.962v2.881H126.612z"/>
			<path fill="#2F343B" d="M136.351,140.751v-14.003h3.561v14.003H136.351z"/>
			<path fill="#2F343B" d="M150.271,129.549v3.24h6.281v2.801h-6.281v5.161h-3.561v-14.003h10.382v2.801H150.271z"/>
			<path fill="#2F343B" d="M170.013,140.751h-3.541v-4.421l-5.182-9.582h3.562l3.38,6.102l3.301-6.102h3.562l-5.081,9.482V140.751z"
				/>
			<path fill="#2F343B" d="M201.272,140.751l-0.02-9.102l-3.361,7.701h-2.32l-3.36-7.701v9.102h-3.181v-14.023h3.9l3.801,8.342
				l3.801-8.342h3.881v14.023H201.272z"/>
			<path fill="#2F343B" d="M218.452,140.751h-3.541v-4.421l-5.182-9.582h3.562l3.38,6.102l3.301-6.102h3.562l-5.081,9.482V140.751z"
				/>
		</g>
		<g enable-background="new    ">
			<path fill="#2F343B" d="M34.304,164.751l-2.601-9.682l-2.641,9.682h-3.681l-4.581-14.003h3.801l2.741,10.302l2.681-10.302h3.48
				l2.741,10.302l2.701-10.302h3.641l-4.621,14.003H34.304z"/>
			<path fill="#2F343B" d="M51.402,153.549v2.78h6.682v2.801h-6.682v2.82h7.622v2.801H47.841v-14.003h10.962v2.801H51.402z"/>
			<path fill="#2F343B" d="M68.501,162.171l-1.021,2.58H63.82l6.042-14.003h3.661l5.901,14.003h-3.801l-1-2.58H68.501z
				 M71.582,154.289l-2.041,5.181h4.041L71.582,154.289z"/>
			<path fill="#2F343B" d="M90.142,159.25l-1.86,2.061v3.44h-3.561v-14.003h3.561v6.062l5.361-6.062h4.121l-5.201,5.801l5.541,8.202
				h-4.261L90.142,159.25z"/>
			<path fill="#2F343B" d="M107.221,153.549v2.78h6.682v2.801h-6.682v2.82h7.622v2.801h-11.182v-14.003h10.962v2.801H107.221z"/>
			<path fill="#2F343B" d="M130.923,164.751l-6.441-8.622v8.622h-3.341v-14.003h3.141l6.461,8.642v-8.642h3.321v14.003H130.923z"/>
			<path fill="#2F343B" d="M144.421,153.549v2.78h6.682v2.801h-6.682v2.82h7.622v2.801H140.86v-14.003h10.963v2.801H144.421z"/>
			<path fill="#2F343B" d="M164.361,150.748c4.401,0,7.442,2.841,7.442,7.001c0,4.142-3.081,7.002-7.582,7.002h-5.881v-14.003
				H164.361z M161.901,161.91h2.54c2.181,0,3.741-1.68,3.741-4.141c0-2.48-1.641-4.181-3.9-4.181h-2.381V161.91z"/>
			<path fill="#2F343B" d="M186.32,164.751v-14.003h3.561v14.003H186.32z"/>
			<path fill="#2F343B" d="M206.463,164.751l-6.441-8.622v8.622h-3.341v-14.003h3.141l6.461,8.642v-8.642h3.321v14.003H206.463z"/>
			<path fill="#2F343B" d="M226.183,164.751l-6.441-8.622v8.622H216.4v-14.003h3.141l6.461,8.642v-8.642h3.321v14.003H226.183z"/>
			<path fill="#2F343B" d="M239.681,153.549v2.78h6.682v2.801h-6.682v2.82h7.622v2.801H236.12v-14.003h10.963v2.801H239.681z"/>
			<path fill="#2F343B" d="M259.962,160.811h-0.101h-2.7v3.94h-3.561v-14.003h6.261c3.701,0,5.821,1.761,5.821,4.881
				c0,2.141-0.9,3.681-2.54,4.501l2.94,4.621h-4.041L259.962,160.811z M259.861,158.01c1.541,0,2.44-0.78,2.44-2.261
				c0-1.46-0.899-2.2-2.44-2.2h-2.7v4.461H259.861z"/>
		</g>
		<g enable-background="new    ">
			<path fill="#2F343B" d="M64.655,176.988l-2.061,2.44c-0.921-1.12-2.28-1.82-3.521-1.82c-2.22,0-3.9,1.761-3.9,4.062
				c0,2.34,1.681,4.12,3.9,4.12c1.181,0,2.541-0.64,3.521-1.64l2.08,2.2c-1.5,1.54-3.721,2.561-5.781,2.561
				c-4.221,0-7.361-3.101-7.361-7.201c0-4.041,3.221-7.082,7.481-7.082C61.094,174.628,63.255,175.548,64.655,176.988z"/>
			<path fill="#2F343B" d="M84.275,181.729c0,4.081-3.241,7.182-7.582,7.182c-4.321,0-7.562-3.081-7.562-7.182
				c0-4.081,3.24-7.102,7.562-7.102C81.034,174.628,84.275,177.669,84.275,181.729z M72.772,181.749c0,2.361,1.82,4.182,3.961,4.182
				c2.16,0,3.881-1.82,3.881-4.182c0-2.36-1.721-4.141-3.881-4.141S72.772,179.389,72.772,181.749z"/>
			<path fill="#2F343B" d="M99.935,188.751l-6.441-8.622v8.622h-3.341v-14.003h3.141l6.461,8.642v-8.642h3.321v14.003H99.935z"/>
			<path fill="#2F343B" d="M113.433,177.549v3.24h6.281v2.801h-6.281v5.161h-3.561v-14.003h10.382v2.801H113.433z"/>
			<path fill="#2F343B" d="M125.952,188.751v-14.003h3.561v14.003H125.952z"/>
			<path fill="#2F343B" d="M142.333,174.748c4.401,0,7.441,2.841,7.441,7.001c0,4.142-3.08,7.002-7.581,7.002h-5.882v-14.003
				H142.333z M139.872,185.91h2.541c2.181,0,3.74-1.68,3.74-4.141c0-2.48-1.64-4.181-3.9-4.181h-2.381V185.91z"/>
			<path fill="#2F343B" d="M159.212,177.549v2.78h6.682v2.801h-6.682v2.82h7.622v2.801h-11.183v-14.003h10.963v2.801H159.212z"/>
			<path fill="#2F343B" d="M182.914,188.751l-6.441-8.622v8.622h-3.341v-14.003h3.141l6.461,8.642v-8.642h3.321v14.003H182.914z"/>
			<path fill="#2F343B" d="M205.054,176.988l-2.061,2.44c-0.92-1.12-2.28-1.82-3.521-1.82c-2.221,0-3.9,1.761-3.9,4.062
				c0,2.34,1.68,4.12,3.9,4.12c1.181,0,2.54-0.64,3.521-1.64l2.081,2.2c-1.501,1.54-3.721,2.561-5.781,2.561
				c-4.222,0-7.362-3.101-7.362-7.201c0-4.041,3.221-7.082,7.482-7.082C201.493,174.628,203.653,175.548,205.054,176.988z"/>
			<path fill="#2F343B" d="M214.252,177.549v2.78h6.682v2.801h-6.682v2.82h7.621v2.801h-11.182v-14.003h10.962v2.801H214.252z"/>
			<path fill="#2F343B" d="M226.831,179.229c0.04-2.86,1.74-4.541,4.561-4.541c2.661,0,4.301,1.241,4.301,3.481
				c0,3.04-3.061,3.4-3.061,5.801h-2.58c0-3.101,2.46-3.261,2.46-5.241c0-0.899-0.54-1.3-1.44-1.3c-1,0-1.56,0.58-1.58,1.82
				L226.831,179.229z M232.972,187.23c0,1-0.7,1.681-1.68,1.681c-0.98,0-1.66-0.681-1.66-1.681c0-0.98,0.68-1.66,1.66-1.66
				C232.271,185.57,232.972,186.25,232.972,187.23z"/>
		</g>
	</g>
	<g>
		<g enable-background="new    ">
			<path fill="#2F343B" d="M90.562,14.173c3.57,0,6.301,2.643,6.301,6.125c0,3.483-2.748,6.126-6.353,6.126h-4.901V14.173H90.562z
				 M87.009,25.094h3.57c2.73,0,4.866-2.048,4.866-4.778c0-2.747-2.17-4.795-4.918-4.795h-3.518V25.094z"/>
			<path fill="#2F343B" d="M107.169,22.346h-7.526c0.245,1.803,1.558,2.94,3.343,2.94c1.137,0,2.135-0.402,2.853-1.155l0.752,0.806
				c-0.875,0.979-2.17,1.54-3.71,1.54c-2.713,0-4.586-1.908-4.586-4.655c0-2.748,1.891-4.656,4.568-4.656
				C105.839,17.148,107.31,19.213,107.169,22.346z M105.944,21.226c-0.087-1.768-1.277-2.888-3.08-2.888
				c-1.75,0-3.01,1.138-3.221,2.888H105.944z"/>
			<path fill="#2F343B" d="M117.459,22.346h-7.526c0.245,1.803,1.558,2.94,3.343,2.94c1.137,0,2.135-0.402,2.853-1.155l0.752,0.806
				c-0.875,0.979-2.17,1.54-3.71,1.54c-2.713,0-4.586-1.908-4.586-4.655c0-2.748,1.891-4.656,4.568-4.656
				C116.129,17.148,117.6,19.213,117.459,22.346z M116.234,21.226c-0.087-1.768-1.277-2.888-3.08-2.888
				c-1.75,0-3.01,1.138-3.221,2.888H116.234z"/>
			<path fill="#2F343B" d="M129.237,21.838c0,2.73-1.785,4.639-4.393,4.639c-1.645,0-2.905-0.753-3.588-2.03v5.373h-1.365V17.201
				h1.365v1.995c0.683-1.295,1.943-2.048,3.553-2.048C127.417,17.148,129.237,19.074,129.237,21.838z M127.854,21.804
				c0-1.979-1.365-3.431-3.29-3.431c-1.943,0-3.308,1.436-3.308,3.431c0,2.013,1.365,3.43,3.308,3.43
				C126.489,25.234,127.854,23.799,127.854,21.804z"/>
			<path fill="#2F343B" d="M140.349,15.521v10.903h-1.4V15.521h-3.991v-1.348h9.398v1.348H140.349z"/>
			<path fill="#2F343B" d="M153.719,20.736v5.688h-1.365v-5.32c0-1.628-0.979-2.591-2.607-2.591c-1.96,0.018-3.115,1.4-3.115,3.378
				v4.533h-1.365V13.438h1.365v5.828c0.63-1.436,1.89-2.101,3.588-2.118C152.424,17.148,153.719,18.513,153.719,20.736z"/>
			<path fill="#2F343B" d="M165.182,21.804c0,2.765-1.943,4.673-4.673,4.673c-2.73,0-4.674-1.908-4.674-4.673
				c0-2.748,1.943-4.639,4.674-4.639C163.238,17.166,165.182,19.056,165.182,21.804z M157.2,21.822c0,2.029,1.383,3.43,3.309,3.43
				c1.925,0,3.308-1.4,3.308-3.43c0-2.013-1.383-3.413-3.308-3.413C158.583,18.409,157.2,19.809,157.2,21.822z"/>
			<path fill="#2F343B" d="M175.576,26.424h-1.365v-2.083c-0.612,1.436-1.838,2.118-3.5,2.136c-2.153,0-3.448-1.365-3.448-3.588
				v-5.688h1.365v5.32c0,1.628,0.963,2.591,2.556,2.591c1.907-0.035,3.027-1.418,3.027-3.378v-4.533h1.365V26.424z"/>
			<path fill="#2F343B" d="M186.934,25.461c0,2.695-1.838,4.394-4.638,4.394c-1.453-0.018-2.66-0.49-3.78-1.33l0.63-1.051
				c0.91,0.753,1.872,1.155,3.098,1.173c2.013,0,3.325-1.225,3.325-3.15v-1.4c-0.647,1.226-1.838,1.926-3.396,1.926
				c-2.485,0-4.2-1.838-4.2-4.463c0-2.573,1.697-4.394,4.165-4.411c1.575,0,2.766,0.7,3.431,1.926v-1.873h1.365V25.461z
				 M185.568,21.611c0-1.925-1.312-3.272-3.15-3.272c-1.855,0-3.15,1.365-3.168,3.272c0.018,1.891,1.312,3.256,3.168,3.256
				C184.256,24.867,185.568,23.501,185.568,21.611z"/>
			<path fill="#2F343B" d="M198.571,20.736v5.688h-1.365v-5.32c0-1.628-0.98-2.591-2.608-2.591c-1.96,0.018-3.115,1.4-3.115,3.378
				v4.533h-1.365V13.438h1.365v5.828c0.631-1.436,1.891-2.101,3.588-2.118C197.275,17.148,198.571,18.513,198.571,20.736z"/>
			<path fill="#2F343B" d="M206.375,25.794c-0.647,0.438-1.348,0.683-2.083,0.7c-1.348,0-2.345-0.806-2.345-2.626v-5.268h-1.33
				v-1.103h1.33v-2.433h1.348v2.433l2.923-0.018v1.12h-2.923v5.022c0,1.121,0.438,1.541,1.225,1.541
				c0.473,0,0.963-0.158,1.471-0.473L206.375,25.794z"/>
		</g>
	</g>
	
		<line fill="none" stroke="#2F343B" stroke-width="0.875" stroke-linecap="round" stroke-miterlimit="10" x1="85.108" y1="30.538" x2="117.191" y2="30.538"/>
	
		<line fill="none" stroke="#2F343B" stroke-width="0.875" stroke-linecap="round" stroke-miterlimit="10" x1="125.358" y1="30.538" x2="176.691" y2="30.538"/>
	
		<line fill="none" stroke="#2F343B" stroke-width="0.875" stroke-linecap="round" stroke-miterlimit="10" x1="189.233" y1="30.538" x2="207.316" y2="30.538"/>
	<g>
		<g enable-background="new    ">
			<path fill="#2F343B" d="M132.961,264.873v8.727h-1.121v-8.727h-3.193v-1.079h7.522v1.079H132.961z"/>
			<path fill="#2F343B" d="M143.66,269.047v4.553h-1.093v-4.258c0-1.303-0.784-2.073-2.087-2.073
				c-1.569,0.014-2.494,1.12-2.494,2.703v3.628h-1.092v-10.394h1.092v4.664c0.504-1.148,1.513-1.681,2.872-1.694
				C142.623,266.176,143.66,267.269,143.66,269.047z"/>
			<path fill="#2F343B" d="M152.45,270.336h-6.022c0.196,1.442,1.247,2.354,2.675,2.354c0.911,0,1.709-0.322,2.283-0.925
				l0.603,0.645c-0.7,0.784-1.736,1.232-2.97,1.232c-2.171,0-3.669-1.526-3.669-3.726s1.513-3.727,3.656-3.727
				C151.386,266.176,152.562,267.828,152.45,270.336z M151.47,269.439c-0.069-1.415-1.022-2.312-2.465-2.312
				c-1.4,0-2.409,0.911-2.577,2.312H151.47z"/>
			<path fill="#2F343B" d="M161.075,269.047v4.553h-1.093v-4.258c0-1.303-0.784-2.073-2.087-2.073
				c-1.457,0.014-2.354,0.966-2.479,2.367v3.964h-1.093v-7.382h1.093v1.625c0.519-1.121,1.513-1.653,2.857-1.667
				C160.039,266.176,161.075,267.269,161.075,269.047z"/>
		</g>
	</g>
</g>
<g id="Layer_5" display="none">
	<g display="inline">
		
			<text transform="matrix(1 0 0 1 268.2803 168.4343)" fill="#2F343B" font-family="'Montserrat-Bold'" font-size="20" letter-spacing="4">?</text>
	</g>
	<rect x="239.5" y="98.955" display="inline" fill="#E3D9C8" width="38.5" height="20"/>
	<rect x="117.966" y="123.955" display="inline" fill="#E3D9C8" width="111.534" height="20.5"/>
	<rect x="14" y="147.455" display="inline" fill="#E3D9C8" width="140.5" height="21.5"/>
	<rect x="43.5" y="168.955" display="inline" fill="#E3D9C8" width="203.5" height="26"/>
	<rect x="117.966" y="257.791" display="inline" fill="#E3D9C8" width="55.551" height="20.02"/>
	<g display="inline">
		<text transform="matrix(1 0 0 1 129.537 273.5573)" fill="#2F343B" font-family="'Montserrat-Regular'" font-size="14">Now</text>
	</g>
</g>
</svg>
