<?xml version="1.0" encoding="utf-8"?>
<!-- Generator: Adobe Illustrator 17.0.0, SVG Export Plug-In . SVG Version: 6.00 Build 0)  -->
<!DOCTYPE svg PUBLIC "-//W3C//DTD SVG 1.1//EN" "http://www.w3.org/Graphics/SVG/1.1/DTD/svg11.dtd">
<svg version="1.1" id="Layer_1" xmlns="http://www.w3.org/2000/svg" xmlns:xlink="http://www.w3.org/1999/xlink" x="0px" y="0px"
	 width="295px" height="300px" viewBox="0 0 295 300" enable-background="new 0 0 295 300" xml:space="preserve">
<g id="Layer_9">
</g>
<g id="Layer_3" display="none">
	<g display="inline">
		
			<text transform="matrix(1 0 0 1 11.742 116.7508)" fill="#2F343B" font-family="'Montserrat-Bold'" font-size="20" letter-spacing="4">WHAT WILL I DO TO</text>
		
			<text transform="matrix(1 0 0 1 64.071 140.7508)" fill="#2F343B" font-family="'Montserrat-Bold'" font-size="20" letter-spacing="4">FORTIFY MY</text>
		
			<text transform="matrix(1 0 0 1 20.821 164.7508)" fill="#2F343B" font-family="'Montserrat-Bold'" font-size="20" letter-spacing="4">WEAKENED INNER</text>
		
			<text transform="matrix(1 0 0 1 51.052 188.7508)" fill="#2F343B" font-family="'Montserrat-Bold'" font-size="20" letter-spacing="4">CONFIDENCE?</text>
	</g>
	<g display="inline">
		<text transform="matrix(1 0 0 1 83.7538 26.4245)" fill="#2F343B" font-family="'Montserrat-Light'" font-size="17.5">Deep Thought</text>
	</g>
	
		<line display="inline" fill="none" stroke="#2F343B" stroke-width="0.875" stroke-linecap="round" stroke-miterlimit="10" x1="85.108" y1="30.538" x2="117.191" y2="30.538"/>
	
		<line display="inline" fill="none" stroke="#2F343B" stroke-width="0.875" stroke-linecap="round" stroke-miterlimit="10" x1="125.358" y1="30.538" x2="176.691" y2="30.538"/>
	
		<line display="inline" fill="none" stroke="#2F343B" stroke-width="0.875" stroke-linecap="round" stroke-miterlimit="10" x1="189.233" y1="30.538" x2="207.316" y2="30.538"/>
	<g display="inline">
		<text transform="matrix(1 0 0 1 128.4931 273.5993)" fill="#2F343B" font-family="'Montserrat-Light'" font-size="14">Then</text>
	</g>
</g>
<g id="Layer_5">
	<g>
		<g enable-background="new    ">
			<path fill="#2F343B" d="M268.34,158.912c0.041-2.86,1.74-4.541,4.562-4.541c2.661,0,4.301,1.241,4.301,3.481
				c0,3.04-3.061,3.4-3.061,5.801h-2.581c0-3.101,2.461-3.261,2.461-5.241c0-0.899-0.54-1.3-1.44-1.3c-1,0-1.56,0.58-1.58,1.82
				L268.34,158.912z M274.481,166.914c0,1-0.7,1.681-1.681,1.681s-1.66-0.681-1.66-1.681c0-0.98,0.68-1.66,1.66-1.66
				S274.481,165.934,274.481,166.914z"/>
		</g>
	</g>
	<rect x="239.5" y="98.955" fill="#E3D9C8" width="38.5" height="20"/>
	<rect x="117.966" y="123.955" fill="#E3D9C8" width="111.534" height="20.5"/>
	<rect x="14" y="147.455" fill="#E3D9C8" width="140.5" height="21.5"/>
	<rect x="43.5" y="168.955" fill="#E3D9C8" width="203.5" height="26"/>
	<rect x="117.966" y="257.791" fill="#E3D9C8" width="55.551" height="20.02"/>
	<g>
		<g enable-background="new    ">
			<path fill="#2F343B" d="M137.704,273.558l-5.225-7.032v7.032h-1.653v-9.806h1.625l5.253,7.046v-7.046h1.625v9.806H137.704z"/>
			<path fill="#2F343B" d="M148.89,269.832c0,2.241-1.583,3.781-3.88,3.781c-2.311,0-3.894-1.54-3.894-3.781
				c0-2.256,1.583-3.782,3.894-3.782C147.307,266.05,148.89,267.576,148.89,269.832z M142.726,269.846
				c0,1.442,0.938,2.423,2.283,2.423c1.331,0,2.27-0.98,2.27-2.423c0-1.429-0.939-2.409-2.27-2.409
				C143.665,267.437,142.726,268.417,142.726,269.846z"/>
			<path fill="#2F343B" d="M157.289,273.558l-1.891-5.519l-1.891,5.519h-1.653l-2.745-7.452h1.652l1.934,5.855l1.877-5.855h1.667
				l1.891,5.855l1.905-5.855h1.639l-2.718,7.452H157.289z"/>
		</g>
	</g>
</g>
</svg>
