<?xml version="1.0" encoding="utf-8"?>
<!-- Generator: Adobe Illustrator 17.0.0, SVG Export Plug-In . SVG Version: 6.00 Build 0)  -->
<!DOCTYPE svg PUBLIC "-//W3C//DTD SVG 1.1//EN" "http://www.w3.org/Graphics/SVG/1.1/DTD/svg11.dtd">
<svg version="1.1" id="Layer_1" xmlns="http://www.w3.org/2000/svg" xmlns:xlink="http://www.w3.org/1999/xlink" x="0px" y="0px"
	 width="295px" height="300px" viewBox="0 0 295 300" enable-background="new 0 0 295 300" xml:space="preserve">
<g id="Layer_9">
</g>
<g id="Layer_3">
	<g>
		<g enable-background="new    ">
			<path fill="#2F343B" d="M78.153,128.916v-14.003h3.561v14.003H78.153z"/>
			<path fill="#2F343B" d="M106.935,128.916l-6.441-8.622v8.622h-3.341v-14.003h3.141l6.461,8.642v-8.642h3.321v14.003H106.935z"/>
			<path fill="#2F343B" d="M120.433,117.714v2.78h6.682v2.801h-6.682v2.82h7.622v2.801h-11.182v-14.003h10.962v2.801H120.433z"/>
			<path fill="#2F343B" d="M137.913,117.714v2.78h6.682v2.801h-6.682v2.82h7.622v2.801h-11.182v-14.003h10.962v2.801H137.913z"/>
			<path fill="#2F343B" d="M157.854,114.913c4.401,0,7.442,2.841,7.442,7.001c0,4.142-3.081,7.002-7.582,7.002h-5.881v-14.003
				H157.854z M155.394,126.075h2.54c2.181,0,3.741-1.68,3.741-4.141c0-2.48-1.641-4.181-3.9-4.181h-2.381V126.075z"/>
			<path fill="#2F343B" d="M186.294,117.773v11.143h-3.562v-11.143h-4.181v-2.881h11.963v2.881H186.294z"/>
			<path fill="#2F343B" d="M209.535,121.895c0,4.081-3.24,7.182-7.582,7.182c-4.32,0-7.562-3.081-7.562-7.182
				c0-4.081,3.241-7.102,7.562-7.102C206.295,114.793,209.535,117.834,209.535,121.895z M198.033,121.914
				c0,2.361,1.82,4.182,3.96,4.182c2.161,0,3.881-1.82,3.881-4.182c0-2.36-1.72-4.141-3.881-4.141
				C199.833,117.773,198.033,119.554,198.033,121.914z"/>
		</g>
		<g enable-background="new    ">
			<path fill="#2F343B" d="M67.274,138.913c3.141,0,5.141,1.36,5.141,3.501c0,1.48-0.92,2.66-2.4,3.08
				c1.76,0.341,2.881,1.721,2.881,3.541c0,2.381-2.081,3.881-5.381,3.881h-6.861v-14.003H67.274z M64.193,144.515h2.881
				c1.04,0,1.7-0.561,1.7-1.461s-0.66-1.42-1.7-1.42h-2.881V144.515z M64.193,150.176h2.881c1.32,0,2.14-0.58,2.14-1.581
				c0-0.939-0.82-1.52-2.14-1.52h-2.881V150.176z"/>
			<path fill="#2F343B" d="M82.513,141.714v2.78h6.682v2.801h-6.682v2.82h7.622v2.801H78.953v-14.003h10.962v2.801H82.513z"/>
			<path fill="#2F343B" d="M108.633,141.714v3.24h6.281v2.801h-6.281v5.161h-3.561v-14.003h10.382v2.801H108.633z"/>
			<path fill="#2F343B" d="M121.152,152.916v-14.003h3.561v14.003H121.152z"/>
			<path fill="#2F343B" d="M142.415,140.313l-1.34,2.78c-1.48-0.86-3.341-1.46-4.481-1.46c-0.92,0-1.541,0.34-1.541,1.021
				c0,2.42,7.402,1.04,7.402,6.101c0,2.801-2.48,4.281-5.602,4.281c-2.34,0-4.741-0.88-6.401-2.24l1.38-2.741
				c1.44,1.261,3.601,2.101,5.061,2.101c1.121,0,1.821-0.42,1.821-1.22c0-2.48-7.402-1.001-7.402-5.962
				c0-2.58,2.221-4.221,5.581-4.221C138.914,138.753,140.974,139.373,142.415,140.313z"/>
			<path fill="#2F343B" d="M160.595,141.153l-2.061,2.44c-0.92-1.12-2.28-1.82-3.521-1.82c-2.221,0-3.9,1.761-3.9,4.062
				c0,2.34,1.68,4.12,3.9,4.12c1.181,0,2.541-0.64,3.521-1.64l2.081,2.2c-1.501,1.54-3.721,2.561-5.781,2.561
				c-4.222,0-7.362-3.101-7.362-7.201c0-4.041,3.221-7.082,7.482-7.082C157.034,138.793,159.194,139.713,160.595,141.153z"/>
			<path fill="#2F343B" d="M169.273,150.336l-1.021,2.58h-3.661l6.042-14.003h3.66l5.901,14.003h-3.801l-1-2.58H169.273z
				 M172.354,142.454l-2.04,5.181h4.041L172.354,142.454z"/>
			<path fill="#2F343B" d="M194.994,149.936v2.98h-9.502v-14.003h3.561v11.022H194.994z"/>
			<path fill="#2F343B" d="M210.194,149.936v2.98h-9.502v-14.003h3.561v11.022H210.194z"/>
			<path fill="#2F343B" d="M223.113,152.916h-3.541v-4.421l-5.181-9.582h3.561l3.381,6.102l3.301-6.102h3.561l-5.081,9.482V152.916z
				"/>
		</g>
		<g enable-background="new    ">
			<path fill="#2F343B" d="M27.504,176.916v-14.003h3.561v14.003H27.504z"/>
			<path fill="#2F343B" d="M47.646,176.916l-6.441-8.622v8.622h-3.341v-14.003h3.141l6.461,8.642v-8.642h3.321v14.003H47.646z"/>
			<path fill="#2F343B" d="M63.604,162.913c4.401,0,7.442,2.841,7.442,7.001c0,4.142-3.081,7.002-7.582,7.002h-5.881v-14.003H63.604
				z M61.144,174.075h2.541c2.181,0,3.741-1.68,3.741-4.141c0-2.48-1.64-4.181-3.9-4.181h-2.381V174.075z"/>
			<path fill="#2F343B" d="M80.484,165.714v2.78h6.682v2.801h-6.682v2.82h7.622v2.801H76.924v-14.003h10.962v2.801H80.484z"/>
			<path fill="#2F343B" d="M100.504,162.913c3.581,0,5.641,1.761,5.641,4.881c0,3.281-2.06,5.182-5.641,5.182h-2.541v3.94h-3.561
				v-14.003H100.504z M97.964,170.175h2.361c1.56,0,2.46-0.78,2.46-2.261c0-1.46-0.9-2.2-2.46-2.2h-2.361V170.175z"/>
			<path fill="#2F343B" d="M115.564,165.714v2.78h6.682v2.801h-6.682v2.82h7.622v2.801h-11.182v-14.003h10.962v2.801H115.564z"/>
			<path fill="#2F343B" d="M139.266,176.916l-6.441-8.622v8.622h-3.341v-14.003h3.141l6.461,8.642v-8.642h3.321v14.003H139.266z"/>
			<path fill="#2F343B" d="M155.225,162.913c4.401,0,7.441,2.841,7.441,7.001c0,4.142-3.08,7.002-7.581,7.002h-5.882v-14.003
				H155.225z M152.764,174.075h2.541c2.181,0,3.74-1.68,3.74-4.141c0-2.48-1.64-4.181-3.9-4.181h-2.381V174.075z"/>
			<path fill="#2F343B" d="M172.104,165.714v2.78h6.682v2.801h-6.682v2.82h7.622v2.801h-11.183v-14.003h10.963v2.801H172.104z"/>
			<path fill="#2F343B" d="M195.806,176.916l-6.441-8.622v8.622h-3.341v-14.003h3.141l6.461,8.642v-8.642h3.321v14.003H195.806z"/>
			<path fill="#2F343B" d="M212.225,165.773v11.143h-3.561v-11.143h-4.181v-2.881h11.962v2.881H212.225z"/>
			<path fill="#2F343B" d="M244.826,169.895c0,4.081-3.241,7.182-7.582,7.182c-4.321,0-7.562-3.081-7.562-7.182
				c0-4.081,3.24-7.102,7.562-7.102C241.585,162.793,244.826,165.834,244.826,169.895z M233.323,169.914
				c0,2.361,1.82,4.182,3.961,4.182c2.16,0,3.881-1.82,3.881-4.182c0-2.36-1.721-4.141-3.881-4.141S233.323,167.554,233.323,169.914
				z"/>
			<path fill="#2F343B" d="M254.264,165.714v3.24h6.281v2.801h-6.281v5.161h-3.561v-14.003h10.382v2.801H254.264z"/>
		</g>
		<g enable-background="new    ">
			<path fill="#2F343B" d="M72.276,200.916l-0.02-9.102l-3.361,7.701h-2.32l-3.361-7.701v9.102h-3.181v-14.023h3.901l3.801,8.342
				l3.801-8.342h3.881v14.023H72.276z"/>
			<path fill="#2F343B" d="M89.455,200.916h-3.541v-4.421l-5.181-9.582h3.561l3.38,6.102l3.301-6.102h3.561l-5.081,9.482V200.916z"
				/>
			<path fill="#2F343B" d="M114.574,186.913c3.581,0,5.641,1.761,5.641,4.881c0,3.281-2.06,5.182-5.641,5.182h-2.541v3.94h-3.561
				v-14.003H114.574z M112.033,194.175h2.361c1.56,0,2.46-0.78,2.46-2.261c0-1.46-0.9-2.2-2.46-2.2h-2.361V194.175z"/>
			<path fill="#2F343B" d="M128.213,198.336l-1.021,2.58h-3.661l6.042-14.003h3.661l5.901,14.003h-3.801l-1-2.58H128.213z
				 M131.294,190.454l-2.041,5.181h4.041L131.294,190.454z"/>
			<path fill="#2F343B" d="M150.794,196.976h-0.101h-2.7v3.94h-3.561v-14.003h6.261c3.701,0,5.821,1.761,5.821,4.881
				c0,2.141-0.9,3.681-2.54,4.501l2.94,4.621h-4.041L150.794,196.976z M150.693,194.175c1.541,0,2.44-0.78,2.44-2.261
				c0-1.46-0.899-2.2-2.44-2.2h-2.7v4.461H150.693z"/>
			<path fill="#2F343B" d="M166.473,189.714v2.78h6.682v2.801h-6.682v2.82h7.622v2.801h-11.183v-14.003h10.963v2.801H166.473z"/>
			<path fill="#2F343B" d="M190.175,200.916l-6.441-8.622v8.622h-3.341v-14.003h3.141l6.461,8.642v-8.642h3.321v14.003H190.175z"/>
			<path fill="#2F343B" d="M206.594,189.773v11.143h-3.562v-11.143h-4.181v-2.881h11.963v2.881H206.594z"/>
			<path fill="#2F343B" d="M227.234,188.313l-1.341,2.78c-1.48-0.86-3.341-1.46-4.48-1.46c-0.921,0-1.541,0.34-1.541,1.021
				c0,2.42,7.402,1.04,7.402,6.101c0,2.801-2.48,4.281-5.602,4.281c-2.341,0-4.741-0.88-6.401-2.24l1.38-2.741
				c1.44,1.261,3.602,2.101,5.062,2.101c1.12,0,1.82-0.42,1.82-1.22c0-2.48-7.401-1.001-7.401-5.962c0-2.58,2.221-4.221,5.581-4.221
				C223.733,186.753,225.794,187.373,227.234,188.313z"/>
		</g>
	</g>
	<g>
		<g enable-background="new    ">
			<path fill="#2F343B" d="M84.535,26.427V14.176h1.4v12.251H84.535z"/>
			<path fill="#2F343B" d="M97.888,20.738v5.688h-1.365v-5.32c0-1.628-0.98-2.591-2.608-2.591c-1.82,0.018-2.94,1.208-3.098,2.958
				v4.953h-1.365v-9.224h1.365v2.03c0.647-1.4,1.89-2.065,3.57-2.083C96.593,17.15,97.888,18.516,97.888,20.738z"/>
			<path fill="#2F343B" d="M109.403,26.427h-1.365v-1.978c-0.683,1.295-1.943,2.048-3.588,2.048c-2.625,0-4.446-1.943-4.446-4.69
				c0-2.766,1.82-4.674,4.428-4.674c1.645,0,2.923,0.753,3.605,2.065V13.44h1.365V26.427z M108.038,21.841
				c0-2.013-1.383-3.465-3.326-3.465c-1.96,0-3.343,1.452-3.343,3.465c0,1.996,1.383,3.431,3.343,3.431
				C106.655,25.271,108.038,23.837,108.038,21.841z"/>
			<path fill="#2F343B" d="M120.76,22.349h-7.526c0.245,1.803,1.558,2.94,3.343,2.94c1.137,0,2.135-0.402,2.853-1.155l0.752,0.806
				c-0.875,0.979-2.17,1.54-3.71,1.54c-2.713,0-4.586-1.908-4.586-4.655c0-2.748,1.891-4.656,4.568-4.656
				C119.43,17.15,120.9,19.216,120.76,22.349z M119.535,21.229c-0.087-1.768-1.277-2.888-3.08-2.888c-1.75,0-3.01,1.138-3.221,2.888
				H119.535z"/>
			<path fill="#2F343B" d="M132.538,21.841c0,2.73-1.785,4.639-4.393,4.639c-1.645,0-2.905-0.753-3.588-2.03v5.373h-1.365V17.203
				h1.365v1.995c0.683-1.295,1.943-2.048,3.553-2.048C130.717,17.15,132.538,19.076,132.538,21.841z M131.155,21.807
				c0-1.979-1.365-3.431-3.29-3.431c-1.943,0-3.308,1.436-3.308,3.431c0,2.013,1.365,3.43,3.308,3.43
				C129.79,25.236,131.155,23.802,131.155,21.807z"/>
			<path fill="#2F343B" d="M142.88,22.349h-7.526c0.245,1.803,1.558,2.94,3.343,2.94c1.137,0,2.135-0.402,2.853-1.155l0.752,0.806
				c-0.875,0.979-2.17,1.54-3.71,1.54c-2.712,0-4.585-1.908-4.585-4.655c0-2.748,1.891-4.656,4.568-4.656
				C141.55,17.15,143.02,19.216,142.88,22.349z M141.655,21.229c-0.087-1.768-1.277-2.888-3.08-2.888
				c-1.75,0-3.01,1.138-3.221,2.888H141.655z"/>
			<path fill="#2F343B" d="M153.66,20.738v5.688h-1.365v-5.32c0-1.628-0.98-2.591-2.607-2.591c-1.82,0.018-2.94,1.208-3.098,2.958
				v4.953h-1.365v-9.224h1.365v2.03c0.647-1.4,1.89-2.065,3.571-2.083C152.365,17.15,153.66,18.516,153.66,20.738z"/>
			<path fill="#2F343B" d="M165.175,26.427h-1.365v-1.978c-0.683,1.295-1.942,2.048-3.588,2.048c-2.626,0-4.446-1.943-4.446-4.69
				c0-2.766,1.82-4.674,4.429-4.674c1.646,0,2.923,0.753,3.605,2.065V13.44h1.365V26.427z M163.81,21.841
				c0-2.013-1.383-3.465-3.325-3.465c-1.961,0-3.344,1.452-3.344,3.465c0,1.996,1.383,3.431,3.344,3.431
				C162.427,25.271,163.81,23.837,163.81,21.841z"/>
			<path fill="#2F343B" d="M176.531,22.349h-7.525c0.245,1.803,1.558,2.94,3.344,2.94c1.137,0,2.135-0.402,2.852-1.155l0.753,0.806
				c-0.875,0.979-2.17,1.54-3.71,1.54c-2.713,0-4.586-1.908-4.586-4.655c0-2.748,1.891-4.656,4.568-4.656
				C175.201,17.15,176.672,19.216,176.531,22.349z M175.307,21.229c-0.088-1.768-1.277-2.888-3.08-2.888
				c-1.75,0-3.01,1.138-3.221,2.888H175.307z"/>
			<path fill="#2F343B" d="M187.312,20.738v5.688h-1.365v-5.32c0-1.628-0.98-2.591-2.608-2.591c-1.819,0.018-2.94,1.208-3.098,2.958
				v4.953h-1.365v-9.224h1.365v2.03c0.647-1.4,1.89-2.065,3.57-2.083C186.017,17.15,187.312,18.516,187.312,20.738z"/>
			<path fill="#2F343B" d="M197.549,18.533l-0.752,0.963c-0.7-0.665-1.628-1.067-2.748-1.067c-1.908,0-3.273,1.383-3.273,3.396
				s1.365,3.412,3.273,3.412c1.207,0,2.205-0.42,2.854-1.189l0.787,0.84c-0.822,0.997-2.101,1.593-3.693,1.593
				c-2.678,0-4.568-1.908-4.568-4.655c0-2.748,1.908-4.656,4.568-4.656C195.484,17.15,196.709,17.658,197.549,18.533z"/>
			<path fill="#2F343B" d="M207.682,22.349h-7.525c0.244,1.803,1.558,2.94,3.343,2.94c1.138,0,2.135-0.402,2.853-1.155l0.752,0.806
				c-0.875,0.979-2.17,1.54-3.71,1.54c-2.712,0-4.585-1.908-4.585-4.655c0-2.748,1.891-4.656,4.568-4.656
				C206.352,17.15,207.822,19.216,207.682,22.349z M206.457,21.229c-0.088-1.768-1.277-2.888-3.08-2.888
				c-1.751,0-3.011,1.138-3.221,2.888H206.457z"/>
		</g>
	</g>
	
		<line fill="none" stroke="#2F343B" stroke-width="0.875" stroke-linecap="round" stroke-miterlimit="10" x1="82.199" y1="30.538" x2="120.283" y2="30.538"/>
	
		<line fill="none" stroke="#2F343B" stroke-width="0.875" stroke-linecap="round" stroke-miterlimit="10" x1="128.458" y1="30.538" x2="208.542" y2="30.538"/>
	<g>
		<g enable-background="new    ">
			<path fill="#2F343B" d="M132.961,264.873v8.727h-1.121v-8.727h-3.193v-1.079h7.522v1.079H132.961z"/>
			<path fill="#2F343B" d="M143.66,269.047v4.553h-1.093v-4.258c0-1.303-0.784-2.073-2.087-2.073
				c-1.569,0.014-2.494,1.12-2.494,2.703v3.628h-1.092v-10.394h1.092v4.664c0.504-1.148,1.513-1.681,2.872-1.694
				C142.623,266.176,143.66,267.269,143.66,269.047z"/>
			<path fill="#2F343B" d="M152.451,270.336h-6.023c0.196,1.442,1.247,2.354,2.676,2.354c0.91,0,1.709-0.322,2.283-0.925
				l0.603,0.645c-0.701,0.784-1.737,1.232-2.97,1.232c-2.172,0-3.67-1.526-3.67-3.726s1.513-3.727,3.656-3.727
				C151.387,266.176,152.563,267.828,152.451,270.336z M151.471,269.439c-0.07-1.415-1.022-2.312-2.466-2.312
				c-1.4,0-2.409,0.911-2.577,2.312H151.471z"/>
			<path fill="#2F343B" d="M161.076,269.047v4.553h-1.093v-4.258c0-1.303-0.784-2.073-2.087-2.073
				c-1.457,0.014-2.354,0.966-2.479,2.367v3.964h-1.093v-7.382h1.093v1.625c0.518-1.121,1.513-1.653,2.857-1.667
				C160.039,266.176,161.076,267.269,161.076,269.047z"/>
		</g>
	</g>
</g>
<g id="Layer_5" display="none">
	<rect x="117.966" y="257.791" display="inline" fill="#E3D9C8" width="55.551" height="20.02"/>
	<g display="inline">
		<text transform="matrix(1 0 0 1 129.5372 273.5569)" fill="#2F343B" font-family="'Montserrat-Regular'" font-size="14">Now</text>
	</g>
	<rect x="50.5" y="133.962" display="inline" fill="#E3D9C8" width="94.274" height="25"/>
	<rect x="212.893" y="133.962" display="inline" fill="#E3D9C8" width="15.107" height="25"/>
	<rect x="16.393" y="158.962" display="inline" fill="#E3D9C8" width="259.607" height="25"/>
</g>
</svg>
