<?xml version="1.0" encoding="utf-8"?>
<!-- Generator: Adobe Illustrator 17.0.0, SVG Export Plug-In . SVG Version: 6.00 Build 0)  -->
<!DOCTYPE svg PUBLIC "-//W3C//DTD SVG 1.1//EN" "http://www.w3.org/Graphics/SVG/1.1/DTD/svg11.dtd">
<svg version="1.1" id="Layer_1" xmlns="http://www.w3.org/2000/svg" xmlns:xlink="http://www.w3.org/1999/xlink" x="0px" y="0px"
	 width="295px" height="300px" viewBox="0 0 295 300" enable-background="new 0 0 295 300" xml:space="preserve">
<g id="Layer_9">
</g>
<g id="Layer_3">
	<g>
		<g enable-background="new    ">
			<path fill="#2F343B" d="M100.631,128.917v-14.003h3.561v14.003H100.631z"/>
			<path fill="#2F343B" d="M129.414,128.917l-6.441-8.622v8.622h-3.341v-14.003h3.141l6.461,8.642v-8.642h3.321v14.003H129.414z"/>
			<path fill="#2F343B" d="M142.912,117.714v2.78h6.682v2.801h-6.682v2.82h7.622v2.801h-11.182v-14.003h10.962v2.801H142.912z"/>
			<path fill="#2F343B" d="M160.392,117.714v2.78h6.682v2.801h-6.682v2.82h7.622v2.801h-11.183v-14.003h10.963v2.801H160.392z"/>
			<path fill="#2F343B" d="M180.332,114.914c4.401,0,7.442,2.841,7.442,7.001c0,4.142-3.081,7.002-7.582,7.002h-5.881v-14.003
				H180.332z M177.872,126.076h2.54c2.181,0,3.741-1.68,3.741-4.141c0-2.48-1.641-4.181-3.9-4.181h-2.381V126.076z"/>
		</g>
		<g enable-background="new    ">
			<path fill="#2F343B" d="M75.423,150.336l-1.021,2.58h-3.661l6.042-14.002h3.661l5.901,14.002h-3.801l-1-2.58H75.423z
				 M78.503,142.455l-2.041,5.181h4.041L78.503,142.455z"/>
			<path fill="#2F343B" d="M95.203,141.714v3.24h6.281v2.801h-6.281v5.161h-3.561v-14.002h10.382v2.801H95.203z"/>
			<path fill="#2F343B" d="M111.283,141.714v3.24h6.281v2.801h-6.281v5.161h-3.561v-14.002h10.382v2.801H111.283z"/>
			<path fill="#2F343B" d="M133.304,149.936v2.98h-9.502v-14.002h3.561v11.022H133.304z"/>
			<path fill="#2F343B" d="M151.604,147.036c0,3.701-2.461,6.041-6.381,6.041c-3.941,0-6.461-2.34-6.461-6.041v-8.122h3.561v8.122
				c0,1.9,1.22,3.061,2.92,3.061c1.68,0,2.82-1.16,2.82-3.061v-8.122h3.541V147.036z"/>
			<path fill="#2F343B" d="M161.722,141.714v2.78h6.682v2.801h-6.682v2.82h7.622v2.8h-11.183v-14.002h10.963v2.801H161.722z"/>
			<path fill="#2F343B" d="M185.424,152.916l-6.441-8.622v8.622h-3.341v-14.002h3.141l6.461,8.642v-8.642h3.321v14.002H185.424z"/>
			<path fill="#2F343B" d="M207.563,141.154l-2.061,2.44c-0.92-1.12-2.28-1.82-3.521-1.82c-2.221,0-3.9,1.761-3.9,4.062
				c0,2.34,1.68,4.12,3.9,4.12c1.181,0,2.541-0.64,3.521-1.64l2.081,2.2c-1.501,1.541-3.721,2.561-5.781,2.561
				c-4.222,0-7.362-3.1-7.362-7.201c0-4.041,3.221-7.082,7.482-7.082C204.003,138.793,206.163,139.713,207.563,141.154z"/>
			<path fill="#2F343B" d="M216.762,141.714v2.78h6.682v2.801h-6.682v2.82h7.621v2.8h-11.182v-14.002h10.962v2.801H216.762z"/>
		</g>
		<g enable-background="new    ">
			<path fill="#2F343B" d="M62.973,165.773v11.143h-3.561v-11.143h-4.181v-2.881h11.962v2.881H62.973z"/>
			<path fill="#2F343B" d="M86.215,169.895c0,4.082-3.241,7.182-7.582,7.182c-4.321,0-7.562-3.08-7.562-7.182
				c0-4.08,3.241-7.102,7.562-7.102C82.974,162.793,86.215,165.834,86.215,169.895z M74.712,169.914c0,2.361,1.82,4.182,3.96,4.182
				c2.161,0,3.881-1.82,3.881-4.182c0-2.359-1.72-4.141-3.881-4.141C76.513,165.773,74.712,167.555,74.712,169.914z"/>
			<path fill="#2F343B" d="M107.353,162.914c3.141,0,5.141,1.359,5.141,3.5c0,1.48-0.92,2.66-2.4,3.08
				c1.76,0.342,2.881,1.721,2.881,3.541c0,2.381-2.081,3.881-5.381,3.881h-6.861v-14.002H107.353z M104.272,168.516h2.881
				c1.04,0,1.7-0.561,1.7-1.461s-0.66-1.42-1.7-1.42h-2.881V168.516z M104.272,174.176h2.881c1.32,0,2.14-0.58,2.14-1.58
				c0-0.939-0.82-1.52-2.14-1.52h-2.881V174.176z"/>
			<path fill="#2F343B" d="M122.592,165.715v2.779h6.682v2.801h-6.682v2.82h7.622v2.801h-11.182v-14.002h10.962v2.801H122.592z"/>
			<path fill="#2F343B" d="M154.513,176.916v-5.441h-5.802v5.441h-3.56v-14.002h3.56v5.76h5.802v-5.76h3.561v14.002H154.513z"/>
			<path fill="#2F343B" d="M168.052,174.336l-1.021,2.58h-3.661l6.042-14.002h3.66l5.901,14.002h-3.801l-1-2.58H168.052z
				 M171.132,166.455l-2.04,5.18h4.041L171.132,166.455z"/>
			<path fill="#2F343B" d="M190.372,162.914c3.581,0,5.641,1.76,5.641,4.881c0,3.281-2.06,5.182-5.641,5.182h-2.541v3.939h-3.561
				v-14.002H190.372z M187.831,170.176h2.361c1.56,0,2.46-0.781,2.46-2.262c0-1.459-0.9-2.199-2.46-2.199h-2.361V170.176z"/>
			<path fill="#2F343B" d="M207.972,162.914c3.581,0,5.641,1.76,5.641,4.881c0,3.281-2.06,5.182-5.641,5.182h-2.541v3.939h-3.561
				v-14.002H207.972z M205.431,170.176h2.361c1.56,0,2.46-0.781,2.46-2.262c0-1.459-0.9-2.199-2.46-2.199h-2.361V170.176z"/>
			<path fill="#2F343B" d="M226.692,176.916h-3.541v-4.42l-5.182-9.582h3.562l3.38,6.102l3.301-6.102h3.562l-5.081,9.482V176.916z"
				/>
		</g>
	</g>
	<g>
		<g enable-background="new    ">
			<path fill="#2F343B" d="M121.225,15.26l-0.595,1.312c-1.103-0.735-2.398-1.032-3.378-1.032c-1.575,0-2.608,0.595-2.608,1.627
				c0,3.15,6.896,1.506,6.878,5.951c0,2.048-1.803,3.36-4.428,3.36c-1.785,0-3.535-0.771-4.69-1.873l0.63-1.26
				c1.138,1.103,2.695,1.732,4.078,1.732c1.768,0,2.87-0.718,2.87-1.891c0.018-3.22-6.878-1.505-6.878-5.897
				c0-1.926,1.698-3.168,4.235-3.168C118.757,14.123,120.209,14.578,121.225,15.26z"/>
			<path fill="#2F343B" d="M132.197,26.426h-1.365v-2.083c-0.613,1.436-1.838,2.118-3.5,2.136c-2.153,0-3.448-1.365-3.448-3.588
				v-5.688h1.365v5.32c0,1.628,0.962,2.591,2.555,2.591c1.908-0.035,3.028-1.418,3.028-3.378v-4.533h1.365V26.426z"/>
			<path fill="#2F343B" d="M142.714,18.533l-0.752,0.963c-0.7-0.665-1.628-1.067-2.748-1.067c-1.908,0-3.273,1.383-3.273,3.396
				s1.365,3.412,3.273,3.412c1.208,0,2.205-0.42,2.853-1.189l0.788,0.84c-0.823,0.997-2.101,1.593-3.693,1.593
				c-2.678,0-4.568-1.908-4.568-4.655c0-2.748,1.908-4.656,4.568-4.656C140.649,17.15,141.874,17.658,142.714,18.533z"/>
			<path fill="#2F343B" d="M152.095,18.533l-0.753,0.963c-0.7-0.665-1.628-1.067-2.748-1.067c-1.908,0-3.273,1.383-3.273,3.396
				s1.365,3.412,3.273,3.412c1.208,0,2.205-0.42,2.854-1.189l0.787,0.84c-0.822,0.997-2.101,1.593-3.692,1.593
				c-2.678,0-4.569-1.908-4.569-4.655c0-2.748,1.908-4.656,4.569-4.656C150.029,17.15,151.254,17.658,152.095,18.533z"/>
			<path fill="#2F343B" d="M162.227,22.348h-7.525c0.245,1.803,1.558,2.94,3.343,2.94c1.138,0,2.135-0.402,2.853-1.155l0.753,0.806
				c-0.875,0.979-2.17,1.54-3.711,1.54c-2.712,0-4.585-1.908-4.585-4.655c0-2.748,1.891-4.656,4.568-4.656
				C160.896,17.15,162.367,19.215,162.227,22.348z M161.002,21.228c-0.088-1.768-1.277-2.888-3.08-2.888
				c-1.751,0-3.011,1.138-3.221,2.888H161.002z"/>
			<path fill="#2F343B" d="M169.962,17.991l-0.525,1.085c-0.718-0.455-1.646-0.753-2.503-0.753c-1.032,0-1.82,0.368-1.82,1.226
				c0,2.048,5.146,0.997,5.146,4.305c0,1.82-1.609,2.626-3.377,2.626c-1.313,0-2.661-0.455-3.536-1.295l0.525-1.033
				c0.787,0.735,1.978,1.173,3.062,1.173s1.961-0.402,1.978-1.312c0.053-2.223-5.11-1.085-5.093-4.358
				c0-1.768,1.522-2.503,3.203-2.503C168.124,17.15,169.191,17.465,169.962,17.991z"/>
			<path fill="#2F343B" d="M177.889,17.991l-0.524,1.085c-0.718-0.455-1.646-0.753-2.503-0.753c-1.033,0-1.82,0.368-1.82,1.226
				c0,2.048,5.146,0.997,5.146,4.305c0,1.82-1.61,2.626-3.378,2.626c-1.312,0-2.66-0.455-3.535-1.295l0.524-1.033
				c0.788,0.735,1.979,1.173,3.063,1.173s1.96-0.402,1.978-1.312c0.053-2.223-5.11-1.085-5.093-4.358
				c0-1.768,1.522-2.503,3.202-2.503C176.051,17.15,177.119,17.465,177.889,17.991z"/>
		</g>
	</g>
	
		<line fill="none" stroke="#2F343B" stroke-width="0.875" stroke-linecap="round" stroke-miterlimit="10" x1="112.199" y1="30.538" x2="179.283" y2="30.538"/>
	<g>
		<g enable-background="new    ">
			<path fill="#2F343B" d="M132.961,264.872v8.727h-1.121v-8.727h-3.193v-1.079h7.522v1.079H132.961z"/>
			<path fill="#2F343B" d="M143.66,269.046v4.553h-1.093v-4.258c0-1.303-0.784-2.073-2.087-2.073
				c-1.569,0.014-2.494,1.12-2.494,2.703v3.628h-1.092v-10.394h1.092v4.664c0.504-1.148,1.513-1.681,2.872-1.694
				C142.623,266.175,143.66,267.268,143.66,269.046z"/>
			<path fill="#2F343B" d="M152.451,270.335h-6.023c0.196,1.442,1.247,2.354,2.676,2.354c0.91,0,1.709-0.322,2.283-0.925
				l0.603,0.645c-0.701,0.784-1.737,1.232-2.97,1.232c-2.172,0-3.67-1.526-3.67-3.726s1.513-3.727,3.656-3.727
				C151.387,266.175,152.563,267.827,152.451,270.335z M151.471,269.438c-0.07-1.415-1.022-2.312-2.466-2.312
				c-1.4,0-2.409,0.911-2.577,2.312H151.471z"/>
			<path fill="#2F343B" d="M161.076,269.046v4.553h-1.093v-4.258c0-1.303-0.784-2.073-2.087-2.073
				c-1.457,0.014-2.354,0.966-2.479,2.367v3.964h-1.093v-7.382h1.093v1.625c0.518-1.121,1.513-1.653,2.857-1.667
				C160.039,266.175,161.076,267.268,161.076,269.046z"/>
		</g>
	</g>
</g>
<g id="Layer_5" display="none">
	<rect x="66.833" y="134.53" display="inline" fill="#E3D9C8" width="37.721" height="22.469"/>
	<rect x="118.853" y="134.53" display="inline" fill="#E3D9C8" width="15.647" height="22.469"/>
	<rect x="155.5" y="134.53" display="inline" fill="#E3D9C8" width="15.647" height="22.469"/>
	<rect x="192.833" y="134.53" display="inline" fill="#E3D9C8" width="38" height="22.469"/>
	<rect x="117.966" y="257.791" display="inline" fill="#E3D9C8" width="55.551" height="20.02"/>
	<g display="inline">
		<text transform="matrix(1 0 0 1 129.5372 273.557)" fill="#2F343B" font-family="'Montserrat-Regular'" font-size="14">Now</text>
	</g>
</g>
</svg>
