<?xml version="1.0" encoding="utf-8"?>
<!-- Generator: Adobe Illustrator 17.0.0, SVG Export Plug-In . SVG Version: 6.00 Build 0)  -->
<!DOCTYPE svg PUBLIC "-//W3C//DTD SVG 1.1//EN" "http://www.w3.org/Graphics/SVG/1.1/DTD/svg11.dtd">
<svg version="1.1" id="Layer_1" xmlns="http://www.w3.org/2000/svg" xmlns:xlink="http://www.w3.org/1999/xlink" x="0px" y="0px"
	 width="295px" height="300px" viewBox="0 0 295 300" enable-background="new 0 0 295 300" xml:space="preserve">
<g id="Layer_9">
</g>
<g id="Layer_3">
	<g>
		<g enable-background="new    ">
			<path fill="#2F343B" d="M114.693,115.678v3.24h6.281v2.801h-6.281v5.161h-3.561v-14.003h10.382v2.801H114.693z"/>
			<path fill="#2F343B" d="M139.814,121c0,3.7-2.46,6.041-6.381,6.041c-3.941,0-6.462-2.341-6.462-6.041v-8.122h3.562V121
				c0,1.9,1.22,3.061,2.92,3.061c1.681,0,2.821-1.16,2.821-3.061v-8.122h3.54V121z"/>
			<path fill="#2F343B" d="M158.575,115.118l-2.061,2.44c-0.921-1.12-2.28-1.82-3.521-1.82c-2.22,0-3.9,1.761-3.9,4.062
				c0,2.34,1.681,4.12,3.9,4.12c1.181,0,2.541-0.64,3.521-1.64l2.08,2.2c-1.5,1.54-3.721,2.561-5.781,2.561
				c-4.221,0-7.361-3.101-7.361-7.201c0-4.041,3.221-7.082,7.481-7.082C155.014,112.757,157.175,113.677,158.575,115.118z"/>
			<path fill="#2F343B" d="M169.633,121.379l-1.86,2.061v3.44h-3.561v-14.003h3.561v6.062l5.361-6.062h4.121l-5.201,5.801
				l5.541,8.202h-4.261L169.633,121.379z"/>
		</g>
		<g enable-background="new    ">
			<path fill="#2F343B" d="M110.215,150.881l-2.601-9.682l-2.641,9.682h-3.681l-4.581-14.003h3.801l2.741,10.302l2.681-10.302h3.48
				l2.741,10.302l2.701-10.302h3.641l-4.621,14.003H110.215z"/>
			<path fill="#2F343B" d="M133.114,150.881v-5.442h-5.801v5.442h-3.561v-14.003h3.561v5.761h5.801v-5.761h3.561v14.003H133.114z"/>
			<path fill="#2F343B" d="M146.653,148.3l-1.021,2.581h-3.661l6.041-14.003h3.661l5.901,14.003h-3.801l-1.001-2.581H146.653z
				 M149.733,140.418l-2.041,5.181h4.041L149.733,140.418z"/>
			<path fill="#2F343B" d="M167.854,139.738v11.143h-3.562v-11.143h-4.181v-2.881h11.963v2.881H167.854z"/>
			<path fill="#2F343B" d="M180.272,138.498c0,0.521-0.18,0.94-0.44,1.32l-1.46,2.12h-1.641l0.9-2.12c-0.46-0.32-0.66-0.78-0.66-1.3
				c0-0.98,0.7-1.661,1.66-1.661C179.513,136.857,180.272,137.458,180.272,138.498z"/>
			<path fill="#2F343B" d="M197.314,138.278l-1.341,2.78c-1.48-0.86-3.341-1.46-4.48-1.46c-0.921,0-1.541,0.34-1.541,1.021
				c0,2.42,7.402,1.04,7.402,6.101c0,2.801-2.48,4.282-5.602,4.282c-2.341,0-4.741-0.88-6.401-2.241l1.38-2.741
				c1.44,1.261,3.602,2.101,5.062,2.101c1.12,0,1.82-0.42,1.82-1.22c0-2.48-7.401-1.001-7.401-5.962c0-2.58,2.221-4.221,5.581-4.221
				C193.813,136.717,195.874,137.337,197.314,138.278z"/>
		</g>
		<g enable-background="new    ">
			<path fill="#2F343B" d="M89.474,160.878c3.581,0,5.641,1.761,5.641,4.881c0,3.281-2.06,5.182-5.641,5.182h-2.541v3.94h-3.561
				v-14.003H89.474z M86.933,168.14h2.361c1.56,0,2.46-0.78,2.46-2.261c0-1.46-0.9-2.2-2.46-2.2h-2.361V168.14z"/>
			<path fill="#2F343B" d="M115.195,167.859c0,4.081-3.241,7.182-7.582,7.182c-4.321,0-7.562-3.081-7.562-7.182
				c0-4.081,3.241-7.102,7.562-7.102C111.955,160.758,115.195,163.799,115.195,167.859z M103.693,167.879
				c0,2.361,1.82,4.182,3.96,4.182c2.161,0,3.881-1.82,3.881-4.182c0-2.36-1.72-4.141-3.881-4.141
				C105.493,163.738,103.693,165.519,103.693,167.879z"/>
			<path fill="#2F343B" d="M127.173,160.878c3.581,0,5.641,1.761,5.641,4.881c0,3.281-2.06,5.182-5.641,5.182h-2.541v3.94h-3.561
				v-14.003H127.173z M124.633,168.14h2.361c1.56,0,2.46-0.78,2.46-2.261c0-1.46-0.9-2.2-2.46-2.2h-2.361V168.14z"/>
			<path fill="#2F343B" d="M151.275,169c0,3.7-2.461,6.041-6.382,6.041c-3.941,0-6.461-2.341-6.461-6.041v-8.122h3.561V169
				c0,1.9,1.22,3.061,2.92,3.061c1.68,0,2.821-1.16,2.821-3.061v-8.122h3.541V169z"/>
			<path fill="#2F343B" d="M167.334,171.9v2.98h-9.502v-14.003h3.561V171.9H167.334z"/>
			<path fill="#2F343B" d="M176.272,172.301l-1.021,2.58h-3.66l6.041-14.003h3.661l5.901,14.003h-3.801l-1.001-2.58H176.272z
				 M179.354,164.419l-2.041,5.181h4.041L179.354,164.419z"/>
			<path fill="#2F343B" d="M198.854,170.94h-0.101h-2.7v3.94h-3.561v-14.003h6.261c3.701,0,5.821,1.761,5.821,4.881
				c0,2.141-0.9,3.681-2.54,4.501l2.94,4.621h-4.041L198.854,170.94z M198.753,168.14c1.541,0,2.44-0.78,2.44-2.261
				c0-1.46-0.899-2.2-2.44-2.2h-2.7v4.461H198.753z"/>
		</g>
	</g>
	<g>
		<g enable-background="new    ">
			<path fill="#2F343B" d="M122.271,15.521v10.903h-1.4V15.521h-3.991v-1.348h9.398v1.348H122.271z"/>
			<path fill="#2F343B" d="M128.606,19.249c0.612-1.348,1.75-2.083,3.308-2.101v1.383c-1.942-0.035-3.15,1.173-3.308,2.993v4.9
				h-1.365v-9.224h1.365V19.249z"/>
			<path fill="#2F343B" d="M141.697,22.347h-7.526c0.245,1.803,1.558,2.94,3.343,2.94c1.137,0,2.135-0.402,2.853-1.155l0.752,0.806
				c-0.875,0.979-2.17,1.54-3.71,1.54c-2.713,0-4.586-1.908-4.586-4.655c0-2.748,1.891-4.656,4.568-4.656
				C140.367,17.148,141.837,19.214,141.697,22.347z M140.472,21.227c-0.087-1.768-1.277-2.888-3.08-2.888
				c-1.75,0-3.01,1.138-3.221,2.888H140.472z"/>
			<path fill="#2F343B" d="M152.477,20.736v5.688h-1.365v-5.32c0-1.628-0.979-2.591-2.607-2.591c-1.82,0.018-2.94,1.208-3.098,2.958
				v4.953h-1.365v-9.224h1.365v2.03c0.647-1.4,1.89-2.065,3.57-2.083C151.182,17.148,152.477,18.514,152.477,20.736z"/>
			<path fill="#2F343B" d="M163.992,26.425h-1.365v-1.978c-0.683,1.295-1.943,2.048-3.588,2.048c-2.625,0-4.445-1.943-4.445-4.69
				c0-2.766,1.82-4.674,4.428-4.674c1.645,0,2.923,0.753,3.605,2.065v-5.758h1.365V26.425z M162.627,21.839
				c0-2.013-1.383-3.465-3.326-3.465c-1.959,0-3.342,1.452-3.342,3.465c0,1.996,1.383,3.431,3.342,3.431
				C161.244,25.27,162.627,23.835,162.627,21.839z"/>
			<path fill="#2F343B" d="M172.794,17.989l-0.524,1.085c-0.719-0.455-1.646-0.753-2.504-0.753c-1.032,0-1.82,0.368-1.82,1.226
				c0,2.048,5.146,0.997,5.146,4.305c0,1.82-1.61,2.626-3.378,2.626c-1.313,0-2.661-0.455-3.536-1.295l0.525-1.033
				c0.787,0.735,1.979,1.173,3.062,1.173c1.086,0,1.961-0.402,1.979-1.312c0.053-2.223-5.111-1.085-5.094-4.358
				c0-1.768,1.523-2.503,3.203-2.503C170.956,17.148,172.023,17.464,172.794,17.989z"/>
		</g>
	</g>
	
		<line fill="none" stroke="#2F343B" stroke-width="0.875" stroke-linecap="round" stroke-miterlimit="10" x1="117.074" y1="30.538" x2="175.408" y2="30.538"/>
	<g>
		<g enable-background="new    ">
			<path fill="#2F343B" d="M132.961,264.873v8.727h-1.121v-8.727h-3.193v-1.078h7.522v1.078H132.961z"/>
			<path fill="#2F343B" d="M143.66,269.047v4.553h-1.093v-4.258c0-1.303-0.784-2.072-2.087-2.072
				c-1.569,0.014-2.494,1.119-2.494,2.703v3.627h-1.092v-10.393h1.092v4.664c0.504-1.148,1.513-1.682,2.872-1.695
				C142.623,266.176,143.66,267.27,143.66,269.047z"/>
			<path fill="#2F343B" d="M152.451,270.336h-6.023c0.196,1.443,1.247,2.354,2.676,2.354c0.91,0,1.709-0.322,2.283-0.924
				l0.603,0.645c-0.701,0.783-1.737,1.232-2.97,1.232c-2.172,0-3.67-1.527-3.67-3.727s1.513-3.727,3.656-3.727
				C151.387,266.176,152.563,267.828,152.451,270.336z M151.471,269.439c-0.07-1.414-1.022-2.311-2.466-2.311
				c-1.4,0-2.409,0.91-2.577,2.311H151.471z"/>
			<path fill="#2F343B" d="M161.076,269.047v4.553h-1.093v-4.258c0-1.303-0.784-2.072-2.087-2.072
				c-1.457,0.014-2.354,0.965-2.479,2.367v3.963h-1.093v-7.381h1.093v1.625c0.518-1.121,1.513-1.654,2.857-1.668
				C160.039,266.176,161.076,267.27,161.076,269.047z"/>
		</g>
	</g>
</g>
<g id="Layer_5" display="none">
	<rect x="117.966" y="257.791" display="inline" fill="#E3D9C8" width="55.551" height="20.02"/>
	<g display="inline">
		<text transform="matrix(1 0 0 1 129.5372 273.5568)" fill="#2F343B" font-family="'Montserrat-Regular'" font-size="14">Now</text>
	</g>
	<g display="inline">
		
			<text transform="matrix(1 0 0 1 181.0605 126.9647)" fill="#2F343B" font-family="'Montserrat-Bold'" font-size="20" letter-spacing="4">!</text>
	</g>
	<g display="inline">
		
			<text transform="matrix(1 0 0 1 208.1737 174.3747)" fill="#2F343B" font-family="'Montserrat-Bold'" font-size="20" letter-spacing="4">?</text>
	</g>
</g>
</svg>
