<?xml version="1.0" encoding="utf-8"?>
<!-- Generator: Adobe Illustrator 17.0.0, SVG Export Plug-In . SVG Version: 6.00 Build 0)  -->
<!DOCTYPE svg PUBLIC "-//W3C//DTD SVG 1.1//EN" "http://www.w3.org/Graphics/SVG/1.1/DTD/svg11.dtd">
<svg version="1.1" id="Layer_1" xmlns="http://www.w3.org/2000/svg" xmlns:xlink="http://www.w3.org/1999/xlink" x="0px" y="0px"
	 width="295px" height="300px" viewBox="0 0 295 300" enable-background="new 0 0 295 300" xml:space="preserve">
<g id="Layer_9">
</g>
<g id="Layer_3">
	<g>
		<g enable-background="new    ">
			<path fill="#2F343B" d="M38.241,112.917V98.914h3.561v14.003H38.241z"/>
			<path fill="#2F343B" d="M51.281,100.534c0,0.521-0.18,0.94-0.44,1.32l-1.46,2.12H47.74l0.9-2.12c-0.46-0.32-0.66-0.78-0.66-1.3
				c0-0.98,0.7-1.661,1.66-1.661C50.521,98.894,51.281,99.494,51.281,100.534z"/>
			<path fill="#2F343B" d="M66.922,109.937v2.98H57.42V98.914h3.561v11.022H66.922z"/>
			<path fill="#2F343B" d="M82.123,109.937v2.98h-9.502V98.914h3.561v11.022H82.123z"/>
			<path fill="#2F343B" d="M102.942,101.774v11.143h-3.561v-11.143H95.2v-2.881h11.962v2.881H102.942z"/>
			<path fill="#2F343B" d="M119.042,108.977h-0.1h-2.701v3.94h-3.561V98.914h6.261c3.701,0,5.821,1.761,5.821,4.881
				c0,2.141-0.9,3.681-2.541,4.501l2.94,4.621h-4.041L119.042,108.977z M118.941,106.176c1.541,0,2.44-0.78,2.44-2.261
				c0-1.46-0.9-2.2-2.44-2.2h-2.701v4.461H118.941z"/>
			<path fill="#2F343B" d="M138.242,112.917h-3.541v-4.421l-5.181-9.582h3.561l3.38,6.102l3.301-6.102h3.561l-5.081,9.482V112.917z"
				/>
			<path fill="#2F343B" d="M163.741,101.774v11.143h-3.561v-11.143H156v-2.881h11.962v2.881H163.741z"/>
			<path fill="#2F343B" d="M186.983,105.896c0,4.081-3.241,7.182-7.582,7.182c-4.321,0-7.562-3.081-7.562-7.182
				c0-4.081,3.24-7.102,7.562-7.102C183.742,98.794,186.983,101.835,186.983,105.896z M175.48,105.915
				c0,2.361,1.82,4.182,3.961,4.182c2.16,0,3.881-1.82,3.881-4.182c0-2.36-1.721-4.141-3.881-4.141S175.48,103.555,175.48,105.915z"
				/>
			<path fill="#2F343B" d="M213.882,105.796v5.461c-1.5,1.06-3.86,1.82-5.82,1.82c-4.262,0-7.482-3.081-7.482-7.162
				c0-4.061,3.301-7.121,7.722-7.121c2.081,0,4.281,0.8,5.722,2.08l-2.001,2.421c-1.02-0.94-2.44-1.521-3.74-1.521
				c-2.301,0-4.061,1.801-4.061,4.141c0,2.381,1.78,4.182,4.101,4.182c0.72,0,1.641-0.261,2.48-0.681v-3.62H213.882z"/>
			<path fill="#2F343B" d="M223.92,101.715v2.78h6.682v2.801h-6.682v2.82h7.622v2.801h-11.183V98.914h10.963v2.801H223.92z"/>
			<path fill="#2F343B" d="M244.321,101.774v11.143h-3.562v-11.143h-4.181v-2.881h11.963v2.881H244.321z"/>
		</g>
		<g enable-background="new    ">
			<path fill="#2F343B" d="M55.141,134.337l-1.021,2.58H50.46l6.042-14.003h3.661l5.901,14.003h-3.801l-1-2.58H55.141z
				 M58.222,126.455l-2.041,5.181h4.041L58.222,126.455z"/>
			<path fill="#2F343B" d="M86.021,122.914c4.401,0,7.442,2.841,7.442,7.001c0,4.142-3.081,7.002-7.582,7.002H80v-14.003H86.021z
				 M83.561,134.076h2.541c2.181,0,3.741-1.68,3.741-4.141c0-2.48-1.64-4.181-3.9-4.181h-2.381V134.076z"/>
			<path fill="#2F343B" d="M102.901,125.715v2.78h6.682v2.801h-6.682v2.82h7.622v2.801H99.34v-14.003h10.962v2.801H102.901z"/>
			<path fill="#2F343B" d="M129.022,125.154l-2.061,2.44c-0.92-1.12-2.28-1.82-3.521-1.82c-2.22,0-3.9,1.761-3.9,4.062
				c0,2.34,1.68,4.12,3.9,4.12c1.181,0,2.541-0.64,3.521-1.64l2.081,2.2c-1.5,1.54-3.721,2.561-5.781,2.561
				c-4.221,0-7.362-3.101-7.362-7.201c0-4.041,3.221-7.082,7.482-7.082C125.461,122.794,127.622,123.714,129.022,125.154z"/>
			<path fill="#2F343B" d="M138.22,125.715v2.78h6.682v2.801h-6.682v2.82h7.622v2.801H134.66v-14.003h10.962v2.801H138.22z"/>
			<path fill="#2F343B" d="M161.922,136.917l-6.441-8.622v8.622h-3.341v-14.003h3.141l6.462,8.642v-8.642h3.32v14.003H161.922z"/>
			<path fill="#2F343B" d="M178.341,125.774v11.143h-3.561v-11.143H170.6v-2.881h11.962v2.881H178.341z"/>
			<path fill="#2F343B" d="M204.881,132.376c0,2.98-1.86,4.701-4.841,4.701c-1.98,0-3.581-0.82-4.821-2.24l1.641-2.381
				c1,1.04,2.12,1.561,2.94,1.561c0.94,0,1.501-0.58,1.501-1.721v-6.521h-4.802v-2.881h8.382V132.376z"/>
			<path fill="#2F343B" d="M225.662,129.896c0,4.081-3.24,7.182-7.582,7.182c-4.32,0-7.562-3.081-7.562-7.182
				c0-4.081,3.241-7.102,7.562-7.102C222.422,122.794,225.662,125.835,225.662,129.896z M214.16,129.915
				c0,2.361,1.82,4.182,3.96,4.182c2.161,0,3.881-1.82,3.881-4.182c0-2.36-1.72-4.141-3.881-4.141
				C215.96,125.774,214.16,127.555,214.16,129.915z"/>
			<path fill="#2F343B" d="M238.16,122.914c3.142,0,5.142,1.36,5.142,3.501c0,1.48-0.92,2.66-2.4,3.08
				c1.76,0.341,2.881,1.721,2.881,3.541c0,2.381-2.081,3.881-5.382,3.881h-6.861v-14.003H238.16z M235.08,128.516h2.881
				c1.04,0,1.7-0.561,1.7-1.461s-0.66-1.42-1.7-1.42h-2.881V128.516z M235.08,134.177h2.881c1.32,0,2.14-0.58,2.14-1.581
				c0-0.939-0.819-1.52-2.14-1.52h-2.881V134.177z"/>
		</g>
		<g enable-background="new    ">
			<path fill="#2F343B" d="M91.113,160.917l-2.601-9.682l-2.641,9.682h-3.681l-4.581-14.003h3.801l2.741,10.302l2.681-10.302h3.48
				l2.741,10.302l2.701-10.302h3.641l-4.621,14.003H91.113z"/>
			<path fill="#2F343B" d="M104.651,160.917v-14.003h3.561v14.003H104.651z"/>
			<path fill="#2F343B" d="M121.492,149.774v11.143h-3.561v-11.143h-4.181v-2.881h11.962v2.881H121.492z"/>
			<path fill="#2F343B" d="M140.592,160.917v-5.441h-5.801v5.441h-3.561v-14.003h3.561v5.761h5.801v-5.761h3.561v14.003H140.592z"/>
			<path fill="#2F343B" d="M166.071,149.774v11.143h-3.561v-11.143h-4.181v-2.881h11.962v2.881H166.071z"/>
			<path fill="#2F343B" d="M185.172,160.917v-5.441h-5.802v5.441h-3.561v-14.003h3.561v5.761h5.802v-5.761h3.561v14.003H185.172z"/>
			<path fill="#2F343B" d="M195.529,160.917v-14.003h3.561v14.003H195.529z"/>
			<path fill="#2F343B" d="M216.792,148.314l-1.341,2.78c-1.48-0.86-3.341-1.46-4.48-1.46c-0.921,0-1.541,0.34-1.541,1.021
				c0,2.42,7.402,1.04,7.402,6.101c0,2.801-2.48,4.281-5.602,4.281c-2.341,0-4.741-0.88-6.401-2.24l1.38-2.741
				c1.44,1.261,3.602,2.101,5.062,2.101c1.12,0,1.82-0.42,1.82-1.22c0-2.48-7.401-1.001-7.401-5.962c0-2.58,2.221-4.221,5.581-4.221
				C213.291,146.754,215.352,147.374,216.792,148.314z"/>
		</g>
		<g enable-background="new    ">
			<path fill="#2F343B" d="M73.201,173.715v2.78h6.682v2.801h-6.682v2.82h7.622v2.801H69.641v-14.003h10.962v2.801H73.201z"/>
			<path fill="#2F343B" d="M99.323,173.154l-2.061,2.44c-0.92-1.12-2.28-1.82-3.521-1.82c-2.22,0-3.9,1.761-3.9,4.062
				c0,2.34,1.68,4.12,3.9,4.12c1.181,0,2.541-0.64,3.521-1.64l2.081,2.2c-1.5,1.54-3.721,2.561-5.781,2.561
				c-4.221,0-7.362-3.101-7.362-7.201c0-4.041,3.221-7.082,7.482-7.082C95.762,170.794,97.923,171.714,99.323,173.154z"/>
			<path fill="#2F343B" d="M118.943,177.896c0,4.081-3.241,7.182-7.582,7.182c-4.321,0-7.562-3.081-7.562-7.182
				c0-4.081,3.241-7.102,7.562-7.102C115.703,170.794,118.943,173.835,118.943,177.896z M107.441,177.915
				c0,2.361,1.82,4.182,3.96,4.182c2.161,0,3.881-1.82,3.881-4.182c0-2.36-1.72-4.141-3.881-4.141
				C109.241,173.774,107.441,175.555,107.441,177.915z"/>
			<path fill="#2F343B" d="M134.603,184.917l-6.441-8.622v8.622h-3.341v-14.003h3.141l6.461,8.642v-8.642h3.321v14.003H134.603z"/>
			<path fill="#2F343B" d="M158.763,177.896c0,4.081-3.24,7.182-7.582,7.182c-4.32,0-7.561-3.081-7.561-7.182
				c0-4.081,3.241-7.102,7.561-7.102C155.522,170.794,158.763,173.835,158.763,177.896z M147.261,177.915
				c0,2.361,1.82,4.182,3.96,4.182c2.161,0,3.881-1.82,3.881-4.182c0-2.36-1.72-4.141-3.881-4.141
				C149.061,173.774,147.261,175.555,147.261,177.915z"/>
			<path fill="#2F343B" d="M176.883,184.917l-0.021-9.102l-3.36,7.701h-2.32l-3.361-7.701v9.102h-3.181v-14.023h3.901l3.801,8.342
				l3.801-8.342h3.881v14.023H176.883z"/>
			<path fill="#2F343B" d="M186.84,184.917v-14.003h3.561v14.003H186.84z"/>
			<path fill="#2F343B" d="M209.402,173.154l-2.061,2.44c-0.921-1.12-2.28-1.82-3.521-1.82c-2.22,0-3.9,1.761-3.9,4.062
				c0,2.34,1.681,4.12,3.9,4.12c1.181,0,2.541-0.64,3.521-1.64l2.08,2.2c-1.5,1.54-3.721,2.561-5.781,2.561
				c-4.221,0-7.361-3.101-7.361-7.201c0-4.041,3.221-7.082,7.481-7.082C205.841,170.794,208.002,171.714,209.402,173.154z"/>
			<path fill="#2F343B" d="M225.941,172.314l-1.34,2.78c-1.48-0.86-3.341-1.46-4.481-1.46c-0.92,0-1.54,0.34-1.54,1.021
				c0,2.42,7.401,1.04,7.401,6.101c0,2.801-2.48,4.281-5.602,4.281c-2.34,0-4.74-0.88-6.401-2.24l1.381-2.741
				c1.44,1.261,3.601,2.101,5.061,2.101c1.121,0,1.821-0.42,1.821-1.22c0-2.48-7.402-1.001-7.402-5.962
				c0-2.58,2.221-4.221,5.581-4.221C222.44,170.754,224.501,171.374,225.941,172.314z"/>
		</g>
		<g enable-background="new    ">
			<path fill="#2F343B" d="M102.361,194.914c4.401,0,7.442,2.841,7.442,7.001c0,4.142-3.081,7.002-7.582,7.002h-5.881v-14.003
				H102.361z M99.901,206.076h2.54c2.181,0,3.741-1.68,3.741-4.141c0-2.48-1.641-4.181-3.9-4.181h-2.381V206.076z"/>
			<path fill="#2F343B" d="M119.241,197.715v2.78h6.682v2.801h-6.682v2.82h7.621v2.801h-11.182v-14.003h10.962v2.801H119.241z"/>
			<path fill="#2F343B" d="M145.543,201.796v5.461c-1.5,1.06-3.86,1.82-5.821,1.82c-4.261,0-7.481-3.081-7.481-7.162
				c0-4.061,3.301-7.121,7.722-7.121c2.08,0,4.281,0.8,5.721,2.08l-2,2.421c-1.021-0.94-2.44-1.521-3.741-1.521
				c-2.3,0-4.061,1.801-4.061,4.141c0,2.381,1.78,4.182,4.101,4.182c0.721,0,1.641-0.261,2.48-0.681v-3.62H145.543z"/>
			<path fill="#2F343B" d="M158.382,204.977h-0.101h-2.7v3.94h-3.561v-14.003h6.261c3.701,0,5.821,1.761,5.821,4.881
				c0,2.141-0.9,3.681-2.54,4.501l2.94,4.621h-4.041L158.382,204.977z M158.281,202.176c1.541,0,2.44-0.78,2.44-2.261
				c0-1.46-0.899-2.2-2.44-2.2h-2.7v4.461H158.281z"/>
			<path fill="#2F343B" d="M174.061,197.715v2.78h6.682v2.801h-6.682v2.82h7.622v2.801H170.5v-14.003h10.963v2.801H174.061z"/>
			<path fill="#2F343B" d="M191.541,197.715v2.78h6.682v2.801h-6.682v2.82h7.621v2.801H187.98v-14.003h10.962v2.801H191.541z"/>
		</g>
	</g>
	<g>
		<g enable-background="new    ">
			<path fill="#2F343B" d="M127.629,15.926l-0.84,1.067c-0.945-0.963-2.275-1.54-3.623-1.54c-2.766,0-4.988,2.135-4.988,4.83
				c0,2.678,2.223,4.831,4.988,4.831c1.348,0,2.66-0.561,3.623-1.471l0.858,0.963c-1.208,1.138-2.853,1.891-4.551,1.891
				c-3.535,0-6.335-2.748-6.335-6.214c0-3.43,2.835-6.143,6.388-6.143C124.829,14.141,126.457,14.823,127.629,15.926z"/>
			<path fill="#2F343B" d="M135.696,25.009c-0.735,0.998-1.908,1.488-3.378,1.488c-1.908,0-3.133-1.226-3.133-2.818
				c0-1.61,1.278-2.625,3.448-2.643h3.028v-0.543c0-1.348-0.84-2.152-2.468-2.152c-1.015,0-1.96,0.385-2.923,1.05l-0.577-0.997
				c1.19-0.788,2.188-1.243,3.763-1.243c2.275,0,3.535,1.208,3.553,3.186l0.018,6.091h-1.33V25.009z M135.679,23.241v-1.103h-2.87
				c-1.54,0-2.345,0.473-2.345,1.487c0,1.016,0.822,1.681,2.118,1.681C134.139,25.307,135.329,24.52,135.679,23.241z"/>
			<path fill="#2F343B" d="M140.158,26.427V13.44h1.365v12.986H140.158z"/>
			<path fill="#2F343B" d="M145.023,26.427V13.44h1.365v12.986H145.023z"/>
			<path fill="#2F343B" d="M151.358,14.561c0,0.543-0.385,0.945-0.893,0.945s-0.893-0.402-0.893-0.945s0.385-0.945,0.893-0.945
				S151.358,14.018,151.358,14.561z M149.801,26.427v-9.224h1.348v9.224H149.801z"/>
			<path fill="#2F343B" d="M162.909,20.738v5.688h-1.365v-5.32c0-1.628-0.979-2.591-2.607-2.591c-1.82,0.018-2.94,1.208-3.098,2.958
				v4.953h-1.365v-9.224h1.365v2.03c0.647-1.4,1.89-2.065,3.57-2.083C161.614,17.15,162.909,18.516,162.909,20.738z"/>
			<path fill="#2F343B" d="M173.986,25.464c0,2.695-1.838,4.394-4.638,4.394c-1.453-0.018-2.66-0.49-3.78-1.33l0.63-1.051
				c0.91,0.753,1.872,1.155,3.098,1.173c2.013,0,3.325-1.225,3.325-3.15v-1.4c-0.647,1.226-1.838,1.926-3.396,1.926
				c-2.485,0-4.2-1.838-4.2-4.463c0-2.573,1.697-4.394,4.165-4.411c1.575,0,2.766,0.7,3.431,1.926v-1.873h1.365V25.464z
				 M172.621,21.613c0-1.925-1.312-3.272-3.15-3.272c-1.855,0-3.15,1.365-3.168,3.272c0.018,1.891,1.312,3.256,3.168,3.256
				C171.309,24.869,172.621,23.504,172.621,21.613z"/>
		</g>
	</g>
	
		<line fill="none" stroke="#2F343B" stroke-width="0.875" stroke-linecap="round" stroke-miterlimit="10" x1="118.325" y1="30.538" x2="162.658" y2="30.538"/>
	<g>
		<g enable-background="new    ">
			<path fill="#2F343B" d="M132.961,264.874v8.727h-1.121v-8.727h-3.193v-1.079h7.522v1.079H132.961z"/>
			<path fill="#2F343B" d="M143.66,269.048v4.553h-1.093v-4.258c0-1.303-0.784-2.073-2.087-2.073
				c-1.569,0.014-2.494,1.12-2.494,2.703v3.628h-1.092v-10.394h1.092v4.664c0.504-1.148,1.513-1.681,2.872-1.694
				C142.623,266.177,143.66,267.27,143.66,269.048z"/>
			<path fill="#2F343B" d="M152.451,270.337h-6.023c0.196,1.442,1.247,2.354,2.676,2.354c0.91,0,1.709-0.322,2.283-0.925
				l0.603,0.645c-0.701,0.784-1.737,1.232-2.97,1.232c-2.172,0-3.67-1.526-3.67-3.726s1.513-3.727,3.656-3.727
				C151.387,266.177,152.563,267.829,152.451,270.337z M151.471,269.44c-0.07-1.415-1.022-2.312-2.466-2.312
				c-1.4,0-2.409,0.911-2.577,2.312H151.471z"/>
			<path fill="#2F343B" d="M161.076,269.048v4.553h-1.093v-4.258c0-1.303-0.784-2.073-2.087-2.073
				c-1.457,0.014-2.354,0.966-2.479,2.367v3.964h-1.093v-7.382h1.093v1.625c0.518-1.121,1.513-1.653,2.857-1.667
				C160.039,266.177,161.076,267.27,161.076,269.048z"/>
		</g>
	</g>
</g>
<g id="Layer_5" display="none">
	<rect x="110.75" y="120.614" display="inline" fill="#E3D9C8" width="71.851" height="18"/>
	<g display="inline">
		
			<text transform="matrix(1 0 0 1 112.6308 137.0898)" fill="#2F343B" font-family="'Montserrat-Bold'" font-size="20" letter-spacing="4">SIGN</text>
	</g>
	<rect x="117.966" y="257.791" display="inline" fill="#E3D9C8" width="55.551" height="20.02"/>
	<g display="inline">
		<text transform="matrix(1 0 0 1 129.5372 273.5574)" fill="#2F343B" font-family="'Montserrat-Regular'" font-size="14">Now</text>
	</g>
</g>
</svg>
