<?xml version="1.0" encoding="utf-8"?>
<!-- Generator: Adobe Illustrator 17.0.0, SVG Export Plug-In . SVG Version: 6.00 Build 0)  -->
<!DOCTYPE svg PUBLIC "-//W3C//DTD SVG 1.1//EN" "http://www.w3.org/Graphics/SVG/1.1/DTD/svg11.dtd">
<svg version="1.1" id="Layer_1" xmlns="http://www.w3.org/2000/svg" xmlns:xlink="http://www.w3.org/1999/xlink" x="0px" y="0px"
	 width="295px" height="300px" viewBox="0 0 295 300" enable-background="new 0 0 295 300" xml:space="preserve">
<g id="Layer_9">
</g>
<g id="Layer_3">
	<g>
		<g enable-background="new    ">
			<path fill="#2F343B" d="M85.072,133.25v-14.003h3.561v14.003H85.072z"/>
			<path fill="#2F343B" d="M101.913,122.107v11.143h-3.561v-11.143h-4.181v-2.881h11.962v2.881H101.913z"/>
			<path fill="#2F343B" d="M114.332,120.867c0,0.521-0.18,0.94-0.44,1.32l-1.46,2.12h-1.641l0.9-2.12c-0.46-0.32-0.66-0.78-0.66-1.3
				c0-0.98,0.7-1.661,1.66-1.661C113.572,119.227,114.332,119.827,114.332,120.867z"/>
			<path fill="#2F343B" d="M129.973,130.27v2.98h-9.502v-14.003h3.561v11.022H129.973z"/>
			<path fill="#2F343B" d="M145.173,130.27v2.98h-9.502v-14.003h3.561v11.022H145.173z"/>
			<path fill="#2F343B" d="M162.691,130.67l-1.021,2.58h-3.66l6.041-14.003h3.661l5.901,14.003h-3.801l-1.001-2.58H162.691z
				 M165.772,122.788l-2.041,5.181h4.041L165.772,122.788z"/>
			<path fill="#2F343B" d="M188.413,130.27v2.98h-9.502v-14.003h3.561v11.022H188.413z"/>
			<path fill="#2F343B" d="M203.612,130.27v2.98h-9.502v-14.003h3.561v11.022H203.612z"/>
		</g>
		<g enable-background="new    ">
			<path fill="#2F343B" d="M75.973,152.709c0,2.98-1.86,4.701-4.841,4.701c-1.98,0-3.581-0.82-4.821-2.24l1.641-2.381
				c1,1.04,2.12,1.561,2.94,1.561c0.94,0,1.5-0.58,1.5-1.721v-6.521h-4.801v-2.881h8.382V152.709z"/>
			<path fill="#2F343B" d="M95.134,151.369c0,3.7-2.46,6.041-6.381,6.041c-3.941,0-6.461-2.341-6.461-6.041v-8.122h3.561v8.122
				c0,1.9,1.22,3.061,2.92,3.061c1.68,0,2.821-1.16,2.821-3.061v-8.122h3.541V151.369z"/>
			<path fill="#2F343B" d="M112.594,144.647l-1.34,2.78c-1.48-0.86-3.341-1.46-4.481-1.46c-0.92,0-1.541,0.34-1.541,1.021
				c0,2.42,7.402,1.04,7.402,6.101c0,2.801-2.48,4.281-5.602,4.281c-2.34,0-4.741-0.88-6.401-2.24l1.38-2.741
				c1.44,1.261,3.601,2.101,5.061,2.101c1.121,0,1.821-0.42,1.821-1.22c0-2.48-7.402-1.001-7.402-5.962
				c0-2.58,2.221-4.221,5.581-4.221C109.093,143.087,111.153,143.707,112.594,144.647z"/>
			<path fill="#2F343B" d="M125.053,146.107v11.143h-3.561v-11.143h-4.181v-2.881h11.962v2.881H125.053z"/>
			<path fill="#2F343B" d="M155.514,157.25l-2.601-9.682l-2.641,9.682h-3.681l-4.581-14.003h3.801l2.741,10.302l2.681-10.302h3.48
				l2.74,10.302l2.701-10.302h3.641l-4.621,14.003H155.514z"/>
			<path fill="#2F343B" d="M183.234,150.229c0,4.081-3.241,7.182-7.582,7.182c-4.321,0-7.562-3.081-7.562-7.182
				c0-4.081,3.24-7.102,7.562-7.102C179.993,143.127,183.234,146.168,183.234,150.229z M171.731,150.248
				c0,2.361,1.82,4.182,3.961,4.182c2.16,0,3.881-1.82,3.881-4.182c0-2.36-1.721-4.141-3.881-4.141S171.731,147.888,171.731,150.248
				z"/>
			<path fill="#2F343B" d="M195.473,153.31h-0.101h-2.7v3.94h-3.561v-14.003h6.261c3.701,0,5.821,1.761,5.821,4.881
				c0,2.141-0.9,3.681-2.54,4.501l2.94,4.621h-4.041L195.473,153.31z M195.372,150.509c1.541,0,2.44-0.78,2.44-2.261
				c0-1.46-0.899-2.2-2.44-2.2h-2.7v4.461H195.372z"/>
			<path fill="#2F343B" d="M213.012,151.749l-1.86,2.061v3.44h-3.561v-14.003h3.561v6.062l5.361-6.062h4.121l-5.201,5.801
				l5.541,8.202h-4.261L213.012,151.749z"/>
		</g>
		<g enable-background="new    ">
			<path fill="#2F343B" d="M69.021,181.25v-14.003h3.561v14.003H69.021z"/>
			<path fill="#2F343B" d="M85.863,170.107v11.143h-3.561v-11.143h-4.181v-2.881h11.962v2.881H85.863z"/>
			<path fill="#2F343B" d="M106.503,168.647l-1.34,2.78c-1.48-0.86-3.341-1.46-4.481-1.46c-0.92,0-1.541,0.34-1.541,1.021
				c0,2.42,7.402,1.04,7.402,6.101c0,2.801-2.48,4.281-5.602,4.281c-2.34,0-4.741-0.88-6.401-2.24l1.38-2.741
				c1.44,1.261,3.601,2.101,5.061,2.101c1.121,0,1.821-0.42,1.821-1.22c0-2.48-7.402-1.001-7.402-5.962
				c0-2.58,2.221-4.221,5.581-4.221C103.002,167.087,105.063,167.707,106.503,168.647z"/>
			<path fill="#2F343B" d="M116.042,170.048v2.78h6.682v2.801h-6.682v2.82h7.622v2.801h-11.182v-14.003h10.962v2.801H116.042z"/>
			<path fill="#2F343B" d="M139.463,178.27v2.98h-9.502v-14.003h3.561v11.022H139.463z"/>
			<path fill="#2F343B" d="M148.722,170.048v3.24h6.281v2.801h-6.281v5.161h-3.561v-14.003h10.383v2.801H148.722z"/>
			<path fill="#2F343B" d="M184.104,174.229c0,4.081-3.241,7.182-7.582,7.182c-4.321,0-7.562-3.081-7.562-7.182
				c0-4.081,3.24-7.102,7.562-7.102C180.863,167.127,184.104,170.168,184.104,174.229z M172.602,174.248
				c0,2.361,1.82,4.182,3.961,4.182c2.16,0,3.881-1.82,3.881-4.182c0-2.36-1.721-4.141-3.881-4.141S172.602,171.888,172.602,174.248
				z"/>
			<path fill="#2F343B" d="M202.583,175.369c0,3.7-2.46,6.041-6.381,6.041c-3.941,0-6.462-2.341-6.462-6.041v-8.122h3.562v8.122
				c0,1.9,1.22,3.061,2.92,3.061c1.681,0,2.821-1.16,2.821-3.061v-8.122h3.54V175.369z"/>
			<path fill="#2F343B" d="M215.622,170.107v11.143h-3.561v-11.143h-4.181v-2.881h11.962v2.881H215.622z"/>
		</g>
	</g>
	<g>
		<g enable-background="new    ">
			<path fill="#2F343B" d="M104.949,15.521v10.903h-1.4V15.521h-3.991v-1.348h9.398v1.348H104.949z"/>
			<path fill="#2F343B" d="M118.32,20.736v5.688h-1.365v-5.32c0-1.628-0.98-2.591-2.608-2.591c-1.96,0.018-3.115,1.4-3.115,3.378
				v4.533h-1.365V13.438h1.365v5.828c0.63-1.436,1.89-2.101,3.588-2.118C117.024,17.148,118.32,18.514,118.32,20.736z"/>
			<path fill="#2F343B" d="M129.31,22.347h-7.526c0.245,1.803,1.558,2.94,3.343,2.94c1.137,0,2.135-0.402,2.853-1.155l0.752,0.806
				c-0.875,0.979-2.17,1.54-3.71,1.54c-2.712,0-4.585-1.908-4.585-4.655c0-2.748,1.891-4.656,4.568-4.656
				C127.979,17.148,129.45,19.214,129.31,22.347z M128.084,21.227c-0.087-1.768-1.277-2.888-3.08-2.888
				c-1.75,0-3.01,1.138-3.221,2.888H128.084z"/>
			<path fill="#2F343B" d="M138.041,15.521v4.305h5.723v1.348h-5.723v5.251h-1.4V14.174h7.789v1.348H138.041z"/>
			<path fill="#2F343B" d="M154.299,26.425h-1.365v-2.083c-0.612,1.436-1.838,2.118-3.5,2.136c-2.153,0-3.448-1.365-3.448-3.588
				v-5.688h1.365v5.32c0,1.628,0.962,2.591,2.555,2.591c1.908-0.035,3.027-1.418,3.027-3.378v-4.533h1.365V26.425z"/>
			<path fill="#2F343B" d="M162.384,25.795c-0.647,0.438-1.348,0.683-2.083,0.7c-1.348,0-2.346-0.806-2.346-2.626v-5.268h-1.33
				v-1.103h1.33v-2.433h1.348v2.433l2.924-0.018v1.12h-2.924v5.022c0,1.121,0.438,1.541,1.226,1.541c0.473,0,0.963-0.158,1.47-0.473
				L162.384,25.795z"/>
			<path fill="#2F343B" d="M172.446,26.425h-1.365v-2.083c-0.612,1.436-1.838,2.118-3.501,2.136c-2.152,0-3.447-1.365-3.447-3.588
				v-5.688h1.365v5.32c0,1.628,0.963,2.591,2.555,2.591c1.908-0.035,3.028-1.418,3.028-3.378v-4.533h1.365V26.425z"/>
			<path fill="#2F343B" d="M177.135,19.249c0.613-1.348,1.75-2.083,3.309-2.101v1.383c-1.943-0.035-3.15,1.173-3.309,2.993v4.9
				h-1.365v-9.224h1.365V19.249z"/>
			<path fill="#2F343B" d="M190.226,22.347h-7.526c0.246,1.803,1.559,2.94,3.344,2.94c1.137,0,2.135-0.402,2.853-1.155l0.753,0.806
				c-0.875,0.979-2.17,1.54-3.711,1.54c-2.713,0-4.586-1.908-4.586-4.655c0-2.748,1.891-4.656,4.568-4.656
				C188.896,17.148,190.365,19.214,190.226,22.347z M189,21.227c-0.087-1.768-1.277-2.888-3.08-2.888
				c-1.75,0-3.01,1.138-3.221,2.888H189z"/>
		</g>
	</g>
	
		<line fill="none" stroke="#2F343B" stroke-width="0.875" stroke-linecap="round" stroke-miterlimit="10" x1="98.979" y1="30.538" x2="190.563" y2="30.538"/>
	<g>
		<g enable-background="new    ">
			<path fill="#2F343B" d="M132.961,264.873v8.727h-1.121v-8.727h-3.193v-1.079h7.522v1.079H132.961z"/>
			<path fill="#2F343B" d="M143.66,269.047v4.553h-1.093v-4.258c0-1.303-0.784-2.073-2.087-2.073
				c-1.569,0.014-2.494,1.12-2.494,2.703v3.628h-1.092v-10.394h1.092v4.664c0.504-1.148,1.513-1.681,2.872-1.694
				C142.623,266.176,143.66,267.269,143.66,269.047z"/>
			<path fill="#2F343B" d="M152.451,270.336h-6.023c0.196,1.442,1.247,2.354,2.676,2.354c0.91,0,1.709-0.322,2.283-0.925
				l0.603,0.645c-0.701,0.784-1.737,1.232-2.97,1.232c-2.172,0-3.67-1.526-3.67-3.726s1.513-3.727,3.656-3.727
				C151.387,266.176,152.563,267.828,152.451,270.336z M151.471,269.439c-0.07-1.415-1.022-2.312-2.466-2.312
				c-1.4,0-2.409,0.911-2.577,2.312H151.471z"/>
			<path fill="#2F343B" d="M161.076,269.047v4.553h-1.093v-4.258c0-1.303-0.784-2.073-2.087-2.073
				c-1.457,0.014-2.354,0.966-2.479,2.367v3.964h-1.093v-7.382h1.093v1.625c0.518-1.121,1.513-1.653,2.857-1.667
				C160.039,266.176,161.076,267.269,161.076,269.047z"/>
		</g>
	</g>
</g>
<g id="Layer_5" display="none">
	<rect x="117.966" y="257.791" display="inline" fill="#E3D9C8" width="55.551" height="20.02"/>
	<g display="inline">
		<text transform="matrix(1 0 0 1 129.5372 273.5567)" fill="#2F343B" font-family="'Montserrat-Regular'" font-size="14">Now</text>
	</g>
	<rect x="92.833" y="114.418" display="inline" fill="#E3D9C8" width="15.667" height="23"/>
	<rect x="62.833" y="138.5" display="inline" fill="#E3D9C8" width="73" height="23"/>
	<rect x="152.167" y="115.833" display="inline" fill="#E3D9C8" width="73" height="23"/>
	<rect x="91.833" y="163.167" display="inline" fill="#E3D9C8" width="73" height="23"/>
</g>
</svg>
