<?xml version="1.0" encoding="utf-8"?>
<!-- Generator: Adobe Illustrator 17.0.0, SVG Export Plug-In . SVG Version: 6.00 Build 0)  -->
<!DOCTYPE svg PUBLIC "-//W3C//DTD SVG 1.1//EN" "http://www.w3.org/Graphics/SVG/1.1/DTD/svg11.dtd">
<svg version="1.1" id="Layer_1" xmlns="http://www.w3.org/2000/svg" xmlns:xlink="http://www.w3.org/1999/xlink" x="0px" y="0px"
	 width="295px" height="300px" viewBox="0 0 295 300" enable-background="new 0 0 295 300" xml:space="preserve">
<g id="Layer_9">
</g>
<g id="Layer_3" display="none">
	<g display="inline">
		
			<text transform="matrix(1 0 0 1 60.5243 112.9187)" fill="#2F343B" font-family="'Montserrat-Bold'" font-size="20" letter-spacing="4">EVERYTHING</text>
		
			<text transform="matrix(1 0 0 1 32.3043 136.9187)" fill="#2F343B" font-family="'Montserrat-Bold'" font-size="20" letter-spacing="4">IN MODERATION,</text>
		
			<text transform="matrix(1 0 0 1 63.4743 160.9187)" fill="#2F343B" font-family="'Montserrat-Bold'" font-size="20" letter-spacing="4">EXCEPT FOR</text>
		
			<text transform="matrix(1 0 0 1 60.0143 184.9187)" fill="#2F343B" font-family="'Montserrat-Bold'" font-size="20" letter-spacing="4">TEMPTATION</text>
	</g>
	<g display="inline">
		<text transform="matrix(1 0 0 1 101.1249 26.4263)" fill="#2F343B" font-family="'Montserrat-Light'" font-size="17.5">Hedonism</text>
	</g>
	
		<line display="inline" fill="none" stroke="#2F343B" stroke-width="0.875" stroke-linecap="round" stroke-miterlimit="10" x1="101.458" y1="30.538" x2="190.542" y2="30.538"/>
	<g display="inline">
		<text transform="matrix(1 0 0 1 128.4931 273.5992)" fill="#2F343B" font-family="'Montserrat-Light'" font-size="14">Then</text>
	</g>
</g>
<g id="Layer_5">
	<rect x="117.966" y="257.791" fill="#E3D9C8" width="55.551" height="20.02"/>
	<g>
		<g enable-background="new    ">
			<path fill="#2F343B" d="M137.704,273.557l-5.225-7.032v7.032h-1.653v-9.806h1.625l5.253,7.046v-7.046h1.625v9.806H137.704z"/>
			<path fill="#2F343B" d="M148.89,269.831c0,2.241-1.583,3.781-3.88,3.781c-2.311,0-3.894-1.54-3.894-3.781
				c0-2.256,1.583-3.782,3.894-3.782C147.307,266.049,148.89,267.575,148.89,269.831z M142.726,269.845
				c0,1.442,0.938,2.423,2.283,2.423c1.331,0,2.27-0.98,2.27-2.423c0-1.429-0.939-2.409-2.27-2.409
				C143.665,267.436,142.726,268.416,142.726,269.845z"/>
			<path fill="#2F343B" d="M157.289,273.557l-1.891-5.519l-1.891,5.519h-1.653l-2.745-7.452h1.652l1.934,5.855l1.877-5.855h1.667
				l1.891,5.855l1.905-5.855h1.639l-2.718,7.452H157.289z"/>
		</g>
	</g>
	<rect x="76.167" y="168.517" fill="#E3D9C8" width="168.333" height="26.333"/>
	<g>
		<g enable-background="new    ">
			<path fill="#2F343B" d="M92.73,180.563c0,4.081-3.241,7.182-7.582,7.182c-4.321,0-7.562-3.081-7.562-7.182
				c0-4.081,3.241-7.102,7.562-7.102C89.49,173.462,92.73,176.503,92.73,180.563z M81.228,180.583c0,2.361,1.82,4.182,3.96,4.182
				c2.161,0,3.881-1.82,3.881-4.182c0-2.36-1.72-4.141-3.881-4.141C83.028,176.442,81.228,178.223,81.228,180.583z"/>
			<path fill="#2F343B" d="M104.968,183.645h-0.1h-2.701v3.94h-3.561v-14.003h6.261c3.701,0,5.821,1.761,5.821,4.881
				c0,2.141-0.9,3.681-2.541,4.501l2.94,4.621h-4.041L104.968,183.645z M104.868,180.844c1.541,0,2.44-0.78,2.44-2.261
				c0-1.46-0.9-2.2-2.44-2.2h-2.701v4.461H104.868z"/>
			<path fill="#2F343B" d="M123.569,176.442v11.143h-3.561v-11.143h-4.181v-2.881h11.962v2.881H123.569z"/>
			<path fill="#2F343B" d="M133.307,187.585v-14.003h3.561v14.003H133.307z"/>
			<path fill="#2F343B" d="M153.169,184.604v2.98h-9.502v-14.003h3.561v11.022H153.169z"/>
			<path fill="#2F343B" d="M168.369,184.604v2.98h-9.502v-14.003h3.561v11.022H168.369z"/>
			<path fill="#2F343B" d="M177.308,185.005l-1.021,2.58h-3.661l6.042-14.003h3.66l5.901,14.003h-3.801l-1-2.58H177.308z
				 M180.388,177.123l-2.04,5.181h4.041L180.388,177.123z"/>
		</g>
	</g>
	<g>
		<g enable-background="new    ">
			<path fill="#2F343B" d="M95.377,199.156l-2.061,2.44c-0.92-1.12-2.28-1.82-3.521-1.82c-2.22,0-3.9,1.761-3.9,4.062
				c0,2.34,1.68,4.12,3.9,4.12c1.181,0,2.541-0.64,3.521-1.64l2.081,2.2c-1.5,1.54-3.721,2.561-5.781,2.561
				c-4.221,0-7.362-3.101-7.362-7.201c0-4.041,3.221-7.082,7.482-7.082C91.816,196.796,93.977,197.716,95.377,199.156z"/>
			<path fill="#2F343B" d="M110.376,210.919v-5.441h-5.801v5.441h-3.561v-14.003h3.561v5.761h5.801v-5.761h3.561v14.003H110.376z"/>
			<path fill="#2F343B" d="M120.734,210.919v-14.003h3.561v14.003H120.734z"/>
			<path fill="#2F343B" d="M137.195,196.916c3.581,0,5.641,1.761,5.641,4.881c0,3.281-2.06,5.182-5.641,5.182h-2.541v3.94h-3.561
				v-14.003H137.195z M134.654,204.178h2.361c1.56,0,2.46-0.78,2.46-2.261c0-1.46-0.9-2.2-2.46-2.2h-2.361V204.178z"/>
			<path fill="#2F343B" d="M159.596,198.316l-1.34,2.78c-1.48-0.86-3.341-1.46-4.481-1.46c-0.92,0-1.54,0.34-1.54,1.021
				c0,2.42,7.401,1.04,7.401,6.101c0,2.801-2.48,4.281-5.602,4.281c-2.34,0-4.74-0.88-6.401-2.24l1.38-2.741
				c1.44,1.261,3.601,2.101,5.061,2.101c1.121,0,1.821-0.42,1.821-1.22c0-2.48-7.402-1.001-7.402-5.962
				c0-2.58,2.221-4.221,5.581-4.221C156.095,196.756,158.155,197.376,159.596,198.316z"/>
		</g>
	</g>
</g>
</svg>
