<?xml version="1.0" encoding="utf-8"?>
<!-- Generator: Adobe Illustrator 17.0.0, SVG Export Plug-In . SVG Version: 6.00 Build 0)  -->
<!DOCTYPE svg PUBLIC "-//W3C//DTD SVG 1.1//EN" "http://www.w3.org/Graphics/SVG/1.1/DTD/svg11.dtd">
<svg version="1.1" id="Layer_1" xmlns="http://www.w3.org/2000/svg" xmlns:xlink="http://www.w3.org/1999/xlink" x="0px" y="0px"
	 width="295px" height="300px" viewBox="0 0 295 300" enable-background="new 0 0 295 300" xml:space="preserve">
<g id="Layer_9">
</g>
<g id="Layer_3" display="none">
	<g display="inline">
		
			<text transform="matrix(1 0 0 1 83.6713 133.2498)" fill="#2F343B" font-family="'Montserrat-Bold'" font-size="20" letter-spacing="4">IT’LL ALL</text>
		
			<text transform="matrix(1 0 0 1 66.4113 157.2498)" fill="#2F343B" font-family="'Montserrat-Bold'" font-size="20" letter-spacing="4">JUST WORK</text>
		
			<text transform="matrix(1 0 0 1 67.6213 181.2498)" fill="#2F343B" font-family="'Montserrat-Bold'" font-size="20" letter-spacing="4">ITSELF OUT</text>
	</g>
	<g display="inline">
		<text transform="matrix(1 0 0 1 99.3662 26.425)" fill="#2F343B" font-family="'Montserrat-Light'" font-size="17.5">The Future</text>
	</g>
	
		<line display="inline" fill="none" stroke="#2F343B" stroke-width="0.875" stroke-linecap="round" stroke-miterlimit="10" x1="98.979" y1="30.538" x2="190.563" y2="30.538"/>
	<g display="inline">
		<text transform="matrix(1 0 0 1 128.4933 273.5999)" fill="#2F343B" font-family="'Montserrat-Light'" font-size="14">Then</text>
	</g>
</g>
<g id="Layer_5">
	<rect x="117.966" y="257.791" fill="#E3D9C8" width="55.551" height="20.02"/>
	<g>
		<g enable-background="new    ">
			<path fill="#2F343B" d="M137.704,273.557l-5.225-7.032v7.032h-1.653v-9.806h1.625l5.253,7.046v-7.046h1.625v9.806H137.704z"/>
			<path fill="#2F343B" d="M148.89,269.831c0,2.241-1.583,3.781-3.88,3.781c-2.311,0-3.894-1.54-3.894-3.781
				c0-2.256,1.583-3.782,3.894-3.782C147.307,266.049,148.89,267.575,148.89,269.831z M142.726,269.845
				c0,1.442,0.938,2.423,2.283,2.423c1.331,0,2.27-0.98,2.27-2.423c0-1.429-0.939-2.409-2.27-2.409
				C143.665,267.436,142.726,268.416,142.726,269.845z"/>
			<path fill="#2F343B" d="M157.29,273.557l-1.892-5.519l-1.891,5.519h-1.653l-2.745-7.452h1.653l1.933,5.855l1.877-5.855h1.667
				l1.891,5.855l1.905-5.855h1.639l-2.717,7.452H157.29z"/>
		</g>
	</g>
	<rect x="92.833" y="114.418" fill="#E3D9C8" width="15.667" height="23"/>
	<rect x="62.833" y="138.5" fill="#E3D9C8" width="73" height="23"/>
	<rect x="152.167" y="115.833" fill="#E3D9C8" width="73" height="23"/>
	<rect x="91.833" y="163.167" fill="#E3D9C8" width="73" height="23"/>
</g>
</svg>
