<?xml version="1.0" encoding="utf-8"?>
<!-- Generator: Adobe Illustrator 17.0.0, SVG Export Plug-In . SVG Version: 6.00 Build 0)  -->
<!DOCTYPE svg PUBLIC "-//W3C//DTD SVG 1.0//EN" "http://www.w3.org/TR/2001/REC-SVG-20010904/DTD/svg10.dtd">
<svg version="1.0" id="Layer_1" xmlns="http://www.w3.org/2000/svg" xmlns:xlink="http://www.w3.org/1999/xlink" x="0px" y="0px"
	 width="236.15px" height="52.633px" viewBox="54.971 180.204 236.15 52.633" enable-background="new 54.971 180.204 236.15 52.633"
	 xml:space="preserve">
<g>
	<path fill="#2F343B" d="M93.416,193.657c0,5.587-4.117,11.394-9.704,17.128l-10.438,11.099H94.96v10.365H56.441v-8.453
		l18.377-19.48c2.867-3.014,4.925-6.469,4.925-8.821c0-2.94-2.132-4.705-5.807-4.705c-4.19,0-9.336,2.499-14.04,6.542l-4.925-9.41
		c6.469-4.851,13.526-7.718,20.877-7.718C86.065,180.204,93.416,185.497,93.416,193.657z"/>
	<path fill="#2F343B" d="M107.455,232.25v-41.019h-9.483v-10.512h22.567v51.53L107.455,232.25L107.455,232.25z"/>
	<path fill="#2F343B" d="M152.161,232.25l-7.229-18.227h2.87l5.811,15.425l5.776-15.425h2.733l-7.16,18.227H152.161z"/>
	<path fill="#2F343B" d="M175.852,215.579l-1.038,2.144c-1.418-0.899-3.252-1.487-4.946-1.487c-2.04,0-3.597,0.726-3.597,2.421
		c0,4.047,10.168,1.972,10.168,8.508c0,3.597-3.182,5.188-6.675,5.188c-2.594,0-5.257-0.899-6.987-2.559l1.038-2.04
		c1.556,1.453,3.908,2.317,6.052,2.317c2.145,0,3.874-0.795,3.908-2.594c0.104-4.393-10.099-2.144-10.065-8.612
		c0-3.493,3.009-4.946,6.329-4.946C172.22,213.919,174.33,214.541,175.852,215.579z"/>
	<path fill="#2F343B" d="M182.698,230.728c0,1.038-0.726,1.798-1.66,1.798c-0.968,0-1.695-0.761-1.695-1.798
		c0-1.038,0.727-1.798,1.695-1.798C181.972,228.929,182.698,229.69,182.698,230.728z"/>
	<path fill="#2F343B" d="M227.464,202.037c7.498,1.177,12.791,6.101,12.791,14.04c0,9.85-7.718,16.76-19.7,16.76
		c-7.057,0-14.482-2.499-19.186-6.249l5.293-9.924c3.822,4.117,8.233,6.249,12.865,6.249c5.145,0,7.939-2.5,7.939-6.689
		c0-4.338-2.867-6.469-8.012-6.469h-8.233v-6.983l11.467-11.909h-18.745v-9.998h33.962v7.424l-12.865,13.378L227.464,202.037z"/>
	<path fill="#2F343B" d="M291.121,206.448c0,16.833-8.16,26.169-22.715,26.169c-14.702,0-22.861-9.336-22.861-26.169
		c0-16.76,8.16-26.096,22.861-26.096C282.961,180.351,291.121,189.687,291.121,206.448z M258.997,206.448
		c0,11.761,2.794,16.613,9.41,16.613c6.469,0,9.336-4.851,9.336-16.613c0-11.762-2.868-16.54-9.336-16.54
		C261.791,189.908,258.997,194.686,258.997,206.448z"/>
</g>
</svg>
